<svg xmlns="http://www.w3.org/2000/svg" xmlns:xlink="http://www.w3.org/1999/xlink" xmlns:inkscape="http://www.inkscape.org/namespaces/inkscape" version="1.1" width="285.31864" height="170.54096" viewBox="0 0 285.31864 170.54096">
<defs>
<clipPath id="clip_1">
<path transform="matrix(1,0,0,-1,-174.84001,489.4037)" d="M174.84 318.86274H460.15864V489.4037H174.84Z"/>
</clipPath>
<clipPath id="clip_2">
<path transform="matrix(1,0,0,-1,-174.84001,489.4037)" d="M0 0H848.16V599.76H0Z"/>
</clipPath>
<path id="font_3_18" d="M.34765626 0H.26171876V.4453125L.265625 .62109377 .1328125 .5078125 .0859375 .56640627 .2734375 .71484377H.34765626V0Z"/>
<path id="font_3_19" d="M.4921875 0H.046875V.078125L.29296876 .34375C.34765626 .40885417 .375 .47135417 .375 .53125 .375 .609375 .3359375 .6484375 .2578125 .6484375 .20572917 .6484375 .15494792 .62630209 .10546875 .58203127L.0546875 .640625C.1171875 .6953125 .18619792 .72265627 .26171876 .72265627 .3971354 .72265627 .46484376 .66015627 .46484376 .53515627 .46484376 .4596354 .4075521 .3580729 .29296876 .23046875L.15625 .0859375V.08203125H.4921875V0Z"/>
<path id="font_3_20" d="M.31640626 .375C.43359376 .359375 .4921875 .30208335 .4921875 .203125 .4921875 .0625 .4049479-.0078125 .23046875-.0078125 .14973958-.0078125 .0859375 .00390625 .0390625 .02734375V.11328125C.098958339 .08203125 .16145833 .06640625 .2265625 .06640625 .34114585 .06640625 .3984375 .11328125 .3984375 .20703125 .3984375 .2903646 .33854167 .33203126 .21875 .33203126H.1484375V.40625H.19921875C.3190104 .40625 .37890626 .4518229 .37890626 .54296877 .37890626 .61328127 .33854167 .6484375 .2578125 .6484375 .19791667 .6484375 .14192708 .62890627 .08984375 .58984377L.04296875 .65234377C.102864589 .69921877 .17447917 .72265627 .2578125 .72265627 .3984375 .72265627 .46875 .6640625 .46875 .546875 .46875 .453125 .41796876 .39583335 .31640626 .375Z"/>
<path id="font_3_21" d="M.53125 .16015625H.42578126V0H.33984376V.16015625H.01171875V.23828125L.3359375 .71875H.42578126V.2421875H.53125V.16015625M.33984376 .2421875 .34765626 .625H.34375C.33072917 .5885417 .24869792 .4609375 .09765625 .2421875H.33984376Z"/>
<path id="font_3_22" d="M.0625 .02734375V.11328125C.109375 .08203125 .16927083 .06640625 .2421875 .06640625 .34895835 .06640625 .40234376 .1171875 .40234376 .21875 .40234376 .31510417 .34635417 .36328126 .234375 .36328126L.125 .3515625 .078125 .37890626 .10546875 .71484377H.44140626V.6328125H.18359375L.1640625 .4296875 .265625 .4375C.3359375 .4375 .3919271 .41861979 .43359376 .38085938 .4752604 .34309898 .49609376 .29296876 .49609376 .23046875 .49609376 .071614589 .41015626-.0078125 .23828125-.0078125 .16536458-.0078125 .106770839 .00390625 .0625 .02734375Z"/>
<path id="font_3_23" d="M.453125 .71484377V.640625L.37109376 .65234377C.22526042 .65234377 .14973958 .55598959 .14453125 .36328126H.15234375C.18359375 .41796876 .23307292 .4453125 .30078126 .4453125 .4361979 .4453125 .50390627 .3736979 .50390627 .23046875 .50390627 .071614589 .43229167-.0078125 .2890625-.0078125 .1328125-.0078125 .0546875 .096354167 .0546875 .3046875 .0546875 .5833333 .15885417 .72265627 .3671875 .72265627L.453125 .71484377M.2890625 .37890626C.24739583 .37890626 .21289063 .36523438 .18554688 .33789063 .15820313 .31054688 .14453125 .2799479 .14453125 .24609375 .14453125 .19401042 .15820313 .15104167 .18554688 .1171875 .21289063 .083333339 .24739583 .06640625 .2890625 .06640625 .375 .06640625 .41796876 .12109375 .41796876 .23046875 .41796876 .3294271 .375 .37890626 .2890625 .37890626Z"/>
<path id="font_3_34" d="M.515625 0 .4375 .22265625H.171875L.09375 0H0L.26171876 .71875H.34375L.609375 0H.515625M.41015626 .30078126C.3450521 .4830729 .30989585 .58984377 .3046875 .62109377L.26953126 .5078125 .19921875 .30078126H.41015626Z"/>
<path id="font_3_35" d="M.09765625 .71484377H.29296876C.4622396 .71484377 .546875 .65494796 .546875 .53515627 .546875 .4466146 .4986979 .39453126 .40234376 .37890626V.375C.51171877 .35677085 .56640627 .30078126 .56640627 .20703125 .56640627 .069010417 .4830729 0 .31640626 0H.09765625V.71484377M.1875 .41015626H.30859376C.4049479 .41015626 .453125 .44921876 .453125 .52734377 .453125 .60026046 .40104167 .63671877 .296875 .63671877H.1875V.41015626M.1875 .3359375V.078125H.31640626C.41796876 .078125 .46875 .122395839 .46875 .2109375 .46875 .29427085 .41666667 .3359375 .3125 .3359375H.1875Z"/>
<path id="font_3_36" d="M.546875 .09765625V.01953125C.5 .0013020834 .44140626-.0078125 .37109376-.0078125 .16536458-.0078125 .0625 .114583339 .0625 .359375 .0625 .47395835 .091796878 .56315109 .15039063 .6269531 .20898438 .6907552 .2877604 .72265627 .38671876 .72265627 .4596354 .72265627 .52213546 .70963546 .57421877 .68359377L.53515627 .60546877C.4856771 .63151046 .4361979 .64453127 .38671876 .64453127 .3190104 .64453127 .26367188 .6191406 .22070313 .5683594 .17773438 .5175781 .15625 .4466146 .15625 .35546876 .15625 .16536458 .23307292 .0703125 .38671876 .0703125 .4283854 .0703125 .48177085 .079427089 .546875 .09765625Z"/>
<path id="font_3_37" d="M.09765625 0V.71484377H.296875C.3984375 .71484377 .47851563 .6842448 .5371094 .6230469 .5957031 .56184896 .625 .4752604 .625 .36328126 .625 .12109375 .5026042 0 .2578125 0H.09765625M.1875 .63671877V.078125H.265625C.44010417 .078125 .52734377 .171875 .52734377 .359375 .52734377 .5416667 .44921876 .63411459 .29296876 .63671877H.1875Z"/>
<path id="font_4_52" d="M.59599307 .5149994C.59599307 .5649872 .59298709 .57899478 .57699587 .61299136 .5369873 .69699099 .45199586 .7409973 .32899476 .7409973 .16899109 .7409973 .069992069 .6589966 .069992069 .5269928 .069992069 .43798829 .116989139 .38198854 .21299744 .35699464L.3939972 .30899049C.4869995 .2849884 .5279999 .24798584 .5279999 .19099427 .5279999 .1519928 .5069885 .11199951 .47599793 .08999634 .44699098 .068984989 .40098573 .05899048 .34199525 .05899048 .2619934 .05899048 .20899964 .07798767 .17399597 .11999512 .14698792 .1519928 .1349945 .18699646 .13598633 .23199463H.04798889C.04899597 .16499329 .06199646 .12098694 .09098816 .08099365 .14099121 .011993408 .22499085-.023010254 .33599855-.023010254 .4229889-.023010254 .49398805-.0030059815 .54100039 .032989503 .58999636 .07199097 .62098696 .13699341 .62098696 .19999695 .62098696 .2899933 .5649872 .35598756 .46598817 .3829956L.2829895 .43199159C.19499207 .45599366 .16299439 .48399354 .16299439 .5399933 .16299439 .6139984 .22799683 .6629944 .32598878 .6629944 .44198609 .6629944 .5069885 .61099246 .5079956 .5149994H.59599307Z"/>
<path id="font_4_41" d="M.5509949 .33198548V0H.6439972V.72898867H.5509949V.4139862H.17599488V.72898867H.08299255V0H.17599488V.33198548H.5509949Z"/>
<path id="font_4_51" d="M.18598938 .31399537H.42599488C.5089874 .31399537 .54599 .27398683 .54599 .18399048L.54499819 .11898804C.54499819 .07398987 .5529938 .02999878 .56599429 0H.67900088V.022994996C.6439972 .04699707 .6369934 .07299805 .6349945 .16999817 .6339874 .2899933 .61499026 .32598878 .5359955 .3600006 .6179962 .40098573 .651001 .44999696 .651001 .5339966 .651001 .6599884 .57299807 .72898867 .42900086 .72898867H.09298706V0H.18598938V.31399537M.18598938 .3959961V.6469879H.41099549C.46299745 .6469879 .49299623 .6389923 .5159912 .61898806 .54100039 .59799197 .55400088 .5649872 .55400088 .5219879 .55400088 .43499757 .5099945 .3959961 .41099549 .3959961H.18598938Z"/>
<path id="font_4_37" d="M.08898926 0H.36999513C.55400088 0 .6669922 .13798523 .6669922 .36499024 .6669922 .59098818 .5549927 .72898867 .36999513 .72898867H.08898926V0M.18199158 .08198547V.6469879H.35398866C.49798585 .6469879 .57398989 .5499878 .57398989 .3639984 .57398989 .1789856 .49798585 .08198547 .35398866 .08198547H.18199158Z"/>
<path id="font_4_64" d="M.5779877-.12600708H-.022003174V-.17601013H.5779877V-.12600708Z"/>
<path id="font_4_38" d="M.18299866 .33198548H.5799866V.4139862H.18299866V.6469879H.59498599V.72898867H.08999634V0H.61299136V.08198547H.18299866V.33198548Z"/>
<path id="font_4_36" d="M.6619873 .5029907C.6329956 .6629944 .54100039 .7409973 .3809967 .7409973 .2829895 .7409973 .20399475 .70999148 .1499939 .6499939 .083999637 .5779877 .04798889 .47399903 .04798889 .35598756 .04798889 .23599243 .084991458 .1329956 .15299988 .06199646 .20999146 .0039978029 .28199769-.023010254 .3769989-.023010254 .5549927-.023010254 .6549988 .07299805 .6769867 .2659912H.58099368C.57299807 .21598816 .5629883 .18199158 .5479889 .15299988 .5179901 .09298706 .45599366 .05899048 .37799073 .05899048 .23298645 .05899048 .14099121 .1749878 .14099121 .35699464 .14099121 .5439911 .22799683 .6589966 .36999513 .6589966 .42900086 .6589966 .48399354 .6419983 .5139923 .61299136 .54100039 .58799746 .55599978 .55799868 .5669861 .5029907H.6619873Z"/>
<path id="font_4_34" d="M.47399903 .21899414 .548996 0H.6529999L.39698792 .72898867H.2769928L.016998291 0H.115997318L.19299317 .21899414H.47399903M.44799806 .29699708H.21598816L.33599855 .6289978 .44799806 .29699708Z"/>
<path id="font_4_35" d="M.07899475 0H.4079895C.47698976 0 .5279999 .018997193 .5669861 .06098938 .6029968 .09899902 .6230011 .15098572 .6230011 .20799256 .6230011 .29599 .58299258 .34899903 .48999024 .3849945 .5569916 .41600038 .59098818 .46899415 .59098818 .5439911 .59098818 .59799197 .57099917 .6439972 .5329895 .6779938 .49398805 .71299746 .44499208 .72898867 .375 .72898867H.07899475V0M.17199707 .4149933V.6469879H.35198976C.4039917 .6469879 .43299867 .6399994 .45799256 .62098696 .48399354 .6009979 .49798585 .57099917 .49798585 .5309906 .49798585 .4909973 .48399354 .46099855 .45799256 .44099427 .43299867 .42199708 .4039917 .4149933 .35198976 .4149933H.17199707M.17199707 .08198547V.33299256H.39898683C.48098756 .33299256 .5299988 .28599549 .5299988 .20698548 .5299988 .1289978 .48098756 .08198547 .39898683 .08198547H.17199707Z"/>
<path id="font_4_58" d="M.3869934 .28599549 .6609955 .72898867H.5499878L.34199525 .37399293 .12799073 .72898867H.0129852299L.2939911 .28599549V0H.3869934V.28599549Z"/>
<path id="font_4_17" d="M.2749939 .72299197C.20899964 .72299197 .14898682 .69299319 .11199951 .6439972 .06599426 .5799866 .042999269 .48399354 .042999269 .34999085 .042999269 .10598755 .12298584-.023010254 .2749939-.023010254 .4249878-.023010254 .5069885 .10598755 .5069885 .34399415 .5069885 .48399354 .4850006 .5779877 .43798829 .6439972 .40098573 .69400027 .34199525 .72299197 .2749939 .72299197M.2749939 .644989C.36999513 .644989 .4169922 .5479889 .4169922 .35198976 .4169922 .1459961 .37098695 .049987794 .272995 .049987794 .17999268 .049987794 .1329956 .1499939 .1329956 .34899903 .1329956 .5479889 .17999268 .644989 .2749939 .644989Z"/>
<path id="font_4_18" d="M.25898744 .5149994V0H.34700013V.72299197H.2889862C.2579956 .6119995 .23799134 .5970001 .101989749 .57899478V.5149994H.25898744Z"/>
<path id="font_4_19" d="M.5059967 .08699036H.1329956C.14199829 .14698792 .17399597 .18499756 .26098634 .23799134L.36099244 .2939911C.45999146 .34899903 .5109863 .4229889 .5109863 .5119934 .5109863 .57199099 .4869995 .6279907 .44499208 .6669922 .40299989 .7049866 .35099793 .72299197 .28399659 .72299197 .19400025 .72299197 .1269989 .69099429 .08799744 .6289978 .06298828 .59098818 .051986696 .54599 .049987794 .47299195H.13798523C.14099121 .5219879 .14698792 .5509949 .15899658 .57499697 .18199158 .61898806 .22799683 .6459961 .2809906 .6459961 .36099244 .6459961 .42099 .58799746 .42099 .5099945 .42099 .45199586 .3880005 .4019928 .32499696 .3659973L.23298645 .31199647C.084991458 .22698975 .041992189 .15899658 .033996583 .0009918213H.5059967V.08699036Z"/>
<path id="font_4_20" d="M.22099304 .33299256H.23199463 .2689972C.36499024 .33299256 .41600038 .28799439 .41600038 .20098877 .41600038 .10998535 .36099244 .054992677 .269989 .054992677 .17298889 .054992677 .12599182 .10398865 .11999512 .20999146H.03199768C.035995485 .1519928 .04598999 .11399841 .06298828 .08198547 .099990848 .011993408 .16899109-.023010254 .2659912-.023010254 .4119873-.023010254 .5059967 .06498718 .5059967 .20199585 .5059967 .2939911 .47099305 .34399415 .38598634 .37399293 .45199586 .40098573 .4850006 .45098878 .4850006 .5239868 .4850006 .647995 .4039917 .72299197 .2689972 .72299197 .12599182 .72299197 .049987794 .6429901 .04699707 .48999024H.1349945C.13598633 .5339966 .13999939 .5589905 .15098572 .58099368 .17098999 .621994 .21499634 .6459961 .269989 .6459961 .34799195 .6459961 .394989 .598999 .394989 .5209961 .394989 .46998597 .3769989 .43899537 .33799745 .42199708 .31399537 .4119873 .28199769 .4079895 .22099304 .40699769V.33299256Z"/>
<path id="font_4_77" d="M.1519928 .72898867H.067993167V0H.1519928V.72898867Z"/>
<path id="font_4_74" d="M.1499939 .5239868H.066986087V0H.1499939V.5239868M.1499939 .72898867H.06599426V.6239929H.1499939V.72898867Z"/>
<path id="font_4_69" d="M.49499513 .72898867H.4119873V.45799256C.3769989 .5109863 .32099916 .5389862 .25099183 .5389862 .114990238 .5389862 .025985718 .42999269 .025985718 .2630005 .025985718 .085998538 .11199951-.023010254 .2539978-.023010254 .32598878-.023010254 .37599183 .0039978029 .42099 .068984989V0H.49499513V.72898867M.2649994 .46099855C.35499574 .46099855 .4119873 .38198854 .4119873 .2559967 .4119873 .1349945 .35398866 .054992677 .2659912 .054992677 .17399597 .054992677 .11299133 .13598633 .11299133 .2579956 .11299133 .37998963 .17399597 .46099855 .2649994 .46099855Z"/>
<path id="font_4_70" d="M.5130005 .23399353C.5130005 .31399537 .5069885 .3619995 .49198915 .40098573 .45799256 .4869995 .37799073 .5389862 .27999879 .5389862 .13398743 .5389862 .039993287 .42799378 .039993287 .25498963 .039993287 .08198547 .12998963-.023010254 .27799989-.023010254 .397995-.023010254 .48098756 .04499817 .5019989 .15899658H.41799928C.394989 .08999634 .34799195 .053985597 .2809906 .053985597 .22799683 .053985597 .18299866 .07798767 .15499878 .12199402 .1349945 .1519928 .12799073 .18199158 .1269989 .23399353H.5130005M.1289978 .3019867C.13598633 .39898683 .19499207 .46199037 .2789917 .46199037 .3639984 .46199037 .4229889 .3959961 .4229889 .3019867H.1289978Z"/>
<path id="font_4_88" d="M.55400088 0 .70799258 .5239868H.6139984L.5099945 .115997318 .40699769 .5239868H.30499269L.20498657 .115997318 .09799194 .5239868H.005996704L.1579895 0H.2519989L.35299684 .41099549 .45899964 0H.55400088Z"/>
<path id="font_4_85" d="M.2539978 .5239868H.16799927V.66799929H.084991458V.5239868H.01399231V.45599366H.084991458V.05999756C.084991458 .005996704 .12098694-.023010254 .18598938-.023010254 .20799256-.023010254 .22599793-.021011353 .2539978-.01600647V.053985597C.24198914 .050994874 .23098755 .049987794 .21398926 .049987794 .17799378 .049987794 .16799927 .05999756 .16799927 .09700012V.45599366H.2539978V.5239868Z"/>
<path id="font_4_68" d="M.47099305 .34799195C.46699525 .39898683 .45599366 .43199159 .43598939 .46099855 .3999939 .5099945 .33699037 .5389862 .2639923 .5389862 .12199402 .5389862 .0309906 .4269867 .0309906 .25299073 .0309906 .083999637 .12098694-.023010254 .2630005-.023010254 .3880005-.023010254 .46699525 .051986696 .47698976 .17999268H.3929901C.3789978 .09599304 .33599855 .053985597 .2649994 .053985597 .17298889 .053985597 .117996219 .1289978 .117996219 .25299073 .117996219 .38398744 .17199707 .46199037 .2630005 .46199037 .33299256 .46199037 .3769989 .42099 .3869934 .34799195H.47099305Z"/>
<path id="font_4_73" d="M.069992069 .72898867V0H.15299988V.2889862C.15299988 .3959961 .20899964 .46598817 .29499818 .46598817 .32299806 .46598817 .34899903 .45799256 .36898805 .44299317 .3929901 .4249878 .40299989 .3999939 .40299989 .36299134V0H.48599244V.3959961C.48599244 .48399354 .4229889 .5389862 .32099916 .5389862 .24699402 .5389862 .20199585 .5159912 .15299988 .45199586V.72898867H.069992069Z"/>
<path id="font_4_57" d="M.3909912 .37399293 .6369934 .72898867H.526001L.33799745 .44299317 .15098572 .72898867H.037994386L.27999879 .37399293 .021987915 0H.1349945L.33499146 .3039856 .5339966 0H.6489868L.3909912 .37399293Z"/>
<path id="font_4_53" d="M.35398866 .6469879H.59298709V.72898867H.020996094V.6469879H.26098634V0H.35398866V.6469879Z"/>
<path id="font_4_47" d="M.6459961 .72898867H.55799868V.1329956L.1769867 .72898867H.07598877V0H.1639862V.59098818L.54100039 0H.6459961V.72898867Z"/>
<path id="font_4_45" d="M.17298889 .72898867H.07998657V0H.5329895V.08198547H.17298889V.72898867Z"/>
<path id="font_4_44" d="M.17199707 .25498963 .29100038 .37399293 .5479889 0H.6579895L.35798646 .43199159 .6549988 .72898867H.5349884L.17199707 .3600006V.72898867H.07899475V0H.17199707V.25498963Z"/>
<path id="font_4_40" d="M.70899966 .3849945H.40499879V.30299378H.6269989V.2829895C.6269989 .15299988 .5309906 .05899048 .397995 .05899048 .32398988 .05899048 .25698854 .085998538 .21398926 .1329956 .1659851 .18499756 .13699341 .27198792 .13699341 .3619995 .13699341 .54100039 .23899842 .6589966 .3929901 .6589966 .5039978 .6589966 .58399966 .60198977 .60398867 .5079956H.69898989C.6729889 .6559906 .5609894 .7409973 .3939972 .7409973 .30499269 .7409973 .23298645 .71798709 .17599488 .67099 .09098816 .6009979 .04399109 .48799134 .04399109 .35699464 .04399109 .1329956 .18099976-.023010254 .37799073-.023010254 .47698976-.023010254 .5549927 .01399231 .6269989 .09298706L.6499939-.0040130617H.70899966V.3849945Z"/>
<path id="font_4_21" d="M.32699586 .1749878V0H.4149933V.1749878H.519989V.2539978H.4149933V.72299197H.34999085L.027999878 .2679901V.1749878H.32699586M.32699586 .2539978H.10499573L.32699586 .57299807V.2539978Z"/>
<path id="font_4_48" d="M.3889923 .7409973C.17999268 .7409973 .037994386 .58699038 .037994386 .35899354 .037994386 .12998963 .1789856-.023010254 .3899994-.023010254 .47898866-.023010254 .5569916 .0039978029 .6159973 .053985597 .69499209 .12098694 .74198916 .23399353 .74198916 .35299684 .74198916 .58799746 .6029968 .7409973 .3889923 .7409973M.3889923 .6589966C.5469971 .6589966 .6489868 .5399933 .6489868 .35499574 .6489868 .1789856 .5439911 .05899048 .3899994 .05899048 .23399353 .05899048 .1309967 .1789856 .1309967 .35899354 .1309967 .5389862 .23399353 .6589966 .3889923 .6589966Z"/>
<path id="font_4_54" d="M.5519867 .72898867V.21699524C.5519867 .11898804 .48098756 .05899048 .3639984 .05899048 .30999757 .05899048 .2659912 .07199097 .23098755 .09700012 .19499207 .125 .17799378 .1619873 .17799378 .21699524V.72898867H.084991458V.21699524C.084991458 .068984989 .19099427-.023010254 .3639984-.023010254 .5349884-.023010254 .644989 .070999149 .644989 .21699524V.72898867H.5519867Z"/>
<path id="font_4_22" d="M.47599793 .70899966H.10998535L.056991579 .32299806H.13798523C.1789856 .37199403 .21299744 .3889923 .2689972 .3889923 .3639984 .3889923 .4229889 .32398988 .4229889 .21899414 .4229889 .116989139 .3639984 .054992677 .2679901 .054992677 .19099427 .054992677 .14399719 .09399414 .12298584 .17399597H.034988405C.04699707 .115997318 .056991579 .08799744 .07798767 .06199646 .117996219 .0079956059 .18998719-.023010254 .269989-.023010254 .41299439-.023010254 .5130005 .08099365 .5130005 .23098755 .5130005 .37098695 .41999818 .46699525 .28399659 .46699525 .23399353 .46699525 .19400025 .45399476 .15299988 .42399598L.18099976 .621994H.47599793V.70899966Z"/>
<path id="font_4_12" d="M.5339966 .2669983H.32699586V.47399903H.25698854V.2669983H.049987794V.19699097H.25698854V-.010009766H.32699586V.19699097H.5339966V.2669983Z"/>
<path id="font_4_25" d="M.3909912 .3809967C.46499635 .42599488 .48799134 .46199037 .48799134 .5299988 .48799134 .6439972 .40098573 .72299197 .2749939 .72299197 .1499939 .72299197 .06199646 .6439972 .06199646 .5309906 .06199646 .46199037 .084991458 .4269867 .1579895 .3809967 .07699585 .33999635 .036987306 .2809906 .036987306 .20098877 .036987306 .068984989 .13398743-.023010254 .2749939-.023010254 .4149933-.023010254 .5130005 .068984989 .5130005 .20098877 .5130005 .2809906 .47299195 .33999635 .3909912 .3809967M.2749939 .644989C.34999085 .644989 .397995 .59999087 .397995 .5279999 .397995 .45999146 .34899903 .4149933 .2749939 .4149933 .19999695 .4149933 .1519928 .45999146 .1519928 .5299988 .1519928 .59999087 .19999695 .644989 .2749939 .644989M.2749939 .34098817C.36299134 .34098817 .4229889 .2829895 .4229889 .19898987 .4229889 .11199951 .3639984 .054992677 .272995 .054992677 .18699646 .054992677 .1269989 .11399841 .1269989 .19799805 .1269989 .28399659 .18598938 .34098817 .2749939 .34098817Z"/>
<path id="font_4_46" d="M.46798707 0 .6729889 .61099246V0H.7609863V.72898867H.6319885L.41999818 .09399414 .20399475 .72898867H.07499695V0H.16299439V.61099246L.36999513 0H.46798707Z"/>
<path id="font_4_91" d="M.44299317 .5239868H.051986696V.45098878H.34399415L.0309906 .07499695V0H.45700074V.07299805H.13198853L.44299317 .44999696V.5239868Z"/>
<path id="font_4_84" d="M.43798829 .37799073C.43699647 .48098756 .36898805 .5389862 .24798584 .5389862 .12599182 .5389862 .04699707 .47599793 .04699707 .3789978 .04699707 .29699708 .08898926 .2579956 .21299744 .22799683L.29100038 .20899964C.34899903 .19499207 .37199403 .17399597 .37199403 .13699341 .37199403 .08699036 .32299806 .053985597 .25 .053985597 .20498657 .053985597 .16699219 .066986087 .1459961 .08898926 .1329956 .10398865 .1269989 .11898804 .12199402 .1559906H.033996583C.037994386 .034988405 .10598755-.023010254 .24299622-.023010254 .375-.023010254 .45899964 .041992189 .45899964 .14299011 .45899964 .22099304 .4149933 .2639923 .31098939 .2889862L.23098755 .30799867C.16299439 .32398988 .13398743 .34599305 .13398743 .3829956 .13398743 .43199159 .1769867 .46199037 .24499512 .46199037 .31199647 .46199037 .34799195 .43299867 .34999085 .37799073H.43798829Z"/>
<path id="font_4_66" d="M.5349884 .04899597C.526001 .04699707 .5219879 .04699707 .5169983 .04699707 .48799134 .04699707 .47200013 .06199646 .47200013 .08799744V.3959961C.47200013 .4889984 .4039917 .5389862 .2749939 .5389862 .19799805 .5389862 .13699341 .5169983 .100997928 .47799684 .07699585 .45098878 .066986087 .42099 .06498718 .36898805H.14898682C.1559906 .43299867 .19400025 .46199037 .27198792 .46199037 .34799195 .46199037 .3889923 .43399049 .3889923 .38398744V.3619995C.3880005 .32598878 .36999513 .31298829 .3019867 .3039856 .18399048 .2889862 .1659851 .2849884 .13398743 .27198792 .07299805 .24598694 .041992189 .19999695 .041992189 .13198853 .041992189 .036987306 .10798645-.023010254 .21398926-.023010254 .27999879-.023010254 .33299256 0 .3919983 .053985597 .397995 0 .42399598-.023010254 .47799684-.023010254 .49598695-.023010254 .5069885-.021011353 .5349884-.014007568V.04899597M.3889923 .16499329C.3889923 .13699341 .3809967 .11999512 .35598756 .09700012 .32199098 .06599426 .2809906 .049987794 .23199463 .049987794 .16699219 .049987794 .1289978 .08099365 .1289978 .13398743 .1289978 .18899536 .16499329 .21699524 .25498963 .22999573 .34399415 .24198914 .36099244 .24598694 .3889923 .25898744V.16499329Z"/>
<path id="font_4_80" d="M.27198792 .5389862C.12399292 .5389862 .035995485 .43399049 .035995485 .2579956 .035995485 .08099365 .12399292-.023010254 .272995-.023010254 .42099-.023010254 .5099945 .08198547 .5099945 .2539978 .5099945 .43598939 .42399598 .5389862 .27198792 .5389862M.272995 .46199037C.36698915 .46199037 .4229889 .3849945 .4229889 .25498963 .4229889 .1309967 .36499024 .053985597 .272995 .053985597 .17999268 .053985597 .12298584 .1309967 .12298584 .2579956 .12298584 .3849945 .17999268 .46199037 .272995 .46199037Z"/>
<path id="font_4_83" d="M.068984989 .5239868V0H.15299988V.27198792C.1539917 .397995 .20599365 .45399476 .32099916 .45098878V.5359955C.30699159 .5379944 .29899598 .5389862 .2889862 .5389862 .23498535 .5389862 .19400025 .5069885 .1459961 .42900086V.5239868H.068984989Z"/>
<path id="font_4_55" d="M.3919983 0 .644989 .72898867H.54599L.34399415 .11199951 .12998963 .72898867H.02999878L.2919922 0H.3919983Z"/>
<path id="font_4_79" d="M.069992069 .5239868V0H.1539917V.2889862C.1539917 .3959961 .20999146 .46598817 .29599 .46598817 .3619995 .46598817 .4039917 .42599488 .4039917 .36299134V0H.4869995V.3959961C.4869995 .48298646 .42199708 .5389862 .32099916 .5389862 .24299622 .5389862 .19299317 .5089874 .14698792 .43598939V.5239868H.069992069Z"/>
<path id="font_4_90" d="M.3880005 .5239868 .24299622 .115997318 .10899353 .5239868H.019989014L.19699097-.0020141602 .16499329-.085006717C.15098572-.12200928 .1329956-.13600159 .09799194-.13600159 .083999637-.13600159 .07199097-.13400269 .053985597-.13000489V-.20500183C.070999149-.21400452 .08799744-.21800232 .10998535-.21800232 .13699341-.21800232 .1659851-.2090149 .18798828-.19300843 .21398926-.17401123 .22898865-.15200806 .24499512-.11000061L.47799684 .5239868H.3880005Z"/>
<path id="font_4_1" d="M0 0Z"/>
<path id="font_4_71" d="M.2579956 .5239868H.17098999V.60598757C.17098999 .6409912 .18998719 .6589966 .22898865 .6589966 .23599243 .6589966 .23899842 .6589966 .2579956 .6579895V.72698977C.23899842 .73098757 .22799683 .7319946 .21099854 .7319946 .13398743 .7319946 .08799744 .6879883 .08799744 .61299136V.5239868H.017990113V.45599366H.08799744V0H.17098999V.45599366H.2579956V.5239868Z"/>
<path id="font_4_13" d="M.08699036 .10398865V0H.14698792V-.018005372C.14698792-.087005618 .13398743-.10700989 .08699036-.10900879V-.14700318C.15299988-.14900208 .19198609-.10101318 .19198609-.01600647V.10398865H.08699036Z"/>
<path id="font_4_86" d="M.48199464 0V.5239868H.39898683V.22698975C.39898683 .11999512 .34298707 .049987794 .2559967 .049987794 .18998719 .049987794 .147995 .08999634 .147995 .15299988V.5239868H.06498718V.11999512C.06498718 .032989503 .12998963-.023010254 .23199463-.023010254 .30899049-.023010254 .35798646 .0039978029 .40699769 .07299805V0H.48199464Z"/>
<path id="font_4_93" d="M.099990848 .72898867V-.21200562H.1599884V.72898867H.099990848Z"/>
<path id="font_4_87" d="M.2849884 0 .48599244 .5239868H.3919983L.24398804 .09899902 .10398865 .5239868H.009994507L.19400025 0H.2849884Z"/>
<path id="font_5_473" d="M.328125 .0703125V0H.0390625V.08203125H.2109375C.111979167 .15755208 .0625 .2643229 .0625 .40234376 .0625 .50390627 .08984375 .5833333 .14453125 .640625 .19921875 .6979167 .2747396 .7265625 .37109376 .7265625 .4674479 .7265625 .54296877 .6979167 .59765627 .640625 .65234377 .5833333 .6796875 .50390627 .6796875 .40234376 .6796875 .2643229 .63151046 .15755208 .53515627 .08203125H.70703127V0H.41796876V.0703125C.52994796 .14583333 .5859375 .2565104 .5859375 .40234376 .5859375 .56380209 .51432296 .64453127 .37109376 .64453127 .23046875 .64453127 .16015625 .56380209 .16015625 .40234376 .16015625 .2565104 .21614583 .14583333 .328125 .0703125Z"/>
</defs>
<g clip-path="url(#clip_1)">
<g clip-path="url(#clip_2)">
<path transform="matrix(1,0,0,-1,-174.84001,489.4037)" d="M0 599.76H848.16V0H0Z" fill="#ffffff"/>
<path transform="matrix(1,0,0,-1,-174.84001,489.4037)" stroke-width=".72" stroke-linecap="square" stroke-miterlimit="72" stroke-linejoin="miter" fill="none" stroke="#a10000" d="M2.88 596.88H845.28V2.880005H2.88Z"/>
<path transform="matrix(1,0,0,-1,-174.84001,489.4037)" stroke-width=".72" stroke-linecap="square" stroke-miterlimit="72" stroke-linejoin="miter" fill="none" stroke="#a10000" d="M10.08 589.68H838.08V10.080017H10.08Z"/>
<use data-text="1" xlink:href="#font_3_18" transform="matrix(7.2,0,0,-7.2,-103.56001,485.80369)" fill="#a00000"/>
<use data-text="1" xlink:href="#font_3_18" transform="matrix(7.2,0,0,-7.2,-103.56001,-100.99634)" fill="#a00000"/>
<use data-text="2" xlink:href="#font_3_19" transform="matrix(7.2,0,0,-7.2,36.83998,485.80369)" fill="#a00000"/>
<use data-text="2" xlink:href="#font_3_19" transform="matrix(7.2,0,0,-7.2,36.83998,-100.99634)" fill="#a00000"/>
<use data-text="3" xlink:href="#font_3_20" transform="matrix(7.2,0,0,-7.2,177.23998,485.80369)" fill="#a00000"/>
<use data-text="3" xlink:href="#font_3_20" transform="matrix(7.2,0,0,-7.2,177.23998,-100.99634)" fill="#a00000"/>
<use data-text="4" xlink:href="#font_3_21" transform="matrix(7.2,0,0,-7.2,317.64,485.80369)" fill="#a00000"/>
<use data-text="4" xlink:href="#font_3_21" transform="matrix(7.2,0,0,-7.2,317.64,-100.99634)" fill="#a00000"/>
<use data-text="5" xlink:href="#font_3_22" transform="matrix(7.2,0,0,-7.2,458.03999,485.80369)" fill="#a00000"/>
<use data-text="5" xlink:href="#font_3_22" transform="matrix(7.2,0,0,-7.2,458.03999,-100.99634)" fill="#a00000"/>
<use data-text="6" xlink:href="#font_3_23" transform="matrix(7.2,0,0,-7.2,598.44,485.80369)" fill="#a00000"/>
<use data-text="6" xlink:href="#font_3_23" transform="matrix(7.2,0,0,-7.2,598.44,-100.99634)" fill="#a00000"/>
<use data-text="A" xlink:href="#font_3_34" transform="matrix(7.2,0,0,-7.2,-170.16002,-30.346314)" fill="#a00000"/>
<use data-text="A" xlink:href="#font_3_34" transform="matrix(7.2,0,0,-7.2,665.04,-30.346314)" fill="#a00000"/>
<use data-text="B" xlink:href="#font_3_35" transform="matrix(7.2,0,0,-7.2,-170.16002,118.15369)" fill="#a00000"/>
<use data-text="B" xlink:href="#font_3_35" transform="matrix(7.2,0,0,-7.2,665.04,118.15369)" fill="#a00000"/>
<use data-text="C" xlink:href="#font_3_36" transform="matrix(7.2,0,0,-7.2,-170.16002,266.6537)" fill="#a00000"/>
<use data-text="C" xlink:href="#font_3_36" transform="matrix(7.2,0,0,-7.2,665.04,266.6537)" fill="#a00000"/>
<use data-text="D" xlink:href="#font_3_37" transform="matrix(7.2,0,0,-7.2,-170.16002,415.1537)" fill="#a00000"/>
<use data-text="D" xlink:href="#font_3_37" transform="matrix(7.2,0,0,-7.2,665.04,415.1537)" fill="#a00000"/>
<path transform="matrix(1,0,0,-1,-174.84001,489.4037)" stroke-width=".72" stroke-linecap="round" stroke-linejoin="round" fill="none" stroke="#a10000" d="M143.28 2.88V10.08"/>
<path transform="matrix(1,0,0,-1,-174.84001,489.4037)" stroke-width=".72" stroke-linecap="round" stroke-linejoin="round" fill="none" stroke="#a10000" d="M143.28 596.88V589.68"/>
<path transform="matrix(1,0,0,-1,-174.84001,489.4037)" stroke-width=".72" stroke-linecap="round" stroke-linejoin="round" fill="none" stroke="#a10000" d="M283.68 2.88V10.08"/>
<path transform="matrix(1,0,0,-1,-174.84001,489.4037)" stroke-width=".72" stroke-linecap="round" stroke-linejoin="round" fill="none" stroke="#a10000" d="M283.68 596.88V589.68"/>
<path transform="matrix(1,0,0,-1,-174.84001,489.4037)" stroke-width=".72" stroke-linecap="round" stroke-linejoin="round" fill="none" stroke="#a10000" d="M424.08 2.88V10.08"/>
<path transform="matrix(1,0,0,-1,-174.84001,489.4037)" stroke-width=".72" stroke-linecap="round" stroke-linejoin="round" fill="none" stroke="#a10000" d="M424.08 596.88V589.68"/>
<path transform="matrix(1,0,0,-1,-174.84001,489.4037)" stroke-width=".72" stroke-linecap="round" stroke-linejoin="round" fill="none" stroke="#a10000" d="M564.48 2.88V10.08"/>
<path transform="matrix(1,0,0,-1,-174.84001,489.4037)" stroke-width=".72" stroke-linecap="round" stroke-linejoin="round" fill="none" stroke="#a10000" d="M564.48 596.88V589.68"/>
<path transform="matrix(1,0,0,-1,-174.84001,489.4037)" stroke-width=".72" stroke-linecap="round" stroke-linejoin="round" fill="none" stroke="#a10000" d="M704.88 2.88V10.08"/>
<path transform="matrix(1,0,0,-1,-174.84001,489.4037)" stroke-width=".72" stroke-linecap="round" stroke-linejoin="round" fill="none" stroke="#a10000" d="M704.88 596.88V589.68"/>
<path transform="matrix(1,0,0,-1,-174.84001,489.4037)" stroke-width=".72" stroke-linecap="round" stroke-linejoin="round" fill="none" stroke="#a10000" d="M2.88 448.38H10.08"/>
<path transform="matrix(1,0,0,-1,-174.84001,489.4037)" stroke-width=".72" stroke-linecap="round" stroke-linejoin="round" fill="none" stroke="#a10000" d="M845.28 448.38H838.08"/>
<path transform="matrix(1,0,0,-1,-174.84001,489.4037)" stroke-width=".72" stroke-linecap="round" stroke-linejoin="round" fill="none" stroke="#a10000" d="M2.88 299.88H10.08"/>
<path transform="matrix(1,0,0,-1,-174.84001,489.4037)" stroke-width=".72" stroke-linecap="round" stroke-linejoin="round" fill="none" stroke="#a10000" d="M845.28 299.88H838.08"/>
<path transform="matrix(1,0,0,-1,-174.84001,489.4037)" stroke-width=".72" stroke-linecap="round" stroke-linejoin="round" fill="none" stroke="#a10000" d="M2.88 151.38H10.08"/>
<path transform="matrix(1,0,0,-1,-174.84001,489.4037)" stroke-width=".72" stroke-linecap="round" stroke-linejoin="round" fill="none" stroke="#a10000" d="M845.28 151.38H838.08"/>
<path transform="matrix(1,0,0,-1,-174.84001,489.4037)" stroke-width=".72" stroke-linecap="round" stroke-linejoin="round" fill="none" stroke="#a10000" d="M290.88 323.28H298.08"/>
<path transform="matrix(1,0,0,-1,-174.84001,489.4037)" stroke-width=".72" stroke-linecap="round" stroke-linejoin="round" fill="none" stroke="#a10000" d="M298.08 326.88H312.48L319.68 323.28 312.48 319.68H298.08V326.88"/>
<use data-text="S" xlink:href="#font_4_52" transform="matrix(6.5454547,0,0,-6.5454547,148.43999,168.4137)" fill="#0000ff"/>
<use data-text="H" xlink:href="#font_4_41" transform="matrix(6.5454547,0,0,-6.5454547,152.8058,168.4137)" fill="#0000ff"/>
<use data-text="R" xlink:href="#font_4_51" transform="matrix(6.5454547,0,0,-6.5454547,157.53163,168.4137)" fill="#0000ff"/>
<use data-text="D" xlink:href="#font_4_37" transform="matrix(6.5454547,0,0,-6.5454547,162.25746,168.4137)" fill="#0000ff"/>
<use data-text="_" xlink:href="#font_4_64" transform="matrix(6.5454547,0,0,-6.5454547,166.98329,168.4137)" fill="#0000ff"/>
<use data-text="D" xlink:href="#font_4_37" transform="matrix(6.5454547,0,0,-6.5454547,170.62258,168.4137)" fill="#0000ff"/>
<use data-text="E" xlink:href="#font_4_38" transform="matrix(6.5454547,0,0,-6.5454547,175.3484,168.4137)" fill="#0000ff"/>
<use data-text="C" xlink:href="#font_4_36" transform="matrix(6.5454547,0,0,-6.5454547,179.71422,168.4137)" fill="#0000ff"/>
<use data-text="_" xlink:href="#font_4_64" transform="matrix(6.5454547,0,0,-6.5454547,184.44005,168.4137)" fill="#0000ff"/>
<use data-text="A" xlink:href="#font_4_34" transform="matrix(6.5454547,0,0,-6.5454547,188.07933,168.4137)" fill="#0000ff"/>
<path transform="matrix(1,0,0,-1,-174.84001,489.4037)" stroke-width=".72" stroke-linecap="round" stroke-linejoin="round" fill="none" stroke="#a10000" d="M280.08 402.48H272.88"/>
<path transform="matrix(1,0,0,-1,-174.84001,489.4037)" stroke-width=".72" stroke-linecap="round" stroke-linejoin="round" fill="none" stroke="#a10000" d="M272.88 398.88H258.48L251.28 402.48 258.48 406.08H272.88V398.88"/>
<use data-text="S" xlink:href="#font_4_52" transform="matrix(6.5454547,0,0,-6.5454547,28.829987,89.213687)" fill="#0000ff"/>
<use data-text="H" xlink:href="#font_4_41" transform="matrix(6.5454547,0,0,-6.5454547,33.1958,89.213687)" fill="#0000ff"/>
<use data-text="R" xlink:href="#font_4_51" transform="matrix(6.5454547,0,0,-6.5454547,37.921617,89.213687)" fill="#0000ff"/>
<use data-text="D" xlink:href="#font_4_37" transform="matrix(6.5454547,0,0,-6.5454547,42.64743,89.213687)" fill="#0000ff"/>
<use data-text="_" xlink:href="#font_4_64" transform="matrix(6.5454547,0,0,-6.5454547,47.373247,89.213687)" fill="#0000ff"/>
<use data-text="D" xlink:href="#font_4_37" transform="matrix(6.5454547,0,0,-6.5454547,51.012514,89.213687)" fill="#0000ff"/>
<use data-text="E" xlink:href="#font_4_38" transform="matrix(6.5454547,0,0,-6.5454547,55.738328,89.213687)" fill="#0000ff"/>
<use data-text="C" xlink:href="#font_4_36" transform="matrix(6.5454547,0,0,-6.5454547,60.10414,89.213687)" fill="#0000ff"/>
<use data-text="_" xlink:href="#font_4_64" transform="matrix(6.5454547,0,0,-6.5454547,64.829959,89.213687)" fill="#0000ff"/>
<use data-text="B" xlink:href="#font_4_35" transform="matrix(6.5454547,0,0,-6.5454547,68.46922,89.213687)" fill="#0000ff"/>
<path transform="matrix(1,0,0,-1,-174.84001,489.4037)" stroke-width=".72" stroke-linecap="round" stroke-linejoin="round" fill="none" stroke="#a10000" d="M254.88 334.08H247.68"/>
<path transform="matrix(1,0,0,-1,-174.84001,489.4037)" stroke-width=".72" stroke-linecap="round" stroke-linejoin="round" fill="none" stroke="#a10000" d="M247.68 334.08 240.48 337.68H226.08V330.48H240.48L247.68 334.08"/>
<use data-text="S" xlink:href="#font_4_52" transform="matrix(6.5454547,0,0,-6.5454547,-.000015258789,157.61368)" fill="#0000ff"/>
<use data-text="H" xlink:href="#font_4_41" transform="matrix(6.5454547,0,0,-6.5454547,4.365799,157.61368)" fill="#0000ff"/>
<use data-text="R" xlink:href="#font_4_51" transform="matrix(6.5454547,0,0,-6.5454547,9.091614,157.61368)" fill="#0000ff"/>
<use data-text="D" xlink:href="#font_4_37" transform="matrix(6.5454547,0,0,-6.5454547,13.817429,157.61368)" fill="#0000ff"/>
<use data-text="_" xlink:href="#font_4_64" transform="matrix(6.5454547,0,0,-6.5454547,18.543244,157.61368)" fill="#0000ff"/>
<use data-text="D" xlink:href="#font_4_37" transform="matrix(6.5454547,0,0,-6.5454547,22.18251,157.61368)" fill="#0000ff"/>
<use data-text="E" xlink:href="#font_4_38" transform="matrix(6.5454547,0,0,-6.5454547,26.908326,157.61368)" fill="#0000ff"/>
<use data-text="C" xlink:href="#font_4_36" transform="matrix(6.5454547,0,0,-6.5454547,31.27414,157.61368)" fill="#0000ff"/>
<use data-text="_" xlink:href="#font_4_64" transform="matrix(6.5454547,0,0,-6.5454547,35.999956,157.61368)" fill="#0000ff"/>
<use data-text="Y" xlink:href="#font_4_58" transform="matrix(6.5454547,0,0,-6.5454547,39.63922,157.61368)" fill="#0000ff"/>
<use data-text="0" xlink:href="#font_4_17" transform="matrix(6.5454547,0,0,-6.5454547,44.005037,157.61368)" fill="#0000ff"/>
<path transform="matrix(1,0,0,-1,-174.84001,489.4037)" stroke-width=".72" stroke-linecap="round" stroke-linejoin="round" fill="none" stroke="#a10000" d="M301.68 385.92 300.96 383.76"/>
<path transform="matrix(1,0,0,-1,-174.84001,489.4037)" stroke-width=".72" stroke-linecap="round" stroke-linejoin="round" fill="none" stroke="#a10000" d="M301.68 385.92 302.4 383.76"/>
<path transform="matrix(1,0,0,-1,-174.84001,489.4037)" stroke-width=".72" stroke-linecap="round" stroke-linejoin="round" fill="none" stroke="#a10000" d="M316.08 385.92 315.36 383.76"/>
<path transform="matrix(1,0,0,-1,-174.84001,489.4037)" stroke-width=".72" stroke-linecap="round" stroke-linejoin="round" fill="none" stroke="#a10000" d="M316.08 385.92 316.8 383.76"/>
<path transform="matrix(1,0,0,-1,-174.84001,489.4037)" stroke-width=".72" stroke-linecap="round" stroke-linejoin="round" fill="none" stroke="#a10000" d="M330.48 385.92 329.76 383.76"/>
<path transform="matrix(1,0,0,-1,-174.84001,489.4037)" stroke-width=".72" stroke-linecap="round" stroke-linejoin="round" fill="none" stroke="#a10000" d="M330.48 385.92 331.2 383.76"/>
<use data-text="1" xlink:href="#font_4_18" transform="matrix(0,-6.5454547,-6.5454547,-0,153.61,99.58368)"/>
<path transform="matrix(1,0,0,-1,-174.84001,489.4037)" stroke-width=".72" stroke-linecap="round" stroke-linejoin="round" fill="none" stroke="#a10000" d="M330.48 395.28V388.08"/>
<use data-text="2" xlink:href="#font_4_19" transform="matrix(0,-6.5454547,-6.5454547,-0,139.20998,99.58368)"/>
<path transform="matrix(1,0,0,-1,-174.84001,489.4037)" stroke-width=".72" stroke-linecap="round" stroke-linejoin="round" fill="none" stroke="#a10000" d="M316.08 395.28V388.08"/>
<use data-text="3" xlink:href="#font_4_20" transform="matrix(0,-6.5454547,-6.5454547,-0,124.80998,99.58368)"/>
<path transform="matrix(1,0,0,-1,-174.84001,489.4037)" stroke-width=".72" stroke-linecap="round" stroke-linejoin="round" fill="none" stroke="#a10000" d="M301.68 395.28V388.08"/>
<path transform="matrix(1,0,0,-1,-174.84001,489.4037)" stroke-width=".72" stroke-linecap="square" stroke-miterlimit="72" stroke-linejoin="miter" fill="none" stroke="#a10000" d="M326.88 388.08H334.08003V385.91999H326.88Z"/>
<path transform="matrix(1,0,0,-1,-174.84001,489.4037)" stroke-width=".72" stroke-linecap="square" stroke-miterlimit="72" stroke-linejoin="miter" fill="none" stroke="#a10000" d="M312.48 388.08H319.68003V385.91999H312.48Z"/>
<path transform="matrix(1,0,0,-1,-174.84001,489.4037)" stroke-width=".72" stroke-linecap="square" stroke-miterlimit="72" stroke-linejoin="miter" fill="none" stroke="#a10000" d="M298.08 388.08H305.28V385.91999H298.08Z"/>
<path transform="matrix(1,0,0,-1,-174.84001,489.4037)" stroke-width=".72" stroke-linecap="round" stroke-linejoin="round" fill="none" stroke="#a10000" d="M316.08 382.32V378.72H301.68V385.92"/>
<path transform="matrix(1,0,0,-1,-174.84001,489.4037)" stroke-width=".72" stroke-linecap="round" stroke-linejoin="round" fill="none" stroke="#a10000" d="M330.48 385.92V381.6H316.08V385.92"/>
<use data-text="S" xlink:href="#font_4_52" transform="matrix(6.5454547,0,0,-6.5454547,162.83998,114.4137)" fill="#000080"/>
<use data-text="l" xlink:href="#font_4_77" transform="matrix(6.5454547,0,0,-6.5454547,167.2058,114.4137)" fill="#000080"/>
<use data-text="i" xlink:href="#font_4_74" transform="matrix(6.5454547,0,0,-6.5454547,168.65889,114.4137)" fill="#000080"/>
<use data-text="d" xlink:href="#font_4_69" transform="matrix(6.5454547,0,0,-6.5454547,170.11199,114.4137)" fill="#000080"/>
<use data-text="e" xlink:href="#font_4_70" transform="matrix(6.5454547,0,0,-6.5454547,173.75127,114.4137)" fill="#000080"/>
<use data-text="S" xlink:href="#font_4_52" transform="matrix(6.5454547,0,0,-6.5454547,177.39055,114.4137)" fill="#000080"/>
<use data-text="w" xlink:href="#font_4_88" transform="matrix(6.5454547,0,0,-6.5454547,181.75637,114.4137)" fill="#000080"/>
<use data-text="i" xlink:href="#font_4_74" transform="matrix(6.5454547,0,0,-6.5454547,186.4822,114.4137)" fill="#000080"/>
<use data-text="t" xlink:href="#font_4_85" transform="matrix(6.5454547,0,0,-6.5454547,187.93529,114.4137)" fill="#000080"/>
<use data-text="c" xlink:href="#font_4_68" transform="matrix(6.5454547,0,0,-6.5454547,189.75493,114.4137)" fill="#000080"/>
<use data-text="h" xlink:href="#font_4_73" transform="matrix(6.5454547,0,0,-6.5454547,193.02767,114.4137)" fill="#000080"/>
<path transform="matrix(1,0,0,-1,-174.84001,489.4037)" stroke-width=".72" stroke-linecap="round" stroke-linejoin="round" fill="none" stroke="#a10000" d="M301.68 406.08V413.28"/>
<path transform="matrix(1,0,0,-1,-174.84001,489.4037)" stroke-width=".72" stroke-linecap="round" stroke-linejoin="round" fill="none" stroke="#a10000" d="M301.68 413.28 305.28 420.48V434.88H298.08V420.48L301.68 413.28"/>
<use data-text="E" xlink:href="#font_4_38" transform="matrix(0,-6.5454547,-6.5454547,-0,129.12999,50.923677)" fill="#0000ff"/>
<use data-text="X" xlink:href="#font_4_57" transform="matrix(0,-6.5454547,-6.5454547,-0,129.12999,46.55786)" fill="#0000ff"/>
<use data-text="T" xlink:href="#font_4_53" transform="matrix(0,-6.5454547,-6.5454547,-0,129.12999,42.192049)" fill="#0000ff"/>
<use data-text="E" xlink:href="#font_4_38" transform="matrix(0,-6.5454547,-6.5454547,-0,129.12999,38.19278)" fill="#0000ff"/>
<use data-text="R" xlink:href="#font_4_51" transform="matrix(0,-6.5454547,-6.5454547,-0,129.12999,33.826967)" fill="#0000ff"/>
<use data-text="N" xlink:href="#font_4_47" transform="matrix(0,-6.5454547,-6.5454547,-0,129.12999,29.101136)" fill="#0000ff"/>
<use data-text="A" xlink:href="#font_4_34" transform="matrix(0,-6.5454547,-6.5454547,-0,129.12999,24.375306)" fill="#0000ff"/>
<use data-text="L" xlink:href="#font_4_45" transform="matrix(0,-6.5454547,-6.5454547,-0,129.12999,20.009491)" fill="#0000ff"/>
<use data-text="_" xlink:href="#font_4_64" transform="matrix(0,-6.5454547,-6.5454547,-0,129.12999,16.370209)" fill="#0000ff"/>
<use data-text="C" xlink:href="#font_4_36" transform="matrix(0,-6.5454547,-6.5454547,-0,129.12999,12.7309269)" fill="#0000ff"/>
<use data-text="L" xlink:href="#font_4_45" transform="matrix(0,-6.5454547,-6.5454547,-0,129.12999,8.005096)" fill="#0000ff"/>
<use data-text="K" xlink:href="#font_4_44" transform="matrix(0,-6.5454547,-6.5454547,-0,129.12999,4.365814)" fill="#0000ff"/>
<path transform="matrix(1,0,0,-1,-174.84001,489.4037)" stroke-width=".72" stroke-linecap="round" stroke-linejoin="round" fill="none" stroke="#ffcc00" d="M301.68 406.08V395.28"/>
<path transform="matrix(1,0,0,-1,-174.84001,489.4037)" stroke-width=".72" stroke-linecap="round" stroke-linejoin="round" fill="none" stroke="#ffcc00" d="M301.68 406.08V395.28"/>
<path transform="matrix(1,0,0,-1,-174.84001,489.4037)" stroke-width=".72" stroke-linecap="square" stroke-miterlimit="72" stroke-linejoin="miter" fill="none" stroke="#a10000" d="M391.68 427.68H413.28V377.28H391.68Z"/>
<path transform="matrix(1,0,0,-1,-174.84001,489.4037)" stroke-width=".72" stroke-linecap="round" stroke-linejoin="round" fill="none" stroke="#a10000" d="M396.36 380.88C396.36 381.48 395.88 381.96 395.28 381.96 394.68 381.96 394.2 381.48 394.2 380.88 394.2 380.28 394.68 379.8 395.28 379.8 395.88 379.8 396.36 380.28 396.36 380.88"/>
<use data-text="N" xlink:href="#font_4_47" transform="matrix(0,-6.5454547,-6.5454547,-0,226.98998,109.463687)"/>
<use data-text="C" xlink:href="#font_4_36" transform="matrix(0,-6.5454547,-6.5454547,-0,226.98998,104.737857)"/>
<use data-text="1" xlink:href="#font_4_18" transform="matrix(0,-6.5454547,-6.5454547,-0,223.39,116.12369)"/>
<path transform="matrix(1,0,0,-1,-174.84001,489.4037)" stroke-width=".72" stroke-linecap="round" stroke-linejoin="round" fill="none" stroke="#a10000" d="M398.88 370.08V377.28"/>
<path transform="matrix(1,0,0,-1,-174.84001,489.4037)" stroke-width=".72" stroke-linecap="round" stroke-linejoin="round" fill="none" stroke="#33cc33" d="M396 372.96 401.76 367.2M396 367.2 401.76 372.96"/>
<use data-text="G" xlink:href="#font_4_40" transform="matrix(0,-6.5454547,-6.5454547,-0,234.18999,109.463687)"/>
<use data-text="N" xlink:href="#font_4_47" transform="matrix(0,-6.5454547,-6.5454547,-0,234.18999,104.37131)"/>
<use data-text="D" xlink:href="#font_4_37" transform="matrix(0,-6.5454547,-6.5454547,-0,234.18999,99.64548)"/>
<use data-text="4" xlink:href="#font_4_21" transform="matrix(0,-6.5454547,-6.5454547,-0,230.58998,116.12369)"/>
<path transform="matrix(1,0,0,-1,-174.84001,489.4037)" stroke-width=".72" stroke-linecap="round" stroke-linejoin="round" fill="none" stroke="#a10000" d="M406.08 370.08V377.28"/>
<use data-text="O" xlink:href="#font_4_48" transform="matrix(0,-6.5454547,-6.5454547,-0,234.18999,78.203678)"/>
<use data-text="U" xlink:href="#font_4_54" transform="matrix(0,-6.5454547,-6.5454547,-0,234.18999,73.1113)"/>
<use data-text="T" xlink:href="#font_4_53" transform="matrix(0,-6.5454547,-6.5454547,-0,234.18999,68.38547)"/>
<use data-text="5" xlink:href="#font_4_22" transform="matrix(0,-6.5454547,-6.5454547,-0,230.58998,61.363679)"/>
<path transform="matrix(1,0,0,-1,-174.84001,489.4037)" stroke-width=".72" stroke-linecap="round" stroke-linejoin="round" fill="none" stroke="#a10000" d="M406.08 434.88V427.68"/>
<use data-text="+" xlink:href="#font_4_12" transform="matrix(0,-6.5454547,-6.5454547,-0,226.98998,84.943698)"/>
<use data-text="5" xlink:href="#font_4_22" transform="matrix(0,-6.5454547,-6.5454547,-0,226.98998,81.121158)"/>
<use data-text="_" xlink:href="#font_4_64" transform="matrix(0,-6.5454547,-6.5454547,-0,226.98998,77.48187)"/>
<use data-text="D" xlink:href="#font_4_37" transform="matrix(0,-6.5454547,-6.5454547,-0,226.98998,73.84259)"/>
<use data-text="C" xlink:href="#font_4_36" transform="matrix(0,-6.5454547,-6.5454547,-0,226.98998,69.11676)"/>
<use data-text="8" xlink:href="#font_4_25" transform="matrix(0,-6.5454547,-6.5454547,-0,223.39,61.363679)"/>
<path transform="matrix(1,0,0,-1,-174.84001,489.4037)" stroke-width=".72" stroke-linecap="round" stroke-linejoin="round" fill="none" stroke="#a10000" d="M398.88 434.88V427.68"/>
<use data-text="1" xlink:href="#font_4_18" transform="matrix(6.5454547,0,0,-6.5454547,242.04,67.61368)" fill="#000080"/>
<use data-text="M" xlink:href="#font_4_46" transform="matrix(6.5454547,0,0,-6.5454547,245.67928,67.61368)" fill="#000080"/>
<use data-text="h" xlink:href="#font_4_73" transform="matrix(6.5454547,0,0,-6.5454547,251.13164,67.61368)" fill="#000080"/>
<use data-text="z" xlink:href="#font_4_91" transform="matrix(6.5454547,0,0,-6.5454547,254.77092,67.61368)" fill="#000080"/>
<use data-text="O" xlink:href="#font_4_48" transform="matrix(6.5454547,0,0,-6.5454547,258.04365,67.61368)" fill="#000080"/>
<use data-text="s" xlink:href="#font_4_84" transform="matrix(6.5454547,0,0,-6.5454547,263.13606,67.61368)" fill="#000080"/>
<use data-text="c" xlink:href="#font_4_68" transform="matrix(6.5454547,0,0,-6.5454547,266.40876,67.61368)" fill="#000080"/>
<use data-text="i" xlink:href="#font_4_74" transform="matrix(6.5454547,0,0,-6.5454547,269.68153,67.61368)" fill="#000080"/>
<use data-text="l" xlink:href="#font_4_77" transform="matrix(6.5454547,0,0,-6.5454547,271.13459,67.61368)" fill="#000080"/>
<use data-text="l" xlink:href="#font_4_77" transform="matrix(6.5454547,0,0,-6.5454547,272.5877,67.61368)" fill="#000080"/>
<use data-text="a" xlink:href="#font_4_66" transform="matrix(6.5454547,0,0,-6.5454547,274.04078,67.61368)" fill="#000080"/>
<use data-text="t" xlink:href="#font_4_85" transform="matrix(6.5454547,0,0,-6.5454547,277.68006,67.61368)" fill="#000080"/>
<use data-text="o" xlink:href="#font_4_80" transform="matrix(6.5454547,0,0,-6.5454547,279.4997,67.61368)" fill="#000080"/>
<use data-text="r" xlink:href="#font_4_83" transform="matrix(6.5454547,0,0,-6.5454547,283.13899,67.61368)" fill="#000080"/>
<path transform="matrix(1,0,0,-1,-174.84001,489.4037)" stroke-width=".72" stroke-linecap="round" stroke-linejoin="round" fill="none" stroke="#a10000" d="M398.88 452.88V456.48"/>
<path transform="matrix(1,0,0,-1,-174.84001,489.4037)" stroke-width=".72" stroke-linecap="round" stroke-linejoin="round" fill="none" stroke="#a10000" d="M395.28 460.08H402.48"/>
<path transform="matrix(1,0,0,-1,-174.84001,489.4037)" stroke-width=".72" stroke-linecap="round" stroke-linejoin="round" fill="none" stroke="#a10000" d="M398.88 460.08V456.48"/>
<use data-text="V" xlink:href="#font_4_55" transform="matrix(6.5454547,0,0,-6.5454547,217.12999,28.013672)" fill="#000080"/>
<use data-text="C" xlink:href="#font_4_36" transform="matrix(6.5454547,0,0,-6.5454547,221.4958,28.013672)" fill="#000080"/>
<use data-text="C" xlink:href="#font_4_36" transform="matrix(6.5454547,0,0,-6.5454547,226.22164,28.013672)" fill="#000080"/>
<path transform="matrix(1,0,0,-1,-174.84001,489.4037)" stroke-width=".72" stroke-linecap="round" stroke-linejoin="round" fill="none" stroke="#a10000" d="M406.08 355.68V348.48"/>
<path transform="matrix(1,0,0,-1,-174.84001,489.4037)" stroke-width=".72" stroke-linecap="round" stroke-linejoin="round" fill="none" stroke="#a10000" d="M398.88 348.48H413.28L406.08 341.28 398.88 348.48"/>
<use data-text="G" xlink:href="#font_4_40" transform="matrix(6.5454547,0,0,-6.5454547,223.96999,154.01367)" fill="#000080"/>
<use data-text="N" xlink:href="#font_4_47" transform="matrix(6.5454547,0,0,-6.5454547,229.06237,154.01367)" fill="#000080"/>
<use data-text="D" xlink:href="#font_4_37" transform="matrix(6.5454547,0,0,-6.5454547,233.7882,154.01367)" fill="#000080"/>
<path transform="matrix(1,0,0,-1,-174.84001,489.4037)" stroke-width=".72" stroke-linecap="round" stroke-linejoin="round" fill="none" stroke="#000000" d="M406.08 370.08V355.68"/>
<path transform="matrix(1,0,0,-1,-174.84001,489.4037)" stroke-width=".72" stroke-linecap="round" stroke-linejoin="round" fill="none" stroke="#000000" d="M406.08 370.08V355.68"/>
<path transform="matrix(1,0,0,-1,-174.84001,489.4037)" stroke-width=".72" stroke-linecap="round" stroke-linejoin="round" fill="none" stroke="#ff0000" d="M398.88 452.88V434.88"/>
<path transform="matrix(1,0,0,-1,-174.84001,489.4037)" stroke-width=".72" stroke-linecap="round" stroke-linejoin="round" fill="none" stroke="#ff0000" d="M398.88 452.88V434.88"/>
<path transform="matrix(1,0,0,-1,-174.84001,489.4037)" stroke-width=".72" stroke-linecap="round" stroke-linejoin="round" fill="none" stroke="#a10000" d="M254.88 323.28H247.68"/>
<path transform="matrix(1,0,0,-1,-174.84001,489.4037)" stroke-width=".72" stroke-linecap="round" stroke-linejoin="round" fill="none" stroke="#a10000" d="M247.68 323.28 240.48 326.88H226.08V319.68H240.48L247.68 323.28"/>
<use data-text="H" xlink:href="#font_4_41" transform="matrix(6.5454547,0,0,-6.5454547,30.909989,168.4137)" fill="#0000ff"/>
<use data-text="A" xlink:href="#font_4_34" transform="matrix(6.5454547,0,0,-6.5454547,35.635805,168.4137)" fill="#0000ff"/>
<use data-text="L" xlink:href="#font_4_45" transform="matrix(6.5454547,0,0,-6.5454547,40.001619,168.4137)" fill="#0000ff"/>
<use data-text="T" xlink:href="#font_4_53" transform="matrix(6.5454547,0,0,-6.5454547,43.640886,168.4137)" fill="#0000ff"/>
<path transform="matrix(1,0,0,-1,-174.84001,489.4037)" stroke-width=".72" stroke-linecap="round" stroke-linejoin="round" fill="none" stroke="#a10000" d="M280.08 323.28H276.48"/>
<path transform="matrix(1,0,0,-1,-174.84001,489.4037)" stroke-width=".72" stroke-linecap="round" stroke-linejoin="round" fill="none" stroke="#a10000" d="M265.68 323.28H269.28"/>
<path transform="matrix(1,0,0,-1,-174.84001,489.4037)" stroke-width=".72" stroke-linecap="round" stroke-linejoin="round" fill="none" stroke="#a10000" d="M269.28 323.28 272.88 325.44 276.48 323.28 272.88 321.12 269.28 323.28"/>
<path transform="matrix(1,0,0,-1,-174.84001,489.4037)" stroke-width=".72" stroke-linecap="round" stroke-linejoin="round" fill="none" stroke="#008700" d="M265.68 323.28H254.88"/>
<path transform="matrix(1,0,0,-1,-174.84001,489.4037)" stroke-width=".72" stroke-linecap="round" stroke-linejoin="round" fill="none" stroke="#008700" d="M265.68 323.28H254.88"/>
<path transform="matrix(1,0,0,-1,-174.84001,489.4037)" stroke-width=".72" stroke-linecap="round" stroke-linejoin="round" fill="none" stroke="#008700" d="M290.88 323.28H280.08"/>
<path transform="matrix(1,0,0,-1,-174.84001,489.4037)" stroke-width=".72" stroke-linecap="round" stroke-linejoin="round" fill="none" stroke="#008700" d="M290.88 323.28H280.08"/>
<path transform="matrix(1,0,0,-1,-174.84001,489.4037)" stroke-width=".72" stroke-linecap="round" stroke-linejoin="round" fill="none" stroke="#a10000" d="M290.88 334.08H298.08"/>
<path transform="matrix(1,0,0,-1,-174.84001,489.4037)" stroke-width=".72" stroke-linecap="round" stroke-linejoin="round" fill="none" stroke="#a10000" d="M298.08 337.68H312.48L319.68 334.08 312.48 330.48H298.08V337.68"/>
<use data-text="C" xlink:href="#font_4_36" transform="matrix(6.5454547,0,0,-6.5454547,148.43999,157.61368)" fill="#0000ff"/>
<use data-text="L" xlink:href="#font_4_45" transform="matrix(6.5454547,0,0,-6.5454547,153.16582,157.61368)" fill="#0000ff"/>
<use data-text="K" xlink:href="#font_4_44" transform="matrix(6.5454547,0,0,-6.5454547,156.8051,157.61368)" fill="#0000ff"/>
<path transform="matrix(1,0,0,-1,-174.84001,489.4037)" stroke-width=".72" stroke-linecap="round" stroke-linejoin="round" fill="none" stroke="#a10000" d="M280.08 334.08H276.48"/>
<path transform="matrix(1,0,0,-1,-174.84001,489.4037)" stroke-width=".72" stroke-linecap="round" stroke-linejoin="round" fill="none" stroke="#a10000" d="M265.68 334.08H269.28"/>
<path transform="matrix(1,0,0,-1,-174.84001,489.4037)" stroke-width=".72" stroke-linecap="round" stroke-linejoin="round" fill="none" stroke="#a10000" d="M269.28 334.08 272.88 336.24 276.48 334.08 272.88 331.92 269.28 334.08"/>
<path transform="matrix(1,0,0,-1,-174.84001,489.4037)" stroke-width=".72" stroke-linecap="round" stroke-linejoin="round" fill="none" stroke="#008700" d="M265.68 334.08H254.88"/>
<path transform="matrix(1,0,0,-1,-174.84001,489.4037)" stroke-width=".72" stroke-linecap="round" stroke-linejoin="round" fill="none" stroke="#008700" d="M265.68 334.08H254.88"/>
<path transform="matrix(1,0,0,-1,-174.84001,489.4037)" stroke-width=".72" stroke-linecap="round" stroke-linejoin="round" fill="none" stroke="#008700" d="M290.88 334.08H280.08"/>
<path transform="matrix(1,0,0,-1,-174.84001,489.4037)" stroke-width=".72" stroke-linecap="round" stroke-linejoin="round" fill="none" stroke="#008700" d="M290.88 334.08H280.08"/>
<path transform="matrix(1,0,0,-1,-174.84001,489.4037)" stroke-width=".72" stroke-linecap="round" stroke-linejoin="round" fill="none" stroke="#008700" d="M280.08 402.48H316.08"/>
<path transform="matrix(1,0,0,-1,-174.84001,489.4037)" stroke-width=".72" stroke-linecap="round" stroke-linejoin="round" fill="none" stroke="#008700" d="M316.08 402.48V395.28"/>
<path transform="matrix(1,0,0,-1,-174.84001,489.4037)" stroke-width=".72" stroke-linecap="round" stroke-linejoin="round" fill="none" stroke="#008700" d="M280.08 402.48H316.08"/>
<path transform="matrix(1,0,0,-1,-174.84001,489.4037)" stroke-width=".72" stroke-linecap="round" stroke-linejoin="round" fill="none" stroke="#008700" d="M316.08 402.48V395.28"/>
<use data-text="O" xlink:href="#font_4_48" transform="matrix(3.2727273,0,0,-3.2727273,84.39998,138.4737)"/>
<use data-text="n" xlink:href="#font_4_79" transform="matrix(3.2727273,0,0,-3.2727273,86.94615,138.4737)"/>
<use data-text="l" xlink:href="#font_4_77" transform="matrix(3.2727273,0,0,-3.2727273,88.76579,138.4737)"/>
<use data-text="y" xlink:href="#font_4_90" transform="matrix(3.2727273,0,0,-3.2727273,89.492328,138.4737)"/>
<use data-text=" " xlink:href="#font_4_1" transform="matrix(3.2727273,0,0,-3.2727273,91.12868,138.4737)"/>
<use data-text="f" xlink:href="#font_4_71" transform="matrix(3.2727273,0,0,-3.2727273,92.0385,138.4737)"/>
<use data-text="o" xlink:href="#font_4_80" transform="matrix(3.2727273,0,0,-3.2727273,92.94832,138.4737)"/>
<use data-text="r" xlink:href="#font_4_83" transform="matrix(3.2727273,0,0,-3.2727273,94.76796,138.4737)"/>
<use data-text=" " xlink:href="#font_4_1" transform="matrix(3.2727273,0,0,-3.2727273,95.85777,138.4737)"/>
<use data-text="E" xlink:href="#font_4_38" transform="matrix(3.2727273,0,0,-3.2727273,96.76759,138.4737)"/>
<use data-text="a" xlink:href="#font_4_66" transform="matrix(3.2727273,0,0,-3.2727273,98.950519,138.4737)"/>
<use data-text="s" xlink:href="#font_4_84" transform="matrix(3.2727273,0,0,-3.2727273,100.77016,138.4737)"/>
<use data-text="y" xlink:href="#font_4_90" transform="matrix(3.2727273,0,0,-3.2727273,102.40651,138.4737)"/>
<use data-text="E" xlink:href="#font_4_38" transform="matrix(3.2727273,0,0,-3.2727273,104.04286,138.4737)"/>
<use data-text="D" xlink:href="#font_4_37" transform="matrix(3.2727273,0,0,-3.2727273,106.225788,138.4737)"/>
<use data-text="A" xlink:href="#font_4_34" transform="matrix(3.2727273,0,0,-3.2727273,108.5887,138.4737)"/>
<use data-text="," xlink:href="#font_4_13" transform="matrix(3.2727273,0,0,-3.2727273,110.77162,138.4737)"/>
<use data-text="n" xlink:href="#font_4_79" transform="matrix(3.2727273,0,0,-3.2727273,86.489978,142.0737)"/>
<use data-text="o" xlink:href="#font_4_80" transform="matrix(3.2727273,0,0,-3.2727273,88.309619,142.0737)"/>
<use data-text=" " xlink:href="#font_4_1" transform="matrix(3.2727273,0,0,-3.2727273,90.12926,142.0737)"/>
<use data-text="a" xlink:href="#font_4_66" transform="matrix(3.2727273,0,0,-3.2727273,91.03908,142.0737)"/>
<use data-text="c" xlink:href="#font_4_68" transform="matrix(3.2727273,0,0,-3.2727273,92.85872,142.0737)"/>
<use data-text="t" xlink:href="#font_4_85" transform="matrix(3.2727273,0,0,-3.2727273,94.49507,142.0737)"/>
<use data-text="u" xlink:href="#font_4_86" transform="matrix(3.2727273,0,0,-3.2727273,95.40489,142.0737)"/>
<use data-text="a" xlink:href="#font_4_66" transform="matrix(3.2727273,0,0,-3.2727273,97.22453,142.0737)"/>
<use data-text="l" xlink:href="#font_4_77" transform="matrix(3.2727273,0,0,-3.2727273,99.044178,142.0737)"/>
<use data-text=" " xlink:href="#font_4_1" transform="matrix(3.2727273,0,0,-3.2727273,99.770709,142.0737)"/>
<use data-text="s" xlink:href="#font_4_84" transform="matrix(3.2727273,0,0,-3.2727273,100.68053,142.0737)"/>
<use data-text="h" xlink:href="#font_4_73" transform="matrix(3.2727273,0,0,-3.2727273,102.31688,142.0737)"/>
<use data-text="o" xlink:href="#font_4_80" transform="matrix(3.2727273,0,0,-3.2727273,104.13652,142.0737)"/>
<use data-text="r" xlink:href="#font_4_83" transform="matrix(3.2727273,0,0,-3.2727273,105.95616,142.0737)"/>
<use data-text="t" xlink:href="#font_4_85" transform="matrix(3.2727273,0,0,-3.2727273,107.045978,142.0737)"/>
<use data-text="s" xlink:href="#font_4_84" transform="matrix(3.2727273,0,0,-3.2727273,107.955799,142.0737)"/>
<use data-text=" " xlink:href="#font_4_1" transform="matrix(3.2727273,0,0,-3.2727273,97.15999,145.6737)"/>
<use data-text="|" xlink:href="#font_4_93" transform="matrix(3.2727273,0,0,-3.2727273,98.06981,145.6737)"/>
<use data-text="v" xlink:href="#font_4_87" transform="matrix(3.2727273,0,0,-3.2727273,97.219989,149.27371)"/>
<path transform="matrix(1,0,0,-1,-174.84001,489.4037)" stroke-width=".72" stroke-linecap="round" stroke-linejoin="round" fill="none" stroke="#ffcc00" d="M406.08 442.08V434.88"/>
<path transform="matrix(1,0,0,-1,-174.84001,489.4037)" stroke-width=".72" stroke-linecap="round" stroke-linejoin="round" fill="none" stroke="#ffcc00" d="M380.88 442.08H406.08"/>
<path transform="matrix(1,0,0,-1,-174.84001,489.4037)" stroke-width=".72" stroke-linecap="round" stroke-linejoin="round" fill="none" stroke="#ffcc00" d="M406.08 442.08V434.88"/>
<path transform="matrix(1,0,0,-1,-174.84001,489.4037)" stroke-width=".72" stroke-linecap="round" stroke-linejoin="round" fill="none" stroke="#ffcc00" d="M380.88 442.08H406.08"/>
<path transform="matrix(1,0,0,-1,-174.84001,489.4037)" stroke-width=".72" stroke-linecap="round" stroke-linejoin="round" fill="none" stroke="#ffcc00" d="M330.48 395.28V442.08"/>
<path transform="matrix(1,0,0,-1,-174.84001,489.4037)" stroke-width=".72" stroke-linecap="round" stroke-linejoin="round" fill="none" stroke="#ffcc00" d="M330.48 442.08H352.08"/>
<path transform="matrix(1,0,0,-1,-174.84001,489.4037)" stroke-width=".72" stroke-linecap="round" stroke-linejoin="round" fill="none" stroke="#ffcc00" d="M330.48 395.28V442.08"/>
<path transform="matrix(1,0,0,-1,-174.84001,489.4037)" stroke-width=".72" stroke-linecap="round" stroke-linejoin="round" fill="none" stroke="#ffcc00" d="M330.48 442.08H352.08"/>
<path transform="matrix(1,0,0,-1,-174.84001,489.4037)" stroke-width=".72" stroke-linecap="square" stroke-miterlimit="72" stroke-linejoin="miter" fill="none" stroke="#a10000" d="M359.28 445.68H373.68V438.47999H359.28Z"/>
<path transform="matrix(1,0,0,-1,-174.84001,489.4037)" stroke-width=".72" stroke-linecap="round" stroke-linejoin="round" fill="none" stroke="#a10000" d="M352.08 442.08H359.28"/>
<path transform="matrix(1,0,0,-1,-174.84001,489.4037)" stroke-width=".72" stroke-linecap="round" stroke-linejoin="round" fill="none" stroke="#a10000" d="M380.88 442.08H373.68"/>
<use data-text="1" xlink:href="#font_4_18" transform="matrix(5.890909,0,0,-5.890909,183.77999,49.383699)" fill="#000080"/>
<use data-text="0" xlink:href="#font_4_17" transform="matrix(5.890909,0,0,-5.890909,187.05535,49.383699)" fill="#000080"/>
<use data-text="0" xlink:href="#font_4_17" transform="matrix(5.890909,0,0,-5.890909,190.3307,49.383699)" fill="#000080"/>
<use data-text="&#x03a9;" xlink:href="#font_5_473" transform="matrix(5.890909,0,0,-5.890909,193.60607,49.383699)" fill="#000080"/>
</g>
</g>
</svg>
