<svg xmlns="http://www.w3.org/2000/svg" xmlns:xlink="http://www.w3.org/1999/xlink" xmlns:inkscape="http://www.inkscape.org/namespaces/inkscape" version="1.1" width="390.7472" height="242.712" viewBox="0 0 390.7472 242.712">
<defs>
<clipPath id="clip_1">
<path transform="matrix(1,0,0,-1,-227.25,464.37477)" d="M227.25 221.66272H617.9972V464.37474H227.25Z"/>
</clipPath>
<clipPath id="clip_2">
<path transform="matrix(1,0,0,-1,-227.25,464.37477)" d="M0 0H848.16V599.76H0Z"/>
</clipPath>
<path id="font_3_18" d="M.34765626 0H.26171876V.4453125L.265625 .62109377 .1328125 .5078125 .0859375 .56640627 .2734375 .71484377H.34765626V0Z"/>
<path id="font_3_19" d="M.4921875 0H.046875V.078125L.29296876 .34375C.34765626 .40885417 .375 .47135417 .375 .53125 .375 .609375 .3359375 .6484375 .2578125 .6484375 .20572917 .6484375 .15494792 .62630209 .10546875 .58203127L.0546875 .640625C.1171875 .6953125 .18619792 .72265627 .26171876 .72265627 .3971354 .72265627 .46484376 .66015627 .46484376 .53515627 .46484376 .4596354 .4075521 .3580729 .29296876 .23046875L.15625 .0859375V.08203125H.4921875V0Z"/>
<path id="font_3_20" d="M.31640626 .375C.43359376 .359375 .4921875 .30208335 .4921875 .203125 .4921875 .0625 .4049479-.0078125 .23046875-.0078125 .14973958-.0078125 .0859375 .00390625 .0390625 .02734375V.11328125C.098958339 .08203125 .16145833 .06640625 .2265625 .06640625 .34114585 .06640625 .3984375 .11328125 .3984375 .20703125 .3984375 .2903646 .33854167 .33203126 .21875 .33203126H.1484375V.40625H.19921875C.3190104 .40625 .37890626 .4518229 .37890626 .54296877 .37890626 .61328127 .33854167 .6484375 .2578125 .6484375 .19791667 .6484375 .14192708 .62890627 .08984375 .58984377L.04296875 .65234377C.102864589 .69921877 .17447917 .72265627 .2578125 .72265627 .3984375 .72265627 .46875 .6640625 .46875 .546875 .46875 .453125 .41796876 .39583335 .31640626 .375Z"/>
<path id="font_3_21" d="M.53125 .16015625H.42578126V0H.33984376V.16015625H.01171875V.23828125L.3359375 .71875H.42578126V.2421875H.53125V.16015625M.33984376 .2421875 .34765626 .625H.34375C.33072917 .5885417 .24869792 .4609375 .09765625 .2421875H.33984376Z"/>
<path id="font_3_22" d="M.0625 .02734375V.11328125C.109375 .08203125 .16927083 .06640625 .2421875 .06640625 .34895835 .06640625 .40234376 .1171875 .40234376 .21875 .40234376 .31510417 .34635417 .36328126 .234375 .36328126L.125 .3515625 .078125 .37890626 .10546875 .71484377H.44140626V.6328125H.18359375L.1640625 .4296875 .265625 .4375C.3359375 .4375 .3919271 .41861979 .43359376 .38085938 .4752604 .34309898 .49609376 .29296876 .49609376 .23046875 .49609376 .071614589 .41015626-.0078125 .23828125-.0078125 .16536458-.0078125 .106770839 .00390625 .0625 .02734375Z"/>
<path id="font_3_23" d="M.453125 .71484377V.640625L.37109376 .65234377C.22526042 .65234377 .14973958 .55598959 .14453125 .36328126H.15234375C.18359375 .41796876 .23307292 .4453125 .30078126 .4453125 .4361979 .4453125 .50390627 .3736979 .50390627 .23046875 .50390627 .071614589 .43229167-.0078125 .2890625-.0078125 .1328125-.0078125 .0546875 .096354167 .0546875 .3046875 .0546875 .5833333 .15885417 .72265627 .3671875 .72265627L.453125 .71484377M.2890625 .37890626C.24739583 .37890626 .21289063 .36523438 .18554688 .33789063 .15820313 .31054688 .14453125 .2799479 .14453125 .24609375 .14453125 .19401042 .15820313 .15104167 .18554688 .1171875 .21289063 .083333339 .24739583 .06640625 .2890625 .06640625 .375 .06640625 .41796876 .12109375 .41796876 .23046875 .41796876 .3294271 .375 .37890626 .2890625 .37890626Z"/>
<path id="font_3_34" d="M.515625 0 .4375 .22265625H.171875L.09375 0H0L.26171876 .71875H.34375L.609375 0H.515625M.41015626 .30078126C.3450521 .4830729 .30989585 .58984377 .3046875 .62109377L.26953126 .5078125 .19921875 .30078126H.41015626Z"/>
<path id="font_3_35" d="M.09765625 .71484377H.29296876C.4622396 .71484377 .546875 .65494796 .546875 .53515627 .546875 .4466146 .4986979 .39453126 .40234376 .37890626V.375C.51171877 .35677085 .56640627 .30078126 .56640627 .20703125 .56640627 .069010417 .4830729 0 .31640626 0H.09765625V.71484377M.1875 .41015626H.30859376C.4049479 .41015626 .453125 .44921876 .453125 .52734377 .453125 .60026046 .40104167 .63671877 .296875 .63671877H.1875V.41015626M.1875 .3359375V.078125H.31640626C.41796876 .078125 .46875 .122395839 .46875 .2109375 .46875 .29427085 .41666667 .3359375 .3125 .3359375H.1875Z"/>
<path id="font_3_36" d="M.546875 .09765625V.01953125C.5 .0013020834 .44140626-.0078125 .37109376-.0078125 .16536458-.0078125 .0625 .114583339 .0625 .359375 .0625 .47395835 .091796878 .56315109 .15039063 .6269531 .20898438 .6907552 .2877604 .72265627 .38671876 .72265627 .4596354 .72265627 .52213546 .70963546 .57421877 .68359377L.53515627 .60546877C.4856771 .63151046 .4361979 .64453127 .38671876 .64453127 .3190104 .64453127 .26367188 .6191406 .22070313 .5683594 .17773438 .5175781 .15625 .4466146 .15625 .35546876 .15625 .16536458 .23307292 .0703125 .38671876 .0703125 .4283854 .0703125 .48177085 .079427089 .546875 .09765625Z"/>
<path id="font_3_37" d="M.09765625 0V.71484377H.296875C.3984375 .71484377 .47851563 .6842448 .5371094 .6230469 .5957031 .56184896 .625 .4752604 .625 .36328126 .625 .12109375 .5026042 0 .2578125 0H.09765625M.1875 .63671877V.078125H.265625C.44010417 .078125 .52734377 .171875 .52734377 .359375 .52734377 .5416667 .44921876 .63411459 .29296876 .63671877H.1875Z"/>
<path id="font_4_35" d="M.07899475 0H.4079895C.47698976 0 .5279999 .018997193 .5669861 .06098938 .6029968 .09899902 .6230011 .15098572 .6230011 .20799256 .6230011 .29599 .58299258 .34899903 .48999024 .3849945 .5569916 .41600038 .59098818 .46899415 .59098818 .5439911 .59098818 .59799197 .57099917 .6439972 .5329895 .6779938 .49398805 .71299746 .44499208 .72898867 .375 .72898867H.07899475V0M.17199707 .4149933V.6469879H.35198976C.4039917 .6469879 .43299867 .6399994 .45799256 .62098696 .48399354 .6009979 .49798585 .57099917 .49798585 .5309906 .49798585 .4909973 .48399354 .46099855 .45799256 .44099427 .43299867 .42199708 .4039917 .4149933 .35198976 .4149933H.17199707M.17199707 .08198547V.33299256H.39898683C.48098756 .33299256 .5299988 .28599549 .5299988 .20698548 .5299988 .1289978 .48098756 .08198547 .39898683 .08198547H.17199707Z"/>
<path id="font_4_45" d="M.17298889 .72898867H.07998657V0H.5329895V.08198547H.17298889V.72898867Z"/>
<path id="font_4_44" d="M.17199707 .25498963 .29100038 .37399293 .5479889 0H.6579895L.35798646 .43199159 .6549988 .72898867H.5349884L.17199707 .3600006V.72898867H.07899475V0H.17199707V.25498963Z"/>
<path id="font_4_18" d="M.25898744 .5149994V0H.34700013V.72299197H.2889862C.2579956 .6119995 .23799134 .5970001 .101989749 .57899478V.5149994H.25898744Z"/>
<path id="font_4_23" d="M.49798585 .5349884C.48098756 .6529999 .40499879 .72299197 .29699708 .72299197 .21899414 .72299197 .14898682 .68499758 .10699463 .6199951 .06199646 .548996 .042999269 .46099855 .042999269 .32998658 .042999269 .20799256 .05999756 .1309967 .102996829 .066986087 .14099121 .0079956059 .20298767-.023010254 .2809906-.023010254 .41600038-.023010254 .5130005 .07798767 .5130005 .21899414 .5130005 .35198976 .4229889 .44599916 .29599 .44599916 .22599793 .44599916 .17098999 .41999818 .1329956 .36698915 .13398743 .54599 .18998719 .644989 .29100038 .644989 .35299684 .644989 .3959961 .6049957 .4099884 .5349884H.49798585M.2849884 .36799623C.36999513 .36799623 .4229889 .30799867 .4229889 .21199036 .4229889 .12098694 .36299134 .054992677 .28199769 .054992677 .19999695 .054992677 .13798523 .12399292 .13798523 .21598816 .13798523 .30599977 .19799805 .36799623 .2849884 .36799623Z"/>
<path id="font_4_34" d="M.47399903 .21899414 .548996 0H.6529999L.39698792 .72898867H.2769928L.016998291 0H.115997318L.19299317 .21899414H.47399903M.44799806 .29699708H.21598816L.33599855 .6289978 .44799806 .29699708Z"/>
<path id="font_4_22" d="M.47599793 .70899966H.10998535L.056991579 .32299806H.13798523C.1789856 .37199403 .21299744 .3889923 .2689972 .3889923 .3639984 .3889923 .4229889 .32398988 .4229889 .21899414 .4229889 .116989139 .3639984 .054992677 .2679901 .054992677 .19099427 .054992677 .14399719 .09399414 .12298584 .17399597H.034988405C.04699707 .115997318 .056991579 .08799744 .07798767 .06199646 .117996219 .0079956059 .18998719-.023010254 .269989-.023010254 .41299439-.023010254 .5130005 .08099365 .5130005 .23098755 .5130005 .37098695 .41999818 .46699525 .28399659 .46699525 .23399353 .46699525 .19400025 .45399476 .15299988 .42399598L.18099976 .621994H.47599793V.70899966Z"/>
<path id="font_4_37" d="M.08898926 0H.36999513C.55400088 0 .6669922 .13798523 .6669922 .36499024 .6669922 .59098818 .5549927 .72898867 .36999513 .72898867H.08898926V0M.18199158 .08198547V.6469879H.35398866C.49798585 .6469879 .57398989 .5499878 .57398989 .3639984 .57398989 .1789856 .49798585 .08198547 .35398866 .08198547H.18199158Z"/>
<path id="font_4_24" d="M.519989 .70899966H.04598999V.621994H.42900086C.2599945 .3809967 .19099427 .23298645 .13798523 0H.23199463C.2709961 .22698975 .3600006 .42199708 .519989 .6349945V.70899966Z"/>
<path id="font_4_21" d="M.32699586 .1749878V0H.4149933V.1749878H.519989V.2539978H.4149933V.72299197H.34999085L.027999878 .2679901V.1749878H.32699586M.32699586 .2539978H.10499573L.32699586 .57299807V.2539978Z"/>
<path id="font_4_20" d="M.22099304 .33299256H.23199463 .2689972C.36499024 .33299256 .41600038 .28799439 .41600038 .20098877 .41600038 .10998535 .36099244 .054992677 .269989 .054992677 .17298889 .054992677 .12599182 .10398865 .11999512 .20999146H.03199768C.035995485 .1519928 .04598999 .11399841 .06298828 .08198547 .099990848 .011993408 .16899109-.023010254 .2659912-.023010254 .4119873-.023010254 .5059967 .06498718 .5059967 .20199585 .5059967 .2939911 .47099305 .34399415 .38598634 .37399293 .45199586 .40098573 .4850006 .45098878 .4850006 .5239868 .4850006 .647995 .4039917 .72299197 .2689972 .72299197 .12599182 .72299197 .049987794 .6429901 .04699707 .48999024H.1349945C.13598633 .5339966 .13999939 .5589905 .15098572 .58099368 .17098999 .621994 .21499634 .6459961 .269989 .6459961 .34799195 .6459961 .394989 .598999 .394989 .5209961 .394989 .46998597 .3769989 .43899537 .33799745 .42199708 .31399537 .4119873 .28199769 .4079895 .22099304 .40699769V.33299256Z"/>
<path id="font_4_19" d="M.5059967 .08699036H.1329956C.14199829 .14698792 .17399597 .18499756 .26098634 .23799134L.36099244 .2939911C.45999146 .34899903 .5109863 .4229889 .5109863 .5119934 .5109863 .57199099 .4869995 .6279907 .44499208 .6669922 .40299989 .7049866 .35099793 .72299197 .28399659 .72299197 .19400025 .72299197 .1269989 .69099429 .08799744 .6289978 .06298828 .59098818 .051986696 .54599 .049987794 .47299195H.13798523C.14099121 .5219879 .14698792 .5509949 .15899658 .57499697 .18199158 .61898806 .22799683 .6459961 .2809906 .6459961 .36099244 .6459961 .42099 .58799746 .42099 .5099945 .42099 .45199586 .3880005 .4019928 .32499696 .3659973L.23298645 .31199647C.084991458 .22698975 .041992189 .15899658 .033996583 .0009918213H.5059967V.08699036Z"/>
<path id="font_4_17" d="M.2749939 .72299197C.20899964 .72299197 .14898682 .69299319 .11199951 .6439972 .06599426 .5799866 .042999269 .48399354 .042999269 .34999085 .042999269 .10598755 .12298584-.023010254 .2749939-.023010254 .4249878-.023010254 .5069885 .10598755 .5069885 .34399415 .5069885 .48399354 .4850006 .5779877 .43798829 .6439972 .40098573 .69400027 .34199525 .72299197 .2749939 .72299197M.2749939 .644989C.36999513 .644989 .4169922 .5479889 .4169922 .35198976 .4169922 .1459961 .37098695 .049987794 .272995 .049987794 .17999268 .049987794 .1329956 .1499939 .1329956 .34899903 .1329956 .5479889 .17999268 .644989 .2749939 .644989Z"/>
<path id="font_4_26" d="M.052993776 .16499329C.069992069 .04699707 .1459961-.023010254 .2539978-.023010254 .33299256-.023010254 .40299989 .01499939 .44499208 .07998657 .4889984 .15098572 .5089874 .23899842 .5089874 .36999513 .5089874 .49198915 .4909973 .56900027 .44898988 .6329956 .4099884 .69200137 .34799195 .72299197 .269989 .72299197 .1349945 .72299197 .037994386 .621994 .037994386 .48199464 .037994386 .34899903 .12799073 .25498963 .2559967 .25498963 .32299806 .25498963 .37298585 .2789917 .41799928 .33399964 .4169922 .1539917 .36099244 .054992677 .2599945 .054992677 .19799805 .054992677 .15499878 .09498596 .14099121 .16499329H.052993776M.2689972 .6459961C.35099793 .6459961 .41299439 .57699587 .41299439 .48399354 .41299439 .394989 .35299684 .33299256 .2659912 .33299256 .18099976 .33299256 .12799073 .3929901 .12799073 .4889984 .12799073 .5799866 .18699646 .6459961 .2689972 .6459961Z"/>
<path id="font_4_25" d="M.3909912 .3809967C.46499635 .42599488 .48799134 .46199037 .48799134 .5299988 .48799134 .6439972 .40098573 .72299197 .2749939 .72299197 .1499939 .72299197 .06199646 .6439972 .06199646 .5309906 .06199646 .46199037 .084991458 .4269867 .1579895 .3809967 .07699585 .33999635 .036987306 .2809906 .036987306 .20098877 .036987306 .068984989 .13398743-.023010254 .2749939-.023010254 .4149933-.023010254 .5130005 .068984989 .5130005 .20098877 .5130005 .2809906 .47299195 .33999635 .3909912 .3809967M.2749939 .644989C.34999085 .644989 .397995 .59999087 .397995 .5279999 .397995 .45999146 .34899903 .4149933 .2749939 .4149933 .19999695 .4149933 .1519928 .45999146 .1519928 .5299988 .1519928 .59999087 .19999695 .644989 .2749939 .644989M.2749939 .34098817C.36299134 .34098817 .4229889 .2829895 .4229889 .19898987 .4229889 .11199951 .3639984 .054992677 .272995 .054992677 .18699646 .054992677 .1269989 .11399841 .1269989 .19799805 .1269989 .28399659 .18598938 .34098817 .2749939 .34098817Z"/>
<path id="font_4_38" d="M.18299866 .33198548H.5799866V.4139862H.18299866V.6469879H.59498599V.72898867H.08999634V0H.61299136V.08198547H.18299866V.33198548Z"/>
<path id="font_4_51" d="M.18598938 .31399537H.42599488C.5089874 .31399537 .54599 .27398683 .54599 .18399048L.54499819 .11898804C.54499819 .07398987 .5529938 .02999878 .56599429 0H.67900088V.022994996C.6439972 .04699707 .6369934 .07299805 .6349945 .16999817 .6339874 .2899933 .61499026 .32598878 .5359955 .3600006 .6179962 .40098573 .651001 .44999696 .651001 .5339966 .651001 .6599884 .57299807 .72898867 .42900086 .72898867H.09298706V0H.18598938V.31399537M.18598938 .3959961V.6469879H.41099549C.46299745 .6469879 .49299623 .6389923 .5159912 .61898806 .54100039 .59799197 .55400088 .5649872 .55400088 .5219879 .55400088 .43499757 .5099945 .3959961 .41099549 .3959961H.18598938Z"/>
<path id="font_4_56" d="M.74398806 0 .92900088 .72898867H.82499697L.69099429 .13699341 .5249939 .72898867H.4249878L.2630005 .13699341 .12599182 .72898867H.021987915L.20899964 0H.31098939L.47399903 .598999 .6419983 0H.74398806Z"/>
<path id="font_4_52" d="M.59599307 .5149994C.59599307 .5649872 .59298709 .57899478 .57699587 .61299136 .5369873 .69699099 .45199586 .7409973 .32899476 .7409973 .16899109 .7409973 .069992069 .6589966 .069992069 .5269928 .069992069 .43798829 .116989139 .38198854 .21299744 .35699464L.3939972 .30899049C.4869995 .2849884 .5279999 .24798584 .5279999 .19099427 .5279999 .1519928 .5069885 .11199951 .47599793 .08999634 .44699098 .068984989 .40098573 .05899048 .34199525 .05899048 .2619934 .05899048 .20899964 .07798767 .17399597 .11999512 .14698792 .1519928 .1349945 .18699646 .13598633 .23199463H.04798889C.04899597 .16499329 .06199646 .12098694 .09098816 .08099365 .14099121 .011993408 .22499085-.023010254 .33599855-.023010254 .4229889-.023010254 .49398805-.0030059815 .54100039 .032989503 .58999636 .07199097 .62098696 .13699341 .62098696 .19999695 .62098696 .2899933 .5649872 .35598756 .46598817 .3829956L.2829895 .43199159C.19499207 .45599366 .16299439 .48399354 .16299439 .5399933 .16299439 .6139984 .22799683 .6629944 .32598878 .6629944 .44198609 .6629944 .5069885 .61099246 .5079956 .5149994H.59599307Z"/>
<path id="font_4_55" d="M.3919983 0 .644989 .72898867H.54599L.34399415 .11199951 .12998963 .72898867H.02999878L.2919922 0H.3919983Z"/>
<path id="font_4_41" d="M.5509949 .33198548V0H.6439972V.72898867H.5509949V.4139862H.17599488V.72898867H.08299255V0H.17599488V.33198548H.5509949Z"/>
<path id="font_4_89" d="M.2919922 .2709961 .46798707 .5239868H.37399293L.24798584 .33399964 .12199402 .5239868H.026992798L.20199585 .2669983 .016998291 0H.11199951L.24499512 .20098877 .37599183 0H.47299195L.2919922 .2709961Z"/>
<path id="font_4_1" d="M0 0Z"/>
<path id="font_4_36" d="M.6619873 .5029907C.6329956 .6629944 .54100039 .7409973 .3809967 .7409973 .2829895 .7409973 .20399475 .70999148 .1499939 .6499939 .083999637 .5779877 .04798889 .47399903 .04798889 .35598756 .04798889 .23599243 .084991458 .1329956 .15299988 .06199646 .20999146 .0039978029 .28199769-.023010254 .3769989-.023010254 .5549927-.023010254 .6549988 .07299805 .6769867 .2659912H.58099368C.57299807 .21598816 .5629883 .18199158 .5479889 .15299988 .5179901 .09298706 .45599366 .05899048 .37799073 .05899048 .23298645 .05899048 .14099121 .1749878 .14099121 .35699464 .14099121 .5439911 .22799683 .6589966 .36999513 .6589966 .42900086 .6589966 .48399354 .6419983 .5139923 .61299136 .54100039 .58799746 .55599978 .55799868 .5669861 .5029907H.6619873Z"/>
<path id="font_4_54" d="M.5519867 .72898867V.21699524C.5519867 .11898804 .48098756 .05899048 .3639984 .05899048 .30999757 .05899048 .2659912 .07199097 .23098755 .09700012 .19499207 .125 .17799378 .1619873 .17799378 .21699524V.72898867H.084991458V.21699524C.084991458 .068984989 .19099427-.023010254 .3639984-.023010254 .5349884-.023010254 .644989 .070999149 .644989 .21699524V.72898867H.5519867Z"/>
<path id="font_4_60" d="M.25 .72898867H.06399536V-.21200562H.25V-.14001465H.14698792V.6569977H.25V.72898867Z"/>
<path id="font_4_27" d="M.21398926 .10398865H.10998535V0H.21398926V.10398865M.21398926 .5239868H.10998535V.41999818H.21398926V.5239868Z"/>
<path id="font_4_62" d="M.022994996-.21200562H.20899964V.72898867H.022994996V.6569977H.12599182V-.14001465H.022994996V-.21200562Z"/>
<path id="font_4_40" d="M.70899966 .3849945H.40499879V.30299378H.6269989V.2829895C.6269989 .15299988 .5309906 .05899048 .397995 .05899048 .32398988 .05899048 .25698854 .085998538 .21398926 .1329956 .1659851 .18499756 .13699341 .27198792 .13699341 .3619995 .13699341 .54100039 .23899842 .6589966 .3929901 .6589966 .5039978 .6589966 .58399966 .60198977 .60398867 .5079956H.69898989C.6729889 .6559906 .5609894 .7409973 .3939972 .7409973 .30499269 .7409973 .23298645 .71798709 .17599488 .67099 .09098816 .6009979 .04399109 .48799134 .04399109 .35699464 .04399109 .1329956 .18099976-.023010254 .37799073-.023010254 .47698976-.023010254 .5549927 .01399231 .6269989 .09298706L.6499939-.0040130617H.70899966V.3849945Z"/>
<path id="font_4_47" d="M.6459961 .72898867H.55799868V.1329956L.1769867 .72898867H.07598877V0H.1639862V.59098818L.54100039 0H.6459961V.72898867Z"/>
<path id="font_4_64" d="M.5779877-.12600708H-.022003174V-.17601013H.5779877V-.12600708Z"/>
<path id="font_4_76" d="M.14099121 .72898867H.057998659V0H.14099121V.20399475L.22200012 .28399659 .39898683 0H.5019989L.28799439 .34298707 .46998597 .5239868H.36299134L.14099121 .3019867V.72898867Z"/>
<path id="font_5_473" d="M.328125 .0703125V0H.0390625V.08203125H.2109375C.111979167 .15755208 .0625 .2643229 .0625 .40234376 .0625 .50390627 .08984375 .5833333 .14453125 .640625 .19921875 .6979167 .2747396 .7265625 .37109376 .7265625 .4674479 .7265625 .54296877 .6979167 .59765627 .640625 .65234377 .5833333 .6796875 .50390627 .6796875 .40234376 .6796875 .2643229 .63151046 .15755208 .53515627 .08203125H.70703127V0H.41796876V.0703125C.52994796 .14583333 .5859375 .2565104 .5859375 .40234376 .5859375 .56380209 .51432296 .64453127 .37109376 .64453127 .23046875 .64453127 .16015625 .56380209 .16015625 .40234376 .16015625 .2565104 .21614583 .14583333 .328125 .0703125Z"/>
<path id="font_4_79" d="M.069992069 .5239868V0H.1539917V.2889862C.1539917 .3959961 .20999146 .46598817 .29599 .46598817 .3619995 .46598817 .4039917 .42599488 .4039917 .36299134V0H.4869995V.3959961C.4869995 .48298646 .42199708 .5389862 .32099916 .5389862 .24299622 .5389862 .19299317 .5089874 .14698792 .43598939V.5239868H.069992069Z"/>
<path id="font_4_39" d="M.18299866 .33198548H.5309906V.4139862H.18299866V.6469879H.57899478V.72898867H.08999634V0H.18299866V.33198548Z"/>
</defs>
<g clip-path="url(#clip_1)">
<g clip-path="url(#clip_2)">
<path transform="matrix(1,0,0,-1,-227.25,464.37477)" d="M0 599.76H848.16V0H0Z" fill="#ffffff"/>
<path transform="matrix(1,0,0,-1,-227.25,464.37477)" d="M288.72 460.08C288.72 460.88 288.08 461.52 287.28 461.52 286.48 461.52 285.84 460.88 285.84 460.08 285.84 459.28 286.48 458.64 287.28 458.64 288.08 458.64 288.72 459.28 288.72 460.08" fill="#999999"/>
<path transform="matrix(1,0,0,-1,-227.25,464.37477)" stroke-width=".72" stroke-linecap="square" stroke-miterlimit="72" stroke-linejoin="miter" fill="none" stroke="#a10000" d="M2.88 596.88H845.28V2.880005H2.88Z"/>
<path transform="matrix(1,0,0,-1,-227.25,464.37477)" stroke-width=".72" stroke-linecap="square" stroke-miterlimit="72" stroke-linejoin="miter" fill="none" stroke="#a10000" d="M10.08 589.68H838.08V10.080017H10.08Z"/>
<use data-text="1" xlink:href="#font_3_18" transform="matrix(7.2,0,0,-7.2,-155.97,460.77476)" fill="#a00000"/>
<use data-text="1" xlink:href="#font_3_18" transform="matrix(7.2,0,0,-7.2,-155.97,-126.02527)" fill="#a00000"/>
<use data-text="2" xlink:href="#font_3_19" transform="matrix(7.2,0,0,-7.2,-15.570007,460.77476)" fill="#a00000"/>
<use data-text="2" xlink:href="#font_3_19" transform="matrix(7.2,0,0,-7.2,-15.570007,-126.02527)" fill="#a00000"/>
<use data-text="3" xlink:href="#font_3_20" transform="matrix(7.2,0,0,-7.2,124.82999,460.77476)" fill="#a00000"/>
<use data-text="3" xlink:href="#font_3_20" transform="matrix(7.2,0,0,-7.2,124.82999,-126.02527)" fill="#a00000"/>
<use data-text="4" xlink:href="#font_3_21" transform="matrix(7.2,0,0,-7.2,265.23,460.77476)" fill="#a00000"/>
<use data-text="4" xlink:href="#font_3_21" transform="matrix(7.2,0,0,-7.2,265.23,-126.02527)" fill="#a00000"/>
<use data-text="5" xlink:href="#font_3_22" transform="matrix(7.2,0,0,-7.2,405.63,460.77476)" fill="#a00000"/>
<use data-text="5" xlink:href="#font_3_22" transform="matrix(7.2,0,0,-7.2,405.63,-126.02527)" fill="#a00000"/>
<use data-text="6" xlink:href="#font_3_23" transform="matrix(7.2,0,0,-7.2,546.03,460.77476)" fill="#a00000"/>
<use data-text="6" xlink:href="#font_3_23" transform="matrix(7.2,0,0,-7.2,546.03,-126.02527)" fill="#a00000"/>
<use data-text="A" xlink:href="#font_3_34" transform="matrix(7.2,0,0,-7.2,-222.57,-55.375246)" fill="#a00000"/>
<use data-text="A" xlink:href="#font_3_34" transform="matrix(7.2,0,0,-7.2,612.63,-55.375246)" fill="#a00000"/>
<use data-text="B" xlink:href="#font_3_35" transform="matrix(7.2,0,0,-7.2,-222.57,93.124759)" fill="#a00000"/>
<use data-text="B" xlink:href="#font_3_35" transform="matrix(7.2,0,0,-7.2,612.63,93.124759)" fill="#a00000"/>
<use data-text="C" xlink:href="#font_3_36" transform="matrix(7.2,0,0,-7.2,-222.57,241.62476)" fill="#a00000"/>
<use data-text="C" xlink:href="#font_3_36" transform="matrix(7.2,0,0,-7.2,612.63,241.62476)" fill="#a00000"/>
<use data-text="D" xlink:href="#font_3_37" transform="matrix(7.2,0,0,-7.2,-222.57,390.12477)" fill="#a00000"/>
<use data-text="D" xlink:href="#font_3_37" transform="matrix(7.2,0,0,-7.2,612.63,390.12477)" fill="#a00000"/>
<path transform="matrix(1,0,0,-1,-227.25,464.37477)" stroke-width=".72" stroke-linecap="round" stroke-linejoin="round" fill="none" stroke="#a10000" d="M143.28 2.88V10.08"/>
<path transform="matrix(1,0,0,-1,-227.25,464.37477)" stroke-width=".72" stroke-linecap="round" stroke-linejoin="round" fill="none" stroke="#a10000" d="M143.28 596.88V589.68"/>
<path transform="matrix(1,0,0,-1,-227.25,464.37477)" stroke-width=".72" stroke-linecap="round" stroke-linejoin="round" fill="none" stroke="#a10000" d="M283.68 2.88V10.08"/>
<path transform="matrix(1,0,0,-1,-227.25,464.37477)" stroke-width=".72" stroke-linecap="round" stroke-linejoin="round" fill="none" stroke="#a10000" d="M283.68 596.88V589.68"/>
<path transform="matrix(1,0,0,-1,-227.25,464.37477)" stroke-width=".72" stroke-linecap="round" stroke-linejoin="round" fill="none" stroke="#a10000" d="M424.08 2.88V10.08"/>
<path transform="matrix(1,0,0,-1,-227.25,464.37477)" stroke-width=".72" stroke-linecap="round" stroke-linejoin="round" fill="none" stroke="#a10000" d="M424.08 596.88V589.68"/>
<path transform="matrix(1,0,0,-1,-227.25,464.37477)" stroke-width=".72" stroke-linecap="round" stroke-linejoin="round" fill="none" stroke="#a10000" d="M564.48 2.88V10.08"/>
<path transform="matrix(1,0,0,-1,-227.25,464.37477)" stroke-width=".72" stroke-linecap="round" stroke-linejoin="round" fill="none" stroke="#a10000" d="M564.48 596.88V589.68"/>
<path transform="matrix(1,0,0,-1,-227.25,464.37477)" stroke-width=".72" stroke-linecap="round" stroke-linejoin="round" fill="none" stroke="#a10000" d="M704.88 2.88V10.08"/>
<path transform="matrix(1,0,0,-1,-227.25,464.37477)" stroke-width=".72" stroke-linecap="round" stroke-linejoin="round" fill="none" stroke="#a10000" d="M704.88 596.88V589.68"/>
<path transform="matrix(1,0,0,-1,-227.25,464.37477)" stroke-width=".72" stroke-linecap="round" stroke-linejoin="round" fill="none" stroke="#a10000" d="M2.88 448.38H10.08"/>
<path transform="matrix(1,0,0,-1,-227.25,464.37477)" stroke-width=".72" stroke-linecap="round" stroke-linejoin="round" fill="none" stroke="#a10000" d="M845.28 448.38H838.08"/>
<path transform="matrix(1,0,0,-1,-227.25,464.37477)" stroke-width=".72" stroke-linecap="round" stroke-linejoin="round" fill="none" stroke="#a10000" d="M2.88 299.88H10.08"/>
<path transform="matrix(1,0,0,-1,-227.25,464.37477)" stroke-width=".72" stroke-linecap="round" stroke-linejoin="round" fill="none" stroke="#a10000" d="M845.28 299.88H838.08"/>
<path transform="matrix(1,0,0,-1,-227.25,464.37477)" stroke-width=".72" stroke-linecap="round" stroke-linejoin="round" fill="none" stroke="#a10000" d="M2.88 151.38H10.08"/>
<path transform="matrix(1,0,0,-1,-227.25,464.37477)" stroke-width=".72" stroke-linecap="round" stroke-linejoin="round" fill="none" stroke="#a10000" d="M845.28 151.38H838.08"/>
<use data-text="B" xlink:href="#font_4_35" transform="matrix(0,-6.5454547,-6.5454547,-0,284.08,171.52475)"/>
<use data-text="L" xlink:href="#font_4_45" transform="matrix(0,-6.5454547,-6.5454547,-0,284.08,167.15894)"/>
<use data-text="K" xlink:href="#font_4_44" transform="matrix(0,-6.5454547,-6.5454547,-0,284.08,163.51966)"/>
<use data-text="1" xlink:href="#font_4_18" transform="matrix(0,-6.5454547,-6.5454547,-0,281.2,154.11475)"/>
<use data-text="6" xlink:href="#font_4_23" transform="matrix(0,-6.5454547,-6.5454547,-0,281.2,150.47547)"/>
<path transform="matrix(1,0,0,-1,-227.25,464.37477)" stroke-width=".72" stroke-linecap="round" stroke-linejoin="round" fill="none" stroke="#a10000" d="M510.48 319.68V305.28"/>
<use data-text="B" xlink:href="#font_4_35" transform="matrix(0,-6.5454547,-6.5454547,-0,276.88,171.52475)"/>
<use data-text="L" xlink:href="#font_4_45" transform="matrix(0,-6.5454547,-6.5454547,-0,276.88,167.15894)"/>
<use data-text="A" xlink:href="#font_4_34" transform="matrix(0,-6.5454547,-6.5454547,-0,276.88,163.51966)"/>
<use data-text="1" xlink:href="#font_4_18" transform="matrix(0,-6.5454547,-6.5454547,-0,274,154.11475)"/>
<use data-text="5" xlink:href="#font_4_22" transform="matrix(0,-6.5454547,-6.5454547,-0,274,150.47547)"/>
<path transform="matrix(1,0,0,-1,-227.25,464.37477)" stroke-width=".72" stroke-linecap="round" stroke-linejoin="round" fill="none" stroke="#a10000" d="M503.28 319.68V305.28"/>
<use data-text="D" xlink:href="#font_4_37" transform="matrix(0,-6.5454547,-6.5454547,-0,269.68,171.88477)"/>
<use data-text="B" xlink:href="#font_4_35" transform="matrix(0,-6.5454547,-6.5454547,-0,269.68,167.15894)"/>
<use data-text="7" xlink:href="#font_4_24" transform="matrix(0,-6.5454547,-6.5454547,-0,269.68,162.79312)"/>
<use data-text="1" xlink:href="#font_4_18" transform="matrix(0,-6.5454547,-6.5454547,-0,266.8,154.11475)"/>
<use data-text="4" xlink:href="#font_4_21" transform="matrix(0,-6.5454547,-6.5454547,-0,266.8,150.47547)"/>
<path transform="matrix(1,0,0,-1,-227.25,464.37477)" stroke-width=".72" stroke-linecap="round" stroke-linejoin="round" fill="none" stroke="#a10000" d="M496.08 319.68V305.28"/>
<use data-text="D" xlink:href="#font_4_37" transform="matrix(0,-6.5454547,-6.5454547,-0,262.48,171.88477)"/>
<use data-text="B" xlink:href="#font_4_35" transform="matrix(0,-6.5454547,-6.5454547,-0,262.48,167.15894)"/>
<use data-text="6" xlink:href="#font_4_23" transform="matrix(0,-6.5454547,-6.5454547,-0,262.48,162.79312)"/>
<use data-text="1" xlink:href="#font_4_18" transform="matrix(0,-6.5454547,-6.5454547,-0,259.6,154.11475)"/>
<use data-text="3" xlink:href="#font_4_20" transform="matrix(0,-6.5454547,-6.5454547,-0,259.6,150.47547)"/>
<path transform="matrix(1,0,0,-1,-227.25,464.37477)" stroke-width=".72" stroke-linecap="round" stroke-linejoin="round" fill="none" stroke="#a10000" d="M488.88 319.68V305.28"/>
<use data-text="D" xlink:href="#font_4_37" transform="matrix(0,-6.5454547,-6.5454547,-0,255.28,171.88477)"/>
<use data-text="B" xlink:href="#font_4_35" transform="matrix(0,-6.5454547,-6.5454547,-0,255.28,167.15894)"/>
<use data-text="5" xlink:href="#font_4_22" transform="matrix(0,-6.5454547,-6.5454547,-0,255.28,162.79312)"/>
<use data-text="1" xlink:href="#font_4_18" transform="matrix(0,-6.5454547,-6.5454547,-0,252.4,154.11475)"/>
<use data-text="2" xlink:href="#font_4_19" transform="matrix(0,-6.5454547,-6.5454547,-0,252.4,150.47547)"/>
<path transform="matrix(1,0,0,-1,-227.25,464.37477)" stroke-width=".72" stroke-linecap="round" stroke-linejoin="round" fill="none" stroke="#a10000" d="M481.68 319.68V305.28"/>
<use data-text="D" xlink:href="#font_4_37" transform="matrix(0,-6.5454547,-6.5454547,-0,248.07999,171.88477)"/>
<use data-text="B" xlink:href="#font_4_35" transform="matrix(0,-6.5454547,-6.5454547,-0,248.07999,167.15894)"/>
<use data-text="4" xlink:href="#font_4_21" transform="matrix(0,-6.5454547,-6.5454547,-0,248.07999,162.79312)"/>
<use data-text="1" xlink:href="#font_4_18" transform="matrix(0,-6.5454547,-6.5454547,-0,245.20001,154.11475)"/>
<use data-text="1" xlink:href="#font_4_18" transform="matrix(0,-6.5454547,-6.5454547,-0,245.20001,150.47547)"/>
<path transform="matrix(1,0,0,-1,-227.25,464.37477)" stroke-width=".72" stroke-linecap="round" stroke-linejoin="round" fill="none" stroke="#a10000" d="M474.48 319.68V305.28"/>
<use data-text="D" xlink:href="#font_4_37" transform="matrix(0,-6.5454547,-6.5454547,-0,240.88,171.88477)"/>
<use data-text="B" xlink:href="#font_4_35" transform="matrix(0,-6.5454547,-6.5454547,-0,240.88,167.15894)"/>
<use data-text="3" xlink:href="#font_4_20" transform="matrix(0,-6.5454547,-6.5454547,-0,240.88,162.79312)"/>
<use data-text="1" xlink:href="#font_4_18" transform="matrix(0,-6.5454547,-6.5454547,-0,238,154.11475)"/>
<use data-text="0" xlink:href="#font_4_17" transform="matrix(0,-6.5454547,-6.5454547,-0,238,150.47547)"/>
<path transform="matrix(1,0,0,-1,-227.25,464.37477)" stroke-width=".72" stroke-linecap="round" stroke-linejoin="round" fill="none" stroke="#a10000" d="M467.28 319.68V305.28"/>
<use data-text="D" xlink:href="#font_4_37" transform="matrix(0,-6.5454547,-6.5454547,-0,233.68,171.88477)"/>
<use data-text="B" xlink:href="#font_4_35" transform="matrix(0,-6.5454547,-6.5454547,-0,233.68,167.15894)"/>
<use data-text="2" xlink:href="#font_4_19" transform="matrix(0,-6.5454547,-6.5454547,-0,233.68,162.79312)"/>
<use data-text="9" xlink:href="#font_4_26" transform="matrix(0,-6.5454547,-6.5454547,-0,230.79999,154.11475)"/>
<path transform="matrix(1,0,0,-1,-227.25,464.37477)" stroke-width=".72" stroke-linecap="round" stroke-linejoin="round" fill="none" stroke="#a10000" d="M460.08 319.68V305.28"/>
<use data-text="D" xlink:href="#font_4_37" transform="matrix(0,-6.5454547,-6.5454547,-0,226.48001,171.88477)"/>
<use data-text="B" xlink:href="#font_4_35" transform="matrix(0,-6.5454547,-6.5454547,-0,226.48001,167.15894)"/>
<use data-text="1" xlink:href="#font_4_18" transform="matrix(0,-6.5454547,-6.5454547,-0,226.48001,162.79312)"/>
<use data-text="8" xlink:href="#font_4_25" transform="matrix(0,-6.5454547,-6.5454547,-0,223.6,154.11475)"/>
<path transform="matrix(1,0,0,-1,-227.25,464.37477)" stroke-width=".72" stroke-linecap="round" stroke-linejoin="round" fill="none" stroke="#a10000" d="M452.88 319.68V305.28"/>
<use data-text="D" xlink:href="#font_4_37" transform="matrix(0,-6.5454547,-6.5454547,-0,219.28,171.88477)"/>
<use data-text="B" xlink:href="#font_4_35" transform="matrix(0,-6.5454547,-6.5454547,-0,219.28,167.15894)"/>
<use data-text="0" xlink:href="#font_4_17" transform="matrix(0,-6.5454547,-6.5454547,-0,219.28,162.79312)"/>
<use data-text="7" xlink:href="#font_4_24" transform="matrix(0,-6.5454547,-6.5454547,-0,216.4,154.11475)"/>
<path transform="matrix(1,0,0,-1,-227.25,464.37477)" stroke-width=".72" stroke-linecap="round" stroke-linejoin="round" fill="none" stroke="#a10000" d="M445.68 319.68V305.28"/>
<use data-text="E" xlink:href="#font_4_38" transform="matrix(0,-6.5454547,-6.5454547,-0,212.07999,163.52475)"/>
<use data-text="6" xlink:href="#font_4_23" transform="matrix(0,-6.5454547,-6.5454547,-0,209.20001,154.11475)"/>
<path transform="matrix(1,0,0,-1,-227.25,464.37477)" stroke-width=".72" stroke-linecap="round" stroke-linejoin="round" fill="none" stroke="#a10000" d="M438.48 319.68V305.28"/>
<use data-text="R" xlink:href="#font_4_51" transform="matrix(0,-6.5454547,-6.5454547,-0,204.88,170.06476)"/>
<use data-text="W" xlink:href="#font_4_56" transform="matrix(0,-6.5454547,-6.5454547,-0,204.88,165.33893)"/>
<use data-text="5" xlink:href="#font_4_22" transform="matrix(0,-6.5454547,-6.5454547,-0,202,154.11475)"/>
<path transform="matrix(1,0,0,-1,-227.25,464.37477)" stroke-width=".72" stroke-linecap="round" stroke-linejoin="round" fill="none" stroke="#a10000" d="M431.28 319.68V305.28"/>
<use data-text="R" xlink:href="#font_4_51" transform="matrix(0,-6.5454547,-6.5454547,-0,197.68,168.24475)"/>
<use data-text="S" xlink:href="#font_4_52" transform="matrix(0,-6.5454547,-6.5454547,-0,197.68,163.51892)"/>
<use data-text="4" xlink:href="#font_4_21" transform="matrix(0,-6.5454547,-6.5454547,-0,194.79999,154.11475)"/>
<path transform="matrix(1,0,0,-1,-227.25,464.37477)" stroke-width=".72" stroke-linecap="round" stroke-linejoin="round" fill="none" stroke="#a10000" d="M424.08 319.68V305.28"/>
<use data-text="V" xlink:href="#font_4_55" transform="matrix(0,-6.5454547,-6.5454547,-0,190.48001,167.16477)"/>
<use data-text="0" xlink:href="#font_4_17" transform="matrix(0,-6.5454547,-6.5454547,-0,190.48001,162.79895)"/>
<use data-text="3" xlink:href="#font_4_20" transform="matrix(0,-6.5454547,-6.5454547,-0,187.6,154.11475)"/>
<path transform="matrix(1,0,0,-1,-227.25,464.37477)" stroke-width=".72" stroke-linecap="round" stroke-linejoin="round" fill="none" stroke="#a10000" d="M416.88 319.68V305.28"/>
<use data-text="V" xlink:href="#font_4_55" transform="matrix(0,-6.5454547,-6.5454547,-0,183.28,172.97476)"/>
<use data-text="D" xlink:href="#font_4_37" transform="matrix(0,-6.5454547,-6.5454547,-0,183.28,168.60895)"/>
<use data-text="D" xlink:href="#font_4_37" transform="matrix(0,-6.5454547,-6.5454547,-0,183.28,163.88312)"/>
<use data-text="2" xlink:href="#font_4_19" transform="matrix(0,-6.5454547,-6.5454547,-0,180.4,154.11475)"/>
<path transform="matrix(1,0,0,-1,-227.25,464.37477)" stroke-width=".72" stroke-linecap="round" stroke-linejoin="round" fill="none" stroke="#a10000" d="M409.68 319.68V305.28"/>
<use data-text="V" xlink:href="#font_4_55" transform="matrix(0,-6.5454547,-6.5454547,-0,176.07999,172.25476)"/>
<use data-text="S" xlink:href="#font_4_52" transform="matrix(0,-6.5454547,-6.5454547,-0,176.07999,167.88895)"/>
<use data-text="S" xlink:href="#font_4_52" transform="matrix(0,-6.5454547,-6.5454547,-0,176.07999,163.52313)"/>
<use data-text="1" xlink:href="#font_4_18" transform="matrix(0,-6.5454547,-6.5454547,-0,173.20001,154.11475)"/>
<path transform="matrix(1,0,0,-1,-227.25,464.37477)" stroke-width=".72" stroke-linecap="round" stroke-linejoin="round" fill="none" stroke="#a10000" d="M402.48 319.68V305.28"/>
<path transform="matrix(1,0,0,-1,-227.25,464.37477)" stroke-width=".72" stroke-linecap="square" stroke-miterlimit="72" stroke-linejoin="miter" fill="none" stroke="#a10000" d="M388.08 283.68H524.88V233.28H388.08Z"/>
<path transform="matrix(1,0,0,-1,-227.25,464.37477)" stroke-width=".72" stroke-linecap="square" stroke-miterlimit="72" stroke-linejoin="miter" fill="none" stroke="#a10000" d="M380.88 305.28H532.08V226.08H380.88Z"/>
<use data-text="E" xlink:href="#font_4_38" transform="matrix(0,-6.5454547,-6.5454547,-0,298.47999,168.24475)"/>
<use data-text="H" xlink:href="#font_4_41" transform="matrix(0,-6.5454547,-6.5454547,-0,298.47999,163.87894)"/>
<use data-text="0" xlink:href="#font_4_17" transform="matrix(0,-6.5454547,-6.5454547,-0,295.59999,154.11475)"/>
<path transform="matrix(1,0,0,-1,-227.25,464.37477)" stroke-width=".72" stroke-linecap="round" stroke-linejoin="round" fill="none" stroke="#a10000" d="M524.88 319.68V305.28"/>
<path transform="matrix(1,0,0,-1,-227.25,464.37477)" stroke-width=".72" stroke-linecap="round" stroke-linejoin="round" fill="none" stroke="#33cc33" d="M522 322.56 527.76 316.8M522 316.8 527.76 322.56"/>
<use data-text="1" xlink:href="#font_4_18" transform="matrix(13.090909,0,0,-13.090909,200.13,210.47476)" fill="#0000ff"/>
<use data-text="6" xlink:href="#font_4_23" transform="matrix(13.090909,0,0,-13.090909,207.40854,210.47476)" fill="#0000ff"/>
<use data-text="x" xlink:href="#font_4_89" transform="matrix(13.090909,0,0,-13.090909,214.68708,210.47476)" fill="#0000ff"/>
<use data-text="2" xlink:href="#font_4_19" transform="matrix(13.090909,0,0,-13.090909,221.23252,210.47476)" fill="#0000ff"/>
<use data-text=" " xlink:href="#font_4_1" transform="matrix(13.090909,0,0,-13.090909,228.51105,210.47476)" fill="#0000ff"/>
<use data-text="L" xlink:href="#font_4_45" transform="matrix(13.090909,0,0,-13.090909,232.15033,210.47476)" fill="#0000ff"/>
<use data-text="C" xlink:href="#font_4_36" transform="matrix(13.090909,0,0,-13.090909,239.42887,210.47476)" fill="#0000ff"/>
<use data-text="D" xlink:href="#font_4_37" transform="matrix(13.090909,0,0,-13.090909,248.8805,210.47476)" fill="#0000ff"/>
<use data-text="B" xlink:href="#font_4_35" transform="matrix(3.2727273,0,0,-3.2727273,88.82999,136.84476)" fill="#0000ff"/>
<use data-text="U" xlink:href="#font_4_54" transform="matrix(3.2727273,0,0,-3.2727273,91.01291,136.84476)" fill="#0000ff"/>
<use data-text="S" xlink:href="#font_4_52" transform="matrix(3.2727273,0,0,-3.2727273,93.375827,136.84476)" fill="#0000ff"/>
<use data-text="0" xlink:href="#font_4_17" transform="matrix(3.2727273,0,0,-3.2727273,95.55875,136.84476)" fill="#0000ff"/>
<path transform="matrix(1,0,0,-1,-227.25,464.37477)" stroke-width=".72" stroke-linecap="round" stroke-linejoin="round" fill="none" stroke="#0000ff" d="M445.68 326.88V319.68"/>
<path transform="matrix(1,0,0,-1,-227.25,464.37477)" stroke-width=".72" stroke-linecap="round" stroke-linejoin="round" fill="none" stroke="#0000ff" d="M445.68 326.88H316.08"/>
<use data-text="B" xlink:href="#font_4_35" transform="matrix(3.2727273,0,0,-3.2727273,88.82999,136.84476)" fill="#0000ff"/>
<use data-text="U" xlink:href="#font_4_54" transform="matrix(3.2727273,0,0,-3.2727273,91.01291,136.84476)" fill="#0000ff"/>
<use data-text="S" xlink:href="#font_4_52" transform="matrix(3.2727273,0,0,-3.2727273,93.375827,136.84476)" fill="#0000ff"/>
<use data-text="0" xlink:href="#font_4_17" transform="matrix(3.2727273,0,0,-3.2727273,95.55875,136.84476)" fill="#0000ff"/>
<path transform="matrix(1,0,0,-1,-227.25,464.37477)" stroke-width=".72" stroke-linecap="round" stroke-linejoin="round" fill="none" stroke="#0000ff" d="M445.68 326.88V319.68"/>
<path transform="matrix(1,0,0,-1,-227.25,464.37477)" stroke-width=".72" stroke-linecap="round" stroke-linejoin="round" fill="none" stroke="#0000ff" d="M445.68 326.88H316.08"/>
<use data-text="B" xlink:href="#font_4_35" transform="matrix(3.2727273,0,0,-3.2727273,88.82999,133.24475)" fill="#0000ff"/>
<use data-text="U" xlink:href="#font_4_54" transform="matrix(3.2727273,0,0,-3.2727273,91.01291,133.24475)" fill="#0000ff"/>
<use data-text="S" xlink:href="#font_4_52" transform="matrix(3.2727273,0,0,-3.2727273,93.375827,133.24475)" fill="#0000ff"/>
<use data-text="1" xlink:href="#font_4_18" transform="matrix(3.2727273,0,0,-3.2727273,95.55875,133.24475)" fill="#0000ff"/>
<path transform="matrix(1,0,0,-1,-227.25,464.37477)" stroke-width=".72" stroke-linecap="round" stroke-linejoin="round" fill="none" stroke="#0000ff" d="M452.88 330.48V319.68"/>
<path transform="matrix(1,0,0,-1,-227.25,464.37477)" stroke-width=".72" stroke-linecap="round" stroke-linejoin="round" fill="none" stroke="#0000ff" d="M452.88 330.48H316.08"/>
<use data-text="B" xlink:href="#font_4_35" transform="matrix(3.2727273,0,0,-3.2727273,88.82999,133.24475)" fill="#0000ff"/>
<use data-text="U" xlink:href="#font_4_54" transform="matrix(3.2727273,0,0,-3.2727273,91.01291,133.24475)" fill="#0000ff"/>
<use data-text="S" xlink:href="#font_4_52" transform="matrix(3.2727273,0,0,-3.2727273,93.375827,133.24475)" fill="#0000ff"/>
<use data-text="1" xlink:href="#font_4_18" transform="matrix(3.2727273,0,0,-3.2727273,95.55875,133.24475)" fill="#0000ff"/>
<path transform="matrix(1,0,0,-1,-227.25,464.37477)" stroke-width=".72" stroke-linecap="round" stroke-linejoin="round" fill="none" stroke="#0000ff" d="M452.88 330.48V319.68"/>
<path transform="matrix(1,0,0,-1,-227.25,464.37477)" stroke-width=".72" stroke-linecap="round" stroke-linejoin="round" fill="none" stroke="#0000ff" d="M452.88 330.48H316.08"/>
<use data-text="B" xlink:href="#font_4_35" transform="matrix(3.2727273,0,0,-3.2727273,88.82999,129.64475)" fill="#0000ff"/>
<use data-text="U" xlink:href="#font_4_54" transform="matrix(3.2727273,0,0,-3.2727273,91.01291,129.64475)" fill="#0000ff"/>
<use data-text="S" xlink:href="#font_4_52" transform="matrix(3.2727273,0,0,-3.2727273,93.375827,129.64475)" fill="#0000ff"/>
<use data-text="2" xlink:href="#font_4_19" transform="matrix(3.2727273,0,0,-3.2727273,95.55875,129.64475)" fill="#0000ff"/>
<path transform="matrix(1,0,0,-1,-227.25,464.37477)" stroke-width=".72" stroke-linecap="round" stroke-linejoin="round" fill="none" stroke="#0000ff" d="M460.08 334.08V319.68"/>
<path transform="matrix(1,0,0,-1,-227.25,464.37477)" stroke-width=".72" stroke-linecap="round" stroke-linejoin="round" fill="none" stroke="#0000ff" d="M460.08 334.08H316.08"/>
<use data-text="B" xlink:href="#font_4_35" transform="matrix(3.2727273,0,0,-3.2727273,88.82999,129.64475)" fill="#0000ff"/>
<use data-text="U" xlink:href="#font_4_54" transform="matrix(3.2727273,0,0,-3.2727273,91.01291,129.64475)" fill="#0000ff"/>
<use data-text="S" xlink:href="#font_4_52" transform="matrix(3.2727273,0,0,-3.2727273,93.375827,129.64475)" fill="#0000ff"/>
<use data-text="2" xlink:href="#font_4_19" transform="matrix(3.2727273,0,0,-3.2727273,95.55875,129.64475)" fill="#0000ff"/>
<path transform="matrix(1,0,0,-1,-227.25,464.37477)" stroke-width=".72" stroke-linecap="round" stroke-linejoin="round" fill="none" stroke="#0000ff" d="M460.08 334.08V319.68"/>
<path transform="matrix(1,0,0,-1,-227.25,464.37477)" stroke-width=".72" stroke-linecap="round" stroke-linejoin="round" fill="none" stroke="#0000ff" d="M460.08 334.08H316.08"/>
<use data-text="B" xlink:href="#font_4_35" transform="matrix(3.2727273,0,0,-3.2727273,88.82999,126.04477)" fill="#0000ff"/>
<use data-text="U" xlink:href="#font_4_54" transform="matrix(3.2727273,0,0,-3.2727273,91.01291,126.04477)" fill="#0000ff"/>
<use data-text="S" xlink:href="#font_4_52" transform="matrix(3.2727273,0,0,-3.2727273,93.375827,126.04477)" fill="#0000ff"/>
<use data-text="3" xlink:href="#font_4_20" transform="matrix(3.2727273,0,0,-3.2727273,95.55875,126.04477)" fill="#0000ff"/>
<path transform="matrix(1,0,0,-1,-227.25,464.37477)" stroke-width=".72" stroke-linecap="round" stroke-linejoin="round" fill="none" stroke="#0000ff" d="M467.28 337.68V319.68"/>
<path transform="matrix(1,0,0,-1,-227.25,464.37477)" stroke-width=".72" stroke-linecap="round" stroke-linejoin="round" fill="none" stroke="#0000ff" d="M467.28 337.68H316.08"/>
<use data-text="B" xlink:href="#font_4_35" transform="matrix(3.2727273,0,0,-3.2727273,88.82999,126.04477)" fill="#0000ff"/>
<use data-text="U" xlink:href="#font_4_54" transform="matrix(3.2727273,0,0,-3.2727273,91.01291,126.04477)" fill="#0000ff"/>
<use data-text="S" xlink:href="#font_4_52" transform="matrix(3.2727273,0,0,-3.2727273,93.375827,126.04477)" fill="#0000ff"/>
<use data-text="3" xlink:href="#font_4_20" transform="matrix(3.2727273,0,0,-3.2727273,95.55875,126.04477)" fill="#0000ff"/>
<path transform="matrix(1,0,0,-1,-227.25,464.37477)" stroke-width=".72" stroke-linecap="round" stroke-linejoin="round" fill="none" stroke="#0000ff" d="M467.28 337.68V319.68"/>
<path transform="matrix(1,0,0,-1,-227.25,464.37477)" stroke-width=".72" stroke-linecap="round" stroke-linejoin="round" fill="none" stroke="#0000ff" d="M467.28 337.68H316.08"/>
<use data-text="B" xlink:href="#font_4_35" transform="matrix(3.2727273,0,0,-3.2727273,88.82999,122.44476)" fill="#0000ff"/>
<use data-text="U" xlink:href="#font_4_54" transform="matrix(3.2727273,0,0,-3.2727273,91.01291,122.44476)" fill="#0000ff"/>
<use data-text="S" xlink:href="#font_4_52" transform="matrix(3.2727273,0,0,-3.2727273,93.375827,122.44476)" fill="#0000ff"/>
<use data-text="4" xlink:href="#font_4_21" transform="matrix(3.2727273,0,0,-3.2727273,95.55875,122.44476)" fill="#0000ff"/>
<path transform="matrix(1,0,0,-1,-227.25,464.37477)" stroke-width=".72" stroke-linecap="round" stroke-linejoin="round" fill="none" stroke="#0000ff" d="M474.48 341.28V319.68"/>
<path transform="matrix(1,0,0,-1,-227.25,464.37477)" stroke-width=".72" stroke-linecap="round" stroke-linejoin="round" fill="none" stroke="#0000ff" d="M474.48 341.28H316.08"/>
<use data-text="B" xlink:href="#font_4_35" transform="matrix(3.2727273,0,0,-3.2727273,88.82999,122.44476)" fill="#0000ff"/>
<use data-text="U" xlink:href="#font_4_54" transform="matrix(3.2727273,0,0,-3.2727273,91.01291,122.44476)" fill="#0000ff"/>
<use data-text="S" xlink:href="#font_4_52" transform="matrix(3.2727273,0,0,-3.2727273,93.375827,122.44476)" fill="#0000ff"/>
<use data-text="4" xlink:href="#font_4_21" transform="matrix(3.2727273,0,0,-3.2727273,95.55875,122.44476)" fill="#0000ff"/>
<path transform="matrix(1,0,0,-1,-227.25,464.37477)" stroke-width=".72" stroke-linecap="round" stroke-linejoin="round" fill="none" stroke="#0000ff" d="M474.48 341.28V319.68"/>
<path transform="matrix(1,0,0,-1,-227.25,464.37477)" stroke-width=".72" stroke-linecap="round" stroke-linejoin="round" fill="none" stroke="#0000ff" d="M474.48 341.28H316.08"/>
<use data-text="B" xlink:href="#font_4_35" transform="matrix(3.2727273,0,0,-3.2727273,88.82999,118.84476)" fill="#0000ff"/>
<use data-text="U" xlink:href="#font_4_54" transform="matrix(3.2727273,0,0,-3.2727273,91.01291,118.84476)" fill="#0000ff"/>
<use data-text="S" xlink:href="#font_4_52" transform="matrix(3.2727273,0,0,-3.2727273,93.375827,118.84476)" fill="#0000ff"/>
<use data-text="5" xlink:href="#font_4_22" transform="matrix(3.2727273,0,0,-3.2727273,95.55875,118.84476)" fill="#0000ff"/>
<path transform="matrix(1,0,0,-1,-227.25,464.37477)" stroke-width=".72" stroke-linecap="round" stroke-linejoin="round" fill="none" stroke="#0000ff" d="M481.68 344.88V319.68"/>
<path transform="matrix(1,0,0,-1,-227.25,464.37477)" stroke-width=".72" stroke-linecap="round" stroke-linejoin="round" fill="none" stroke="#0000ff" d="M481.68 344.88H316.08"/>
<use data-text="B" xlink:href="#font_4_35" transform="matrix(3.2727273,0,0,-3.2727273,88.82999,118.84476)" fill="#0000ff"/>
<use data-text="U" xlink:href="#font_4_54" transform="matrix(3.2727273,0,0,-3.2727273,91.01291,118.84476)" fill="#0000ff"/>
<use data-text="S" xlink:href="#font_4_52" transform="matrix(3.2727273,0,0,-3.2727273,93.375827,118.84476)" fill="#0000ff"/>
<use data-text="5" xlink:href="#font_4_22" transform="matrix(3.2727273,0,0,-3.2727273,95.55875,118.84476)" fill="#0000ff"/>
<path transform="matrix(1,0,0,-1,-227.25,464.37477)" stroke-width=".72" stroke-linecap="round" stroke-linejoin="round" fill="none" stroke="#0000ff" d="M481.68 344.88V319.68"/>
<path transform="matrix(1,0,0,-1,-227.25,464.37477)" stroke-width=".72" stroke-linecap="round" stroke-linejoin="round" fill="none" stroke="#0000ff" d="M481.68 344.88H316.08"/>
<use data-text="B" xlink:href="#font_4_35" transform="matrix(3.2727273,0,0,-3.2727273,88.82999,115.24475)" fill="#0000ff"/>
<use data-text="U" xlink:href="#font_4_54" transform="matrix(3.2727273,0,0,-3.2727273,91.01291,115.24475)" fill="#0000ff"/>
<use data-text="S" xlink:href="#font_4_52" transform="matrix(3.2727273,0,0,-3.2727273,93.375827,115.24475)" fill="#0000ff"/>
<use data-text="6" xlink:href="#font_4_23" transform="matrix(3.2727273,0,0,-3.2727273,95.55875,115.24475)" fill="#0000ff"/>
<path transform="matrix(1,0,0,-1,-227.25,464.37477)" stroke-width=".72" stroke-linecap="round" stroke-linejoin="round" fill="none" stroke="#0000ff" d="M488.88 348.48V319.68"/>
<path transform="matrix(1,0,0,-1,-227.25,464.37477)" stroke-width=".72" stroke-linecap="round" stroke-linejoin="round" fill="none" stroke="#0000ff" d="M488.88 348.48H316.08"/>
<use data-text="B" xlink:href="#font_4_35" transform="matrix(3.2727273,0,0,-3.2727273,88.82999,115.24475)" fill="#0000ff"/>
<use data-text="U" xlink:href="#font_4_54" transform="matrix(3.2727273,0,0,-3.2727273,91.01291,115.24475)" fill="#0000ff"/>
<use data-text="S" xlink:href="#font_4_52" transform="matrix(3.2727273,0,0,-3.2727273,93.375827,115.24475)" fill="#0000ff"/>
<use data-text="6" xlink:href="#font_4_23" transform="matrix(3.2727273,0,0,-3.2727273,95.55875,115.24475)" fill="#0000ff"/>
<path transform="matrix(1,0,0,-1,-227.25,464.37477)" stroke-width=".72" stroke-linecap="round" stroke-linejoin="round" fill="none" stroke="#0000ff" d="M488.88 348.48V319.68"/>
<path transform="matrix(1,0,0,-1,-227.25,464.37477)" stroke-width=".72" stroke-linecap="round" stroke-linejoin="round" fill="none" stroke="#0000ff" d="M488.88 348.48H316.08"/>
<use data-text="B" xlink:href="#font_4_35" transform="matrix(3.2727273,0,0,-3.2727273,88.82999,111.644748)" fill="#0000ff"/>
<use data-text="U" xlink:href="#font_4_54" transform="matrix(3.2727273,0,0,-3.2727273,91.01291,111.644748)" fill="#0000ff"/>
<use data-text="S" xlink:href="#font_4_52" transform="matrix(3.2727273,0,0,-3.2727273,93.375827,111.644748)" fill="#0000ff"/>
<use data-text="7" xlink:href="#font_4_24" transform="matrix(3.2727273,0,0,-3.2727273,95.55875,111.644748)" fill="#0000ff"/>
<path transform="matrix(1,0,0,-1,-227.25,464.37477)" stroke-width=".72" stroke-linecap="round" stroke-linejoin="round" fill="none" stroke="#0000ff" d="M496.08 352.08V319.68"/>
<path transform="matrix(1,0,0,-1,-227.25,464.37477)" stroke-width=".72" stroke-linecap="round" stroke-linejoin="round" fill="none" stroke="#0000ff" d="M496.08 352.08H316.08"/>
<use data-text="B" xlink:href="#font_4_35" transform="matrix(3.2727273,0,0,-3.2727273,88.82999,111.644748)" fill="#0000ff"/>
<use data-text="U" xlink:href="#font_4_54" transform="matrix(3.2727273,0,0,-3.2727273,91.01291,111.644748)" fill="#0000ff"/>
<use data-text="S" xlink:href="#font_4_52" transform="matrix(3.2727273,0,0,-3.2727273,93.375827,111.644748)" fill="#0000ff"/>
<use data-text="7" xlink:href="#font_4_24" transform="matrix(3.2727273,0,0,-3.2727273,95.55875,111.644748)" fill="#0000ff"/>
<path transform="matrix(1,0,0,-1,-227.25,464.37477)" stroke-width=".72" stroke-linecap="round" stroke-linejoin="round" fill="none" stroke="#0000ff" d="M496.08 352.08V319.68"/>
<path transform="matrix(1,0,0,-1,-227.25,464.37477)" stroke-width=".72" stroke-linecap="round" stroke-linejoin="round" fill="none" stroke="#0000ff" d="M496.08 352.08H316.08"/>
<use data-text="B" xlink:href="#font_4_35" transform="matrix(0,-6.5454547,-6.5454547,-0,80.32001,137.99475)" fill="#0000ff"/>
<use data-text="U" xlink:href="#font_4_54" transform="matrix(0,-6.5454547,-6.5454547,-0,80.32001,133.62894)" fill="#0000ff"/>
<use data-text="S" xlink:href="#font_4_52" transform="matrix(0,-6.5454547,-6.5454547,-0,80.32001,128.9031)" fill="#0000ff"/>
<use data-text="[" xlink:href="#font_4_60" transform="matrix(0,-6.5454547,-6.5454547,-0,80.32001,124.53729)" fill="#0000ff"/>
<use data-text="0" xlink:href="#font_4_17" transform="matrix(0,-6.5454547,-6.5454547,-0,80.32001,122.71765)" fill="#0000ff"/>
<use data-text=":" xlink:href="#font_4_27" transform="matrix(0,-6.5454547,-6.5454547,-0,80.32001,119.07837)" fill="#0000ff"/>
<use data-text="7" xlink:href="#font_4_24" transform="matrix(0,-6.5454547,-6.5454547,-0,80.32001,117.25873)" fill="#0000ff"/>
<use data-text="]" xlink:href="#font_4_62" transform="matrix(0,-6.5454547,-6.5454547,-0,80.32001,113.619449)" fill="#0000ff"/>
<path transform="matrix(1,0,0,-1,-227.25,464.37477)" stroke-width="1.44" stroke-linecap="round" stroke-linejoin="round" fill="none" stroke="#0000ff" d="M308.88 359.28V319.68"/>
<use data-text="B" xlink:href="#font_4_35" transform="matrix(0,-6.5454547,-6.5454547,-0,80.32001,137.99475)" fill="#0000ff"/>
<use data-text="U" xlink:href="#font_4_54" transform="matrix(0,-6.5454547,-6.5454547,-0,80.32001,133.62894)" fill="#0000ff"/>
<use data-text="S" xlink:href="#font_4_52" transform="matrix(0,-6.5454547,-6.5454547,-0,80.32001,128.9031)" fill="#0000ff"/>
<use data-text="[" xlink:href="#font_4_60" transform="matrix(0,-6.5454547,-6.5454547,-0,80.32001,124.53729)" fill="#0000ff"/>
<use data-text="0" xlink:href="#font_4_17" transform="matrix(0,-6.5454547,-6.5454547,-0,80.32001,122.71765)" fill="#0000ff"/>
<use data-text=":" xlink:href="#font_4_27" transform="matrix(0,-6.5454547,-6.5454547,-0,80.32001,119.07837)" fill="#0000ff"/>
<use data-text="7" xlink:href="#font_4_24" transform="matrix(0,-6.5454547,-6.5454547,-0,80.32001,117.25873)" fill="#0000ff"/>
<use data-text="]" xlink:href="#font_4_62" transform="matrix(0,-6.5454547,-6.5454547,-0,80.32001,113.619449)" fill="#0000ff"/>
<path transform="matrix(1,0,0,-1,-227.25,464.37477)" stroke-width="1.44" stroke-linecap="round" stroke-linejoin="round" fill="none" stroke="#0000ff" d="M308.88 359.28V319.68"/>
<path transform="matrix(1,0,0,-1,-227.25,464.37477)" d="M313.92 352.08 311.76 352.8 308.88 352.08 311.76 351.36Z" fill="#008700"/>
<path transform="matrix(1,0,0,-1,-227.25,464.37477)" stroke-width=".72" stroke-linecap="square" stroke-linejoin="round" fill="none" stroke="#008700" d="M313.92 352.08 311.76 352.8 308.88 352.08 311.76 351.36Z"/>
<path transform="matrix(1,0,0,-1,-227.25,464.37477)" stroke-width=".72" stroke-linecap="square" stroke-linejoin="round" fill="none" stroke="#008700" d="M316.08 352.08H313.92"/>
<path transform="matrix(1,0,0,-1,-227.25,464.37477)" d="M313.92 348.48 311.76 349.2 308.88 348.48 311.76 347.76Z" fill="#008700"/>
<path transform="matrix(1,0,0,-1,-227.25,464.37477)" stroke-width=".72" stroke-linecap="square" stroke-linejoin="round" fill="none" stroke="#008700" d="M313.92 348.48 311.76 349.2 308.88 348.48 311.76 347.76Z"/>
<path transform="matrix(1,0,0,-1,-227.25,464.37477)" stroke-width=".72" stroke-linecap="square" stroke-linejoin="round" fill="none" stroke="#008700" d="M316.08 348.48H313.92"/>
<path transform="matrix(1,0,0,-1,-227.25,464.37477)" d="M313.92 344.88 311.76 345.6 308.88 344.88 311.76 344.16Z" fill="#008700"/>
<path transform="matrix(1,0,0,-1,-227.25,464.37477)" stroke-width=".72" stroke-linecap="square" stroke-linejoin="round" fill="none" stroke="#008700" d="M313.92 344.88 311.76 345.6 308.88 344.88 311.76 344.16Z"/>
<path transform="matrix(1,0,0,-1,-227.25,464.37477)" stroke-width=".72" stroke-linecap="square" stroke-linejoin="round" fill="none" stroke="#008700" d="M316.08 344.88H313.92"/>
<path transform="matrix(1,0,0,-1,-227.25,464.37477)" d="M313.92 341.28 311.76 342 308.88 341.28 311.76 340.56Z" fill="#008700"/>
<path transform="matrix(1,0,0,-1,-227.25,464.37477)" stroke-width=".72" stroke-linecap="square" stroke-linejoin="round" fill="none" stroke="#008700" d="M313.92 341.28 311.76 342 308.88 341.28 311.76 340.56Z"/>
<path transform="matrix(1,0,0,-1,-227.25,464.37477)" stroke-width=".72" stroke-linecap="square" stroke-linejoin="round" fill="none" stroke="#008700" d="M316.08 341.28H313.92"/>
<path transform="matrix(1,0,0,-1,-227.25,464.37477)" d="M313.92 337.68 311.76 338.4 308.88 337.68 311.76 336.96Z" fill="#008700"/>
<path transform="matrix(1,0,0,-1,-227.25,464.37477)" stroke-width=".72" stroke-linecap="square" stroke-linejoin="round" fill="none" stroke="#008700" d="M313.92 337.68 311.76 338.4 308.88 337.68 311.76 336.96Z"/>
<path transform="matrix(1,0,0,-1,-227.25,464.37477)" stroke-width=".72" stroke-linecap="square" stroke-linejoin="round" fill="none" stroke="#008700" d="M316.08 337.68H313.92"/>
<path transform="matrix(1,0,0,-1,-227.25,464.37477)" d="M313.92 334.08 311.76 334.8 308.88 334.08 311.76 333.36Z" fill="#008700"/>
<path transform="matrix(1,0,0,-1,-227.25,464.37477)" stroke-width=".72" stroke-linecap="square" stroke-linejoin="round" fill="none" stroke="#008700" d="M313.92 334.08 311.76 334.8 308.88 334.08 311.76 333.36Z"/>
<path transform="matrix(1,0,0,-1,-227.25,464.37477)" stroke-width=".72" stroke-linecap="square" stroke-linejoin="round" fill="none" stroke="#008700" d="M316.08 334.08H313.92"/>
<path transform="matrix(1,0,0,-1,-227.25,464.37477)" d="M313.92 330.48 311.76 331.2 308.88 330.48 311.76 329.76Z" fill="#008700"/>
<path transform="matrix(1,0,0,-1,-227.25,464.37477)" stroke-width=".72" stroke-linecap="square" stroke-linejoin="round" fill="none" stroke="#008700" d="M313.92 330.48 311.76 331.2 308.88 330.48 311.76 329.76Z"/>
<path transform="matrix(1,0,0,-1,-227.25,464.37477)" stroke-width=".72" stroke-linecap="square" stroke-linejoin="round" fill="none" stroke="#008700" d="M316.08 330.48H313.92"/>
<path transform="matrix(1,0,0,-1,-227.25,464.37477)" d="M313.92 326.88 311.76 327.6 308.88 326.88 311.76 326.16Z" fill="#008700"/>
<path transform="matrix(1,0,0,-1,-227.25,464.37477)" stroke-width=".72" stroke-linecap="square" stroke-linejoin="round" fill="none" stroke="#008700" d="M313.92 326.88 311.76 327.6 308.88 326.88 311.76 326.16Z"/>
<path transform="matrix(1,0,0,-1,-227.25,464.37477)" stroke-width=".72" stroke-linecap="square" stroke-linejoin="round" fill="none" stroke="#008700" d="M316.08 326.88H313.92"/>
<path transform="matrix(1,0,0,-1,-227.25,464.37477)" stroke-width=".72" stroke-linecap="round" stroke-linejoin="round" fill="none" stroke="#a10000" d="M409.68 362.88V366.48"/>
<path transform="matrix(1,0,0,-1,-227.25,464.37477)" stroke-width=".72" stroke-linecap="round" stroke-linejoin="round" fill="none" stroke="#a10000" d="M406.08 370.08H413.28"/>
<path transform="matrix(1,0,0,-1,-227.25,464.37477)" stroke-width=".72" stroke-linecap="round" stroke-linejoin="round" fill="none" stroke="#a10000" d="M409.68 370.08V366.48"/>
<use data-text="V" xlink:href="#font_4_55" transform="matrix(6.5454547,0,0,-6.5454547,175.51999,92.98474)" fill="#000080"/>
<use data-text="C" xlink:href="#font_4_36" transform="matrix(6.5454547,0,0,-6.5454547,179.8858,92.98474)" fill="#000080"/>
<use data-text="C" xlink:href="#font_4_36" transform="matrix(6.5454547,0,0,-6.5454547,184.61164,92.98474)" fill="#000080"/>
<path transform="matrix(1,0,0,-1,-227.25,464.37477)" stroke-width=".72" stroke-linecap="round" stroke-linejoin="round" fill="none" stroke="#a10000" d="M496.08 362.88V366.48"/>
<path transform="matrix(1,0,0,-1,-227.25,464.37477)" stroke-width=".72" stroke-linecap="round" stroke-linejoin="round" fill="none" stroke="#a10000" d="M492.48 370.08H499.68"/>
<path transform="matrix(1,0,0,-1,-227.25,464.37477)" stroke-width=".72" stroke-linecap="round" stroke-linejoin="round" fill="none" stroke="#a10000" d="M496.08 370.08V366.48"/>
<use data-text="V" xlink:href="#font_4_55" transform="matrix(6.5454547,0,0,-6.5454547,261.92,92.98474)" fill="#000080"/>
<use data-text="C" xlink:href="#font_4_36" transform="matrix(6.5454547,0,0,-6.5454547,266.28584,92.98474)" fill="#000080"/>
<use data-text="C" xlink:href="#font_4_36" transform="matrix(6.5454547,0,0,-6.5454547,271.01167,92.98474)" fill="#000080"/>
<path transform="matrix(1,0,0,-1,-227.25,464.37477)" stroke-width=".72" stroke-linecap="round" stroke-linejoin="round" fill="none" stroke="#a10000" d="M388.08 362.88V370.08"/>
<path transform="matrix(1,0,0,-1,-227.25,464.37477)" stroke-width=".72" stroke-linecap="round" stroke-linejoin="round" fill="none" stroke="#a10000" d="M395.28 370.08H380.88L388.08 377.28 395.28 370.08"/>
<use data-text="G" xlink:href="#font_4_40" transform="matrix(6.5454547,0,0,-6.5454547,153.56,85.78476)" fill="#000080"/>
<use data-text="N" xlink:href="#font_4_47" transform="matrix(6.5454547,0,0,-6.5454547,158.65238,85.78476)" fill="#000080"/>
<use data-text="D" xlink:href="#font_4_37" transform="matrix(6.5454547,0,0,-6.5454547,163.3782,85.78476)" fill="#000080"/>
<path transform="matrix(1,0,0,-1,-227.25,464.37477)" stroke-width=".72" stroke-linecap="round" stroke-linejoin="round" fill="none" stroke="#a10000" d="M517.68 362.88V370.08"/>
<path transform="matrix(1,0,0,-1,-227.25,464.37477)" stroke-width=".72" stroke-linecap="round" stroke-linejoin="round" fill="none" stroke="#a10000" d="M524.88 370.08H510.48L517.68 377.28 524.88 370.08"/>
<use data-text="G" xlink:href="#font_4_40" transform="matrix(6.5454547,0,0,-6.5454547,283.16,85.78476)" fill="#000080"/>
<use data-text="N" xlink:href="#font_4_47" transform="matrix(6.5454547,0,0,-6.5454547,288.25239,85.78476)" fill="#000080"/>
<use data-text="D" xlink:href="#font_4_37" transform="matrix(6.5454547,0,0,-6.5454547,292.9782,85.78476)" fill="#000080"/>
<path transform="matrix(1,0,0,-1,-227.25,464.37477)" stroke-width=".72" stroke-linecap="round" stroke-linejoin="round" fill="none" stroke="#a10000" d="M438.48 362.88V370.08"/>
<path transform="matrix(1,0,0,-1,-227.25,464.37477)" stroke-width=".72" stroke-linecap="round" stroke-linejoin="round" fill="none" stroke="#a10000" d="M445.68 370.08H431.28L438.48 377.28 445.68 370.08"/>
<use data-text="G" xlink:href="#font_4_40" transform="matrix(6.5454547,0,0,-6.5454547,203.95999,85.78476)" fill="#000080"/>
<use data-text="N" xlink:href="#font_4_47" transform="matrix(6.5454547,0,0,-6.5454547,209.05237,85.78476)" fill="#000080"/>
<use data-text="D" xlink:href="#font_4_37" transform="matrix(6.5454547,0,0,-6.5454547,213.7782,85.78476)" fill="#000080"/>
<path transform="matrix(1,0,0,-1,-227.25,464.37477)" stroke-width=".72" stroke-linecap="round" stroke-linejoin="round" fill="none" stroke="#ff0000" d="M496.08 359.28H503.28"/>
<path transform="matrix(1,0,0,-1,-227.25,464.37477)" stroke-width=".72" stroke-linecap="round" stroke-linejoin="round" fill="none" stroke="#ff0000" d="M496.08 359.28V362.88"/>
<path transform="matrix(1,0,0,-1,-227.25,464.37477)" stroke-width=".72" stroke-linecap="round" stroke-linejoin="round" fill="none" stroke="#ff0000" d="M503.28 319.68V359.28"/>
<path transform="matrix(1,0,0,-1,-227.25,464.37477)" stroke-width=".72" stroke-linecap="round" stroke-linejoin="round" fill="none" stroke="#ff0000" d="M496.08 359.28H503.28"/>
<path transform="matrix(1,0,0,-1,-227.25,464.37477)" stroke-width=".72" stroke-linecap="round" stroke-linejoin="round" fill="none" stroke="#ff0000" d="M496.08 359.28V362.88"/>
<path transform="matrix(1,0,0,-1,-227.25,464.37477)" stroke-width=".72" stroke-linecap="round" stroke-linejoin="round" fill="none" stroke="#ff0000" d="M503.28 319.68V359.28"/>
<path transform="matrix(1,0,0,-1,-227.25,464.37477)" stroke-width=".72" stroke-linecap="round" stroke-linejoin="round" fill="none" stroke="#000000" d="M510.48 359.28V319.68"/>
<path transform="matrix(1,0,0,-1,-227.25,464.37477)" stroke-width=".72" stroke-linecap="round" stroke-linejoin="round" fill="none" stroke="#000000" d="M517.68 359.28H510.48"/>
<path transform="matrix(1,0,0,-1,-227.25,464.37477)" stroke-width=".72" stroke-linecap="round" stroke-linejoin="round" fill="none" stroke="#000000" d="M517.68 359.28V362.88"/>
<path transform="matrix(1,0,0,-1,-227.25,464.37477)" stroke-width=".72" stroke-linecap="round" stroke-linejoin="round" fill="none" stroke="#000000" d="M510.48 359.28V319.68"/>
<path transform="matrix(1,0,0,-1,-227.25,464.37477)" stroke-width=".72" stroke-linecap="round" stroke-linejoin="round" fill="none" stroke="#000000" d="M517.68 359.28H510.48"/>
<path transform="matrix(1,0,0,-1,-227.25,464.37477)" stroke-width=".72" stroke-linecap="round" stroke-linejoin="round" fill="none" stroke="#000000" d="M517.68 359.28V362.88"/>
<path transform="matrix(1,0,0,-1,-227.25,464.37477)" stroke-width=".72" stroke-linecap="round" stroke-linejoin="round" fill="none" stroke="#000000" d="M438.48 359.28V362.88"/>
<path transform="matrix(1,0,0,-1,-227.25,464.37477)" stroke-width=".72" stroke-linecap="round" stroke-linejoin="round" fill="none" stroke="#000000" d="M431.28 359.28H438.48"/>
<path transform="matrix(1,0,0,-1,-227.25,464.37477)" stroke-width=".72" stroke-linecap="round" stroke-linejoin="round" fill="none" stroke="#000000" d="M431.28 319.68V359.28"/>
<path transform="matrix(1,0,0,-1,-227.25,464.37477)" stroke-width=".72" stroke-linecap="round" stroke-linejoin="round" fill="none" stroke="#000000" d="M438.48 359.28V362.88"/>
<path transform="matrix(1,0,0,-1,-227.25,464.37477)" stroke-width=".72" stroke-linecap="round" stroke-linejoin="round" fill="none" stroke="#000000" d="M431.28 359.28H438.48"/>
<path transform="matrix(1,0,0,-1,-227.25,464.37477)" stroke-width=".72" stroke-linecap="round" stroke-linejoin="round" fill="none" stroke="#000000" d="M431.28 319.68V359.28"/>
<path transform="matrix(1,0,0,-1,-227.25,464.37477)" stroke-width=".72" stroke-linecap="round" stroke-linejoin="round" fill="none" stroke="#ff0000" d="M409.68 319.68V362.88"/>
<path transform="matrix(1,0,0,-1,-227.25,464.37477)" stroke-width=".72" stroke-linecap="round" stroke-linejoin="round" fill="none" stroke="#ff0000" d="M409.68 319.68V362.88"/>
<path transform="matrix(1,0,0,-1,-227.25,464.37477)" stroke-width=".72" stroke-linecap="round" stroke-linejoin="round" fill="none" stroke="#000000" d="M402.48 359.28V319.68"/>
<path transform="matrix(1,0,0,-1,-227.25,464.37477)" stroke-width=".72" stroke-linecap="round" stroke-linejoin="round" fill="none" stroke="#000000" d="M402.48 359.28H388.08"/>
<path transform="matrix(1,0,0,-1,-227.25,464.37477)" stroke-width=".72" stroke-linecap="round" stroke-linejoin="round" fill="none" stroke="#000000" d="M388.08 362.88V359.28"/>
<path transform="matrix(1,0,0,-1,-227.25,464.37477)" stroke-width=".72" stroke-linecap="round" stroke-linejoin="round" fill="none" stroke="#000000" d="M402.48 359.28V319.68"/>
<path transform="matrix(1,0,0,-1,-227.25,464.37477)" stroke-width=".72" stroke-linecap="round" stroke-linejoin="round" fill="none" stroke="#000000" d="M402.48 359.28H388.08"/>
<path transform="matrix(1,0,0,-1,-227.25,464.37477)" stroke-width=".72" stroke-linecap="round" stroke-linejoin="round" fill="none" stroke="#000000" d="M388.08 362.88V359.28"/>
<path transform="matrix(1,0,0,-1,-227.25,464.37477)" stroke-width=".72" stroke-linecap="round" stroke-linejoin="round" fill="none" stroke="#a10000" d="M424.08 380.88V388.08"/>
<path transform="matrix(1,0,0,-1,-227.25,464.37477)" stroke-width=".72" stroke-linecap="round" stroke-linejoin="round" fill="none" stroke="#a10000" d="M424.08 388.08 427.68 395.28V409.68H420.48V395.28L424.08 388.08"/>
<use data-text="L" xlink:href="#font_4_45" transform="matrix(0,-6.5454547,-6.5454547,-0,199.12,51.094758)" fill="#0000ff"/>
<use data-text="C" xlink:href="#font_4_36" transform="matrix(0,-6.5454547,-6.5454547,-0,199.12,47.455476)" fill="#0000ff"/>
<use data-text="D" xlink:href="#font_4_37" transform="matrix(0,-6.5454547,-6.5454547,-0,199.12,42.729646)" fill="#0000ff"/>
<use data-text="_" xlink:href="#font_4_64" transform="matrix(0,-6.5454547,-6.5454547,-0,199.12,38.003816)" fill="#0000ff"/>
<use data-text="R" xlink:href="#font_4_51" transform="matrix(0,-6.5454547,-6.5454547,-0,199.12,34.364534)" fill="#0000ff"/>
<use data-text="S" xlink:href="#font_4_52" transform="matrix(0,-6.5454547,-6.5454547,-0,199.12,29.638703)" fill="#0000ff"/>
<path transform="matrix(1,0,0,-1,-227.25,464.37477)" stroke-width=".72" stroke-linecap="round" stroke-linejoin="round" fill="none" stroke="#a10000" d="M452.88 380.88V388.08"/>
<path transform="matrix(1,0,0,-1,-227.25,464.37477)" stroke-width=".72" stroke-linecap="round" stroke-linejoin="round" fill="none" stroke="#a10000" d="M452.88 388.08 456.48 395.28V409.68H449.28V395.28L452.88 388.08"/>
<use data-text="L" xlink:href="#font_4_45" transform="matrix(0,-6.5454547,-6.5454547,-0,227.92002,51.094758)" fill="#0000ff"/>
<use data-text="C" xlink:href="#font_4_36" transform="matrix(0,-6.5454547,-6.5454547,-0,227.92002,47.455476)" fill="#0000ff"/>
<use data-text="D" xlink:href="#font_4_37" transform="matrix(0,-6.5454547,-6.5454547,-0,227.92002,42.729646)" fill="#0000ff"/>
<use data-text="_" xlink:href="#font_4_64" transform="matrix(0,-6.5454547,-6.5454547,-0,227.92002,38.003816)" fill="#0000ff"/>
<use data-text="E" xlink:href="#font_4_38" transform="matrix(0,-6.5454547,-6.5454547,-0,227.92002,34.364534)" fill="#0000ff"/>
<path transform="matrix(1,0,0,-1,-227.25,464.37477)" stroke-width=".72" stroke-linecap="round" stroke-linejoin="round" fill="none" stroke="#999999" d="M424.08 319.68V380.88"/>
<path transform="matrix(1,0,0,-1,-227.25,464.37477)" stroke-width=".72" stroke-linecap="round" stroke-linejoin="round" fill="none" stroke="#999999" d="M424.08 319.68V380.88"/>
<path transform="matrix(1,0,0,-1,-227.25,464.37477)" stroke-width=".72" stroke-linecap="round" stroke-linejoin="round" fill="none" stroke="#999999" d="M438.48 355.68V319.68"/>
<path transform="matrix(1,0,0,-1,-227.25,464.37477)" stroke-width=".72" stroke-linecap="round" stroke-linejoin="round" fill="none" stroke="#999999" d="M452.88 355.68H438.48"/>
<path transform="matrix(1,0,0,-1,-227.25,464.37477)" stroke-width=".72" stroke-linecap="round" stroke-linejoin="round" fill="none" stroke="#999999" d="M452.88 355.68V380.88"/>
<path transform="matrix(1,0,0,-1,-227.25,464.37477)" stroke-width=".72" stroke-linecap="round" stroke-linejoin="round" fill="none" stroke="#999999" d="M438.48 355.68V319.68"/>
<path transform="matrix(1,0,0,-1,-227.25,464.37477)" stroke-width=".72" stroke-linecap="round" stroke-linejoin="round" fill="none" stroke="#999999" d="M452.88 355.68H438.48"/>
<path transform="matrix(1,0,0,-1,-227.25,464.37477)" stroke-width=".72" stroke-linecap="round" stroke-linejoin="round" fill="none" stroke="#999999" d="M452.88 355.68V380.88"/>
<path transform="matrix(1,0,0,-1,-227.25,464.37477)" stroke-width=".72" stroke-linecap="round" stroke-linejoin="round" fill="none" stroke="#a10000" d="M341.28 312.48V305.28"/>
<path transform="matrix(1,0,0,-1,-227.25,464.37477)" stroke-width=".72" stroke-linecap="round" stroke-linejoin="round" fill="none" stroke="#a10000" d="M349.92 300.24C349.92 300.64 349.6 300.96 349.2 300.96 348.8 300.96 348.48 300.64 348.48 300.24 348.48 299.84 348.8 299.52 349.2 299.52 349.6 299.52 349.92 299.84 349.92 300.24"/>
<path transform="matrix(1,0,0,-1,-227.25,464.37477)" stroke-width=".72" stroke-linecap="round" stroke-linejoin="round" fill="none" stroke="#a10000" d="M339.84 305.28 341.28 302.4 342.72 305.28H339.84"/>
<path transform="matrix(1,0,0,-1,-227.25,464.37477)" stroke-width=".72" stroke-linecap="round" stroke-linejoin="round" fill="none" stroke="#a10000" d="M355.68 298.08H348.48"/>
<path transform="matrix(1,0,0,-1,-227.25,464.37477)" stroke-width=".72" stroke-linecap="round" stroke-linejoin="round" fill="none" stroke="#a10000" d="M326.88 298.08H334.08"/>
<path transform="matrix(1,0,0,-1,-227.25,464.37477)" stroke-width=".72" stroke-linecap="round" stroke-linejoin="round" fill="none" stroke="#a10000" d="M341.28 305.28V302.4"/>
<path transform="matrix(1,0,0,-1,-227.25,464.37477)" stroke-width=".72" stroke-linecap="round" stroke-linejoin="round" fill="none" stroke="#a10000" d="M347.76 295.2 348.48 298.08"/>
<path transform="matrix(1,0,0,-1,-227.25,464.37477)" stroke-width=".72" stroke-linecap="round" stroke-linejoin="round" fill="none" stroke="#a10000" d="M345.6 300.96 347.76 295.2"/>
<path transform="matrix(1,0,0,-1,-227.25,464.37477)" stroke-width=".72" stroke-linecap="round" stroke-linejoin="round" fill="none" stroke="#a10000" d="M344.16 295.2 345.6 300.96"/>
<path transform="matrix(1,0,0,-1,-227.25,464.37477)" stroke-width=".72" stroke-linecap="round" stroke-linejoin="round" fill="none" stroke="#a10000" d="M342 300.96 344.16 295.2"/>
<path transform="matrix(1,0,0,-1,-227.25,464.37477)" stroke-width=".72" stroke-linecap="round" stroke-linejoin="round" fill="none" stroke="#a10000" d="M340.56 295.2 342 300.96"/>
<path transform="matrix(1,0,0,-1,-227.25,464.37477)" stroke-width=".72" stroke-linecap="round" stroke-linejoin="round" fill="none" stroke="#a10000" d="M339.12 300.96 340.56 295.2"/>
<path transform="matrix(1,0,0,-1,-227.25,464.37477)" stroke-width=".72" stroke-linecap="round" stroke-linejoin="round" fill="none" stroke="#a10000" d="M336.96 295.2 339.12 300.96"/>
<path transform="matrix(1,0,0,-1,-227.25,464.37477)" stroke-width=".72" stroke-linecap="round" stroke-linejoin="round" fill="none" stroke="#a10000" d="M335.52 300.96 336.96 295.2"/>
<path transform="matrix(1,0,0,-1,-227.25,464.37477)" stroke-width=".72" stroke-linecap="round" stroke-linejoin="round" fill="none" stroke="#a10000" d="M334.08 298.08 335.52 300.96"/>
<use data-text="5" xlink:href="#font_4_22" transform="matrix(6.5454547,0,0,-6.5454547,105.48001,175.78476)" fill="#0000ff"/>
<use data-text="0" xlink:href="#font_4_17" transform="matrix(6.5454547,0,0,-6.5454547,109.11929,175.78476)" fill="#0000ff"/>
<use data-text="k" xlink:href="#font_4_76" transform="matrix(6.5454547,0,0,-6.5454547,112.758579,175.78476)" fill="#0000ff"/>
<use data-text="&#x03a9;" xlink:href="#font_5_473" transform="matrix(6.5454547,0,0,-6.5454547,116.03131,175.78476)" fill="#0000ff"/>
<path transform="matrix(1,0,0,-1,-227.25,464.37477)" stroke-width=".72" stroke-linecap="round" stroke-linejoin="round" fill="none" stroke="#008700" d="M341.28 323.28V312.48"/>
<path transform="matrix(1,0,0,-1,-227.25,464.37477)" stroke-width=".72" stroke-linecap="round" stroke-linejoin="round" fill="none" stroke="#008700" d="M416.88 323.28H341.28"/>
<path transform="matrix(1,0,0,-1,-227.25,464.37477)" stroke-width=".72" stroke-linecap="round" stroke-linejoin="round" fill="none" stroke="#008700" d="M416.88 319.68V323.28"/>
<path transform="matrix(1,0,0,-1,-227.25,464.37477)" stroke-width=".72" stroke-linecap="round" stroke-linejoin="round" fill="none" stroke="#008700" d="M341.28 323.28V312.48"/>
<path transform="matrix(1,0,0,-1,-227.25,464.37477)" stroke-width=".72" stroke-linecap="round" stroke-linejoin="round" fill="none" stroke="#008700" d="M416.88 323.28H341.28"/>
<path transform="matrix(1,0,0,-1,-227.25,464.37477)" stroke-width=".72" stroke-linecap="round" stroke-linejoin="round" fill="none" stroke="#008700" d="M416.88 319.68V323.28"/>
<path transform="matrix(1,0,0,-1,-227.25,464.37477)" stroke-width=".72" stroke-linecap="round" stroke-linejoin="round" fill="none" stroke="#a10000" d="M326.88 280.08V272.88"/>
<path transform="matrix(1,0,0,-1,-227.25,464.37477)" stroke-width=".72" stroke-linecap="round" stroke-linejoin="round" fill="none" stroke="#a10000" d="M319.68 272.88H334.08L326.88 265.68 319.68 272.88"/>
<use data-text="G" xlink:href="#font_4_40" transform="matrix(6.5454547,0,0,-6.5454547,92.359989,204.58475)" fill="#000080"/>
<use data-text="N" xlink:href="#font_4_47" transform="matrix(6.5454547,0,0,-6.5454547,97.45236,204.58475)" fill="#000080"/>
<use data-text="D" xlink:href="#font_4_37" transform="matrix(6.5454547,0,0,-6.5454547,102.17819,204.58475)" fill="#000080"/>
<path transform="matrix(1,0,0,-1,-227.25,464.37477)" stroke-width=".72" stroke-linecap="round" stroke-linejoin="round" fill="none" stroke="#a10000" d="M355.68 280.08V276.48"/>
<path transform="matrix(1,0,0,-1,-227.25,464.37477)" stroke-width=".72" stroke-linecap="round" stroke-linejoin="round" fill="none" stroke="#a10000" d="M359.28 272.88H352.08"/>
<path transform="matrix(1,0,0,-1,-227.25,464.37477)" stroke-width=".72" stroke-linecap="round" stroke-linejoin="round" fill="none" stroke="#a10000" d="M355.68 272.88V276.48"/>
<use data-text="V" xlink:href="#font_4_55" transform="matrix(6.5454547,0,0,-6.5454547,121.51999,197.38477)" fill="#000080"/>
<use data-text="C" xlink:href="#font_4_36" transform="matrix(6.5454547,0,0,-6.5454547,125.8858,197.38477)" fill="#000080"/>
<use data-text="C" xlink:href="#font_4_36" transform="matrix(6.5454547,0,0,-6.5454547,130.61164,197.38477)" fill="#000080"/>
<path transform="matrix(1,0,0,-1,-227.25,464.37477)" stroke-width=".72" stroke-linecap="round" stroke-linejoin="round" fill="none" stroke="#000000" d="M326.88 280.08V298.08"/>
<path transform="matrix(1,0,0,-1,-227.25,464.37477)" stroke-width=".72" stroke-linecap="round" stroke-linejoin="round" fill="none" stroke="#000000" d="M326.88 280.08V298.08"/>
<path transform="matrix(1,0,0,-1,-227.25,464.37477)" stroke-width=".72" stroke-linecap="round" stroke-linejoin="round" fill="none" stroke="#ff0000" d="M355.68 280.08V298.08"/>
<path transform="matrix(1,0,0,-1,-227.25,464.37477)" stroke-width=".72" stroke-linecap="round" stroke-linejoin="round" fill="none" stroke="#ff0000" d="M355.68 280.08V298.08"/>
<path transform="matrix(1,0,0,-1,-227.25,464.37477)" stroke-width=".72" stroke-linecap="round" stroke-linejoin="round" fill="none" stroke="#a10000" d="M287.28 460.08H280.08"/>
<path transform="matrix(1,0,0,-1,-227.25,464.37477)" stroke-width=".72" stroke-linecap="round" stroke-linejoin="round" fill="none" stroke="#a10000" d="M280.08 460.08 272.88 463.68H258.48V456.48H272.88L280.08 460.08"/>
<use data-text="L" xlink:href="#font_4_45" transform="matrix(6.5454547,0,0,-6.5454547,0,6.5847475)" fill="#0000ff"/>
<use data-text="C" xlink:href="#font_4_36" transform="matrix(6.5454547,0,0,-6.5454547,3.639267,6.5847475)" fill="#0000ff"/>
<use data-text="D" xlink:href="#font_4_37" transform="matrix(6.5454547,0,0,-6.5454547,8.365082,6.5847475)" fill="#0000ff"/>
<use data-text="_" xlink:href="#font_4_64" transform="matrix(6.5454547,0,0,-6.5454547,13.090897,6.5847475)" fill="#0000ff"/>
<use data-text="R" xlink:href="#font_4_51" transform="matrix(6.5454547,0,0,-6.5454547,16.730164,6.5847475)" fill="#0000ff"/>
<use data-text="W" xlink:href="#font_4_56" transform="matrix(6.5454547,0,0,-6.5454547,21.455979,6.5847475)" fill="#0000ff"/>
<path transform="matrix(1,0,0,-1,-227.25,464.37477)" stroke-width=".72" stroke-linecap="round" stroke-linejoin="round" fill="none" stroke="#a10000" d="M578.88 257.04V251.28"/>
<path transform="matrix(1,0,0,-1,-227.25,464.37477)" stroke-width=".72" stroke-linecap="round" stroke-linejoin="round" fill="none" stroke="#a10000" d="M578.88 272.88V265.68"/>
<path transform="matrix(1,0,0,-1,-227.25,464.37477)" stroke-width=".72" stroke-linecap="round" stroke-linejoin="round" fill="none" stroke="#a10000" d="M573.12 259.92H584.64"/>
<path transform="matrix(1,0,0,-1,-227.25,464.37477)" stroke-width=".72" stroke-linecap="round" stroke-linejoin="round" fill="none" stroke="#a10000" d="M578.88 265.68V259.92"/>
<path transform="matrix(1,0,0,-1,-227.25,464.37477)" stroke-width=".72" stroke-linecap="round" stroke-linejoin="round" fill="none" stroke="#a10000" d="M578.88 244.08V251.28"/>
<path transform="matrix(1,0,0,-1,-227.25,464.37477)" stroke-width=".72" stroke-linecap="round" stroke-linejoin="round" fill="none" stroke="#a10000" d="M584.64 257.04H573.12"/>
<use data-text="1" xlink:href="#font_4_18" transform="matrix(4.909091,0,0,-4.909091,333.63,201.31476)" fill="#000080"/>
<use data-text="0" xlink:href="#font_4_17" transform="matrix(4.909091,0,0,-4.909091,336.35945,201.31476)" fill="#000080"/>
<use data-text="0" xlink:href="#font_4_17" transform="matrix(4.909091,0,0,-4.909091,339.08888,201.31476)" fill="#000080"/>
<use data-text="n" xlink:href="#font_4_79" transform="matrix(4.909091,0,0,-4.909091,341.8183,201.31476)" fill="#000080"/>
<use data-text="F" xlink:href="#font_4_39" transform="matrix(4.909091,0,0,-4.909091,344.54774,201.31476)" fill="#000080"/>
<path transform="matrix(1,0,0,-1,-227.25,464.37477)" stroke-width=".72" stroke-linecap="round" stroke-linejoin="round" fill="none" stroke="#a10000" d="M600.48 257.04V251.28"/>
<path transform="matrix(1,0,0,-1,-227.25,464.37477)" stroke-width=".72" stroke-linecap="round" stroke-linejoin="round" fill="none" stroke="#a10000" d="M600.48 272.88V265.68"/>
<path transform="matrix(1,0,0,-1,-227.25,464.37477)" stroke-width=".72" stroke-linecap="round" stroke-linejoin="round" fill="none" stroke="#a10000" d="M594.72 259.92H606.24"/>
<path transform="matrix(1,0,0,-1,-227.25,464.37477)" stroke-width=".72" stroke-linecap="round" stroke-linejoin="round" fill="none" stroke="#a10000" d="M600.48 265.68V259.92"/>
<path transform="matrix(1,0,0,-1,-227.25,464.37477)" stroke-width=".72" stroke-linecap="round" stroke-linejoin="round" fill="none" stroke="#a10000" d="M600.48 244.08V251.28"/>
<path transform="matrix(1,0,0,-1,-227.25,464.37477)" stroke-width=".72" stroke-linecap="round" stroke-linejoin="round" fill="none" stroke="#a10000" d="M606.24 257.04H594.72"/>
<use data-text="1" xlink:href="#font_4_18" transform="matrix(4.909091,0,0,-4.909091,376.83003,201.31476)" fill="#000080"/>
<use data-text="0" xlink:href="#font_4_17" transform="matrix(4.909091,0,0,-4.909091,379.55946,201.31476)" fill="#000080"/>
<use data-text="0" xlink:href="#font_4_17" transform="matrix(4.909091,0,0,-4.909091,382.28889,201.31476)" fill="#000080"/>
<use data-text="n" xlink:href="#font_4_79" transform="matrix(4.909091,0,0,-4.909091,385.0183,201.31476)" fill="#000080"/>
<use data-text="F" xlink:href="#font_4_39" transform="matrix(4.909091,0,0,-4.909091,387.74775,201.31476)" fill="#000080"/>
<path transform="matrix(1,0,0,-1,-227.25,464.37477)" stroke-width=".72" stroke-linecap="round" stroke-linejoin="round" fill="none" stroke="#a10000" d="M589.68 236.88V233.28"/>
<path transform="matrix(1,0,0,-1,-227.25,464.37477)" stroke-width=".72" stroke-linecap="round" stroke-linejoin="round" fill="none" stroke="#a10000" d="M593.28 229.68H586.08"/>
<path transform="matrix(1,0,0,-1,-227.25,464.37477)" stroke-width=".72" stroke-linecap="round" stroke-linejoin="round" fill="none" stroke="#a10000" d="M589.68 229.68V233.28"/>
<use data-text="V" xlink:href="#font_4_55" transform="matrix(6.5454547,0,0,-6.5454547,355.52003,240.58477)" fill="#000080"/>
<use data-text="C" xlink:href="#font_4_36" transform="matrix(6.5454547,0,0,-6.5454547,359.88587,240.58477)" fill="#000080"/>
<use data-text="C" xlink:href="#font_4_36" transform="matrix(6.5454547,0,0,-6.5454547,364.6117,240.58477)" fill="#000080"/>
<path transform="matrix(1,0,0,-1,-227.25,464.37477)" stroke-width=".72" stroke-linecap="round" stroke-linejoin="round" fill="none" stroke="#a10000" d="M589.68 280.08V287.28"/>
<path transform="matrix(1,0,0,-1,-227.25,464.37477)" stroke-width=".72" stroke-linecap="round" stroke-linejoin="round" fill="none" stroke="#a10000" d="M596.88 287.28H582.48L589.68 294.48 596.88 287.28"/>
<use data-text="G" xlink:href="#font_4_40" transform="matrix(6.5454547,0,0,-6.5454547,355.15998,168.58475)" fill="#000080"/>
<use data-text="N" xlink:href="#font_4_47" transform="matrix(6.5454547,0,0,-6.5454547,360.25233,168.58475)" fill="#000080"/>
<use data-text="D" xlink:href="#font_4_37" transform="matrix(6.5454547,0,0,-6.5454547,364.97816,168.58475)" fill="#000080"/>
<path transform="matrix(1,0,0,-1,-227.25,464.37477)" stroke-width=".72" stroke-linecap="round" stroke-linejoin="round" fill="none" stroke="#ff0000" d="M589.68 236.88V240.48"/>
<path transform="matrix(1,0,0,-1,-227.25,464.37477)" stroke-width=".72" stroke-linecap="round" stroke-linejoin="round" fill="none" stroke="#ff0000" d="M589.68 240.48H578.88"/>
<path transform="matrix(1,0,0,-1,-227.25,464.37477)" stroke-width=".72" stroke-linecap="round" stroke-linejoin="round" fill="none" stroke="#ff0000" d="M578.88 240.48V244.08"/>
<path transform="matrix(1,0,0,-1,-227.25,464.37477)" stroke-width=".72" stroke-linecap="round" stroke-linejoin="round" fill="none" stroke="#ff0000" d="M600.48 240.48H589.68"/>
<path transform="matrix(1,0,0,-1,-227.25,464.37477)" stroke-width=".72" stroke-linecap="round" stroke-linejoin="round" fill="none" stroke="#ff0000" d="M600.48 244.08V240.48"/>
<path transform="matrix(1,0,0,-1,-227.25,464.37477)" stroke-width=".72" stroke-linecap="round" stroke-linejoin="round" fill="none" stroke="#ff0000" d="M589.68 236.88V240.48"/>
<path transform="matrix(1,0,0,-1,-227.25,464.37477)" stroke-width=".72" stroke-linecap="round" stroke-linejoin="round" fill="none" stroke="#ff0000" d="M589.68 240.48H578.88"/>
<path transform="matrix(1,0,0,-1,-227.25,464.37477)" stroke-width=".72" stroke-linecap="round" stroke-linejoin="round" fill="none" stroke="#ff0000" d="M578.88 240.48V244.08"/>
<path transform="matrix(1,0,0,-1,-227.25,464.37477)" stroke-width=".72" stroke-linecap="round" stroke-linejoin="round" fill="none" stroke="#ff0000" d="M600.48 240.48H589.68"/>
<path transform="matrix(1,0,0,-1,-227.25,464.37477)" stroke-width=".72" stroke-linecap="round" stroke-linejoin="round" fill="none" stroke="#ff0000" d="M600.48 244.08V240.48"/>
<path transform="matrix(1,0,0,-1,-227.25,464.37477)" stroke-width=".72" stroke-linecap="round" stroke-linejoin="round" fill="none" stroke="#000000" d="M600.48 272.88V276.48"/>
<path transform="matrix(1,0,0,-1,-227.25,464.37477)" stroke-width=".72" stroke-linecap="round" stroke-linejoin="round" fill="none" stroke="#000000" d="M600.48 276.48H589.68"/>
<path transform="matrix(1,0,0,-1,-227.25,464.37477)" stroke-width=".72" stroke-linecap="round" stroke-linejoin="round" fill="none" stroke="#000000" d="M589.68 280.08V276.48"/>
<path transform="matrix(1,0,0,-1,-227.25,464.37477)" stroke-width=".72" stroke-linecap="round" stroke-linejoin="round" fill="none" stroke="#000000" d="M578.88 276.48H589.68"/>
<path transform="matrix(1,0,0,-1,-227.25,464.37477)" stroke-width=".72" stroke-linecap="round" stroke-linejoin="round" fill="none" stroke="#000000" d="M578.88 276.48V272.88"/>
<path transform="matrix(1,0,0,-1,-227.25,464.37477)" stroke-width=".72" stroke-linecap="round" stroke-linejoin="round" fill="none" stroke="#000000" d="M600.48 272.88V276.48"/>
<path transform="matrix(1,0,0,-1,-227.25,464.37477)" stroke-width=".72" stroke-linecap="round" stroke-linejoin="round" fill="none" stroke="#000000" d="M600.48 276.48H589.68"/>
<path transform="matrix(1,0,0,-1,-227.25,464.37477)" stroke-width=".72" stroke-linecap="round" stroke-linejoin="round" fill="none" stroke="#000000" d="M589.68 280.08V276.48"/>
<path transform="matrix(1,0,0,-1,-227.25,464.37477)" stroke-width=".72" stroke-linecap="round" stroke-linejoin="round" fill="none" stroke="#000000" d="M578.88 276.48H589.68"/>
<path transform="matrix(1,0,0,-1,-227.25,464.37477)" stroke-width=".72" stroke-linecap="round" stroke-linejoin="round" fill="none" stroke="#000000" d="M578.88 276.48V272.88"/>
<path transform="matrix(1,0,0,-1,-227.25,464.37477)" d="M591.48 240.48C591.48 241.47 590.67 242.28 589.68 242.28 588.69 242.28 587.88 241.47 587.88 240.48 587.88 239.49 588.69 238.68 589.68 238.68 590.67 238.68 591.48 239.49 591.48 240.48" fill="#cc0000"/>
<path transform="matrix(1,0,0,-1,-227.25,464.37477)" d="M591.48 276.48C591.48 277.47 590.67 278.28 589.68 278.28 588.69 278.28 587.88 277.47 587.88 276.48 587.88 275.49 588.69 274.68 589.68 274.68 590.67 274.68 591.48 275.49 591.48 276.48" fill="#cc0000"/>
</g>
</g>
</svg>
