<svg xmlns="http://www.w3.org/2000/svg" xmlns:xlink="http://www.w3.org/1999/xlink" xmlns:inkscape="http://www.inkscape.org/namespaces/inkscape" version="1.1" width="222.00025" height="235.512" viewBox="0 0 222.00025 235.512">
<defs>
<clipPath id="clip_1">
<path transform="matrix(1,0,0,-1,-326.81,467.97474)" d="M326.81 232.46274H548.81027V467.97474H326.81Z"/>
</clipPath>
<clipPath id="clip_2">
<path transform="matrix(1,0,0,-1,-326.81,467.97474)" d="M0 0H848.16V599.76H0Z"/>
</clipPath>
<path id="font_3_18" d="M.34765626 0H.26171876V.4453125L.265625 .62109377 .1328125 .5078125 .0859375 .56640627 .2734375 .71484377H.34765626V0Z"/>
<path id="font_3_19" d="M.4921875 0H.046875V.078125L.29296876 .34375C.34765626 .40885417 .375 .47135417 .375 .53125 .375 .609375 .3359375 .6484375 .2578125 .6484375 .20572917 .6484375 .15494792 .62630209 .10546875 .58203127L.0546875 .640625C.1171875 .6953125 .18619792 .72265627 .26171876 .72265627 .3971354 .72265627 .46484376 .66015627 .46484376 .53515627 .46484376 .4596354 .4075521 .3580729 .29296876 .23046875L.15625 .0859375V.08203125H.4921875V0Z"/>
<path id="font_3_20" d="M.31640626 .375C.43359376 .359375 .4921875 .30208335 .4921875 .203125 .4921875 .0625 .4049479-.0078125 .23046875-.0078125 .14973958-.0078125 .0859375 .00390625 .0390625 .02734375V.11328125C.098958339 .08203125 .16145833 .06640625 .2265625 .06640625 .34114585 .06640625 .3984375 .11328125 .3984375 .20703125 .3984375 .2903646 .33854167 .33203126 .21875 .33203126H.1484375V.40625H.19921875C.3190104 .40625 .37890626 .4518229 .37890626 .54296877 .37890626 .61328127 .33854167 .6484375 .2578125 .6484375 .19791667 .6484375 .14192708 .62890627 .08984375 .58984377L.04296875 .65234377C.102864589 .69921877 .17447917 .72265627 .2578125 .72265627 .3984375 .72265627 .46875 .6640625 .46875 .546875 .46875 .453125 .41796876 .39583335 .31640626 .375Z"/>
<path id="font_3_21" d="M.53125 .16015625H.42578126V0H.33984376V.16015625H.01171875V.23828125L.3359375 .71875H.42578126V.2421875H.53125V.16015625M.33984376 .2421875 .34765626 .625H.34375C.33072917 .5885417 .24869792 .4609375 .09765625 .2421875H.33984376Z"/>
<path id="font_3_22" d="M.0625 .02734375V.11328125C.109375 .08203125 .16927083 .06640625 .2421875 .06640625 .34895835 .06640625 .40234376 .1171875 .40234376 .21875 .40234376 .31510417 .34635417 .36328126 .234375 .36328126L.125 .3515625 .078125 .37890626 .10546875 .71484377H.44140626V.6328125H.18359375L.1640625 .4296875 .265625 .4375C.3359375 .4375 .3919271 .41861979 .43359376 .38085938 .4752604 .34309898 .49609376 .29296876 .49609376 .23046875 .49609376 .071614589 .41015626-.0078125 .23828125-.0078125 .16536458-.0078125 .106770839 .00390625 .0625 .02734375Z"/>
<path id="font_3_23" d="M.453125 .71484377V.640625L.37109376 .65234377C.22526042 .65234377 .14973958 .55598959 .14453125 .36328126H.15234375C.18359375 .41796876 .23307292 .4453125 .30078126 .4453125 .4361979 .4453125 .50390627 .3736979 .50390627 .23046875 .50390627 .071614589 .43229167-.0078125 .2890625-.0078125 .1328125-.0078125 .0546875 .096354167 .0546875 .3046875 .0546875 .5833333 .15885417 .72265627 .3671875 .72265627L.453125 .71484377M.2890625 .37890626C.24739583 .37890626 .21289063 .36523438 .18554688 .33789063 .15820313 .31054688 .14453125 .2799479 .14453125 .24609375 .14453125 .19401042 .15820313 .15104167 .18554688 .1171875 .21289063 .083333339 .24739583 .06640625 .2890625 .06640625 .375 .06640625 .41796876 .12109375 .41796876 .23046875 .41796876 .3294271 .375 .37890626 .2890625 .37890626Z"/>
<path id="font_3_34" d="M.515625 0 .4375 .22265625H.171875L.09375 0H0L.26171876 .71875H.34375L.609375 0H.515625M.41015626 .30078126C.3450521 .4830729 .30989585 .58984377 .3046875 .62109377L.26953126 .5078125 .19921875 .30078126H.41015626Z"/>
<path id="font_3_35" d="M.09765625 .71484377H.29296876C.4622396 .71484377 .546875 .65494796 .546875 .53515627 .546875 .4466146 .4986979 .39453126 .40234376 .37890626V.375C.51171877 .35677085 .56640627 .30078126 .56640627 .20703125 .56640627 .069010417 .4830729 0 .31640626 0H.09765625V.71484377M.1875 .41015626H.30859376C.4049479 .41015626 .453125 .44921876 .453125 .52734377 .453125 .60026046 .40104167 .63671877 .296875 .63671877H.1875V.41015626M.1875 .3359375V.078125H.31640626C.41796876 .078125 .46875 .122395839 .46875 .2109375 .46875 .29427085 .41666667 .3359375 .3125 .3359375H.1875Z"/>
<path id="font_3_36" d="M.546875 .09765625V.01953125C.5 .0013020834 .44140626-.0078125 .37109376-.0078125 .16536458-.0078125 .0625 .114583339 .0625 .359375 .0625 .47395835 .091796878 .56315109 .15039063 .6269531 .20898438 .6907552 .2877604 .72265627 .38671876 .72265627 .4596354 .72265627 .52213546 .70963546 .57421877 .68359377L.53515627 .60546877C.4856771 .63151046 .4361979 .64453127 .38671876 .64453127 .3190104 .64453127 .26367188 .6191406 .22070313 .5683594 .17773438 .5175781 .15625 .4466146 .15625 .35546876 .15625 .16536458 .23307292 .0703125 .38671876 .0703125 .4283854 .0703125 .48177085 .079427089 .546875 .09765625Z"/>
<path id="font_3_37" d="M.09765625 0V.71484377H.296875C.3984375 .71484377 .47851563 .6842448 .5371094 .6230469 .5957031 .56184896 .625 .4752604 .625 .36328126 .625 .12109375 .5026042 0 .2578125 0H.09765625M.1875 .63671877V.078125H.265625C.44010417 .078125 .52734377 .171875 .52734377 .359375 .52734377 .5416667 .44921876 .63411459 .29296876 .63671877H.1875Z"/>
<path id="font_4_18" d="M.25898744 .5149994V0H.34700013V.72299197H.2889862C.2579956 .6119995 .23799134 .5970001 .101989749 .57899478V.5149994H.25898744Z"/>
<path id="font_4_76" d="M.14099121 .72898867H.057998659V0H.14099121V.20399475L.22200012 .28399659 .39898683 0H.5019989L.28799439 .34298707 .46998597 .5239868H.36299134L.14099121 .3019867V.72898867Z"/>
<path id="font_5_473" d="M.328125 .0703125V0H.0390625V.08203125H.2109375C.111979167 .15755208 .0625 .2643229 .0625 .40234376 .0625 .50390627 .08984375 .5833333 .14453125 .640625 .19921875 .6979167 .2747396 .7265625 .37109376 .7265625 .4674479 .7265625 .54296877 .6979167 .59765627 .640625 .65234377 .5833333 .6796875 .50390627 .6796875 .40234376 .6796875 .2643229 .63151046 .15755208 .53515627 .08203125H.70703127V0H.41796876V.0703125C.52994796 .14583333 .5859375 .2565104 .5859375 .40234376 .5859375 .56380209 .51432296 .64453127 .37109376 .64453127 .23046875 .64453127 .16015625 .56380209 .16015625 .40234376 .16015625 .2565104 .21614583 .14583333 .328125 .0703125Z"/>
<path id="font_4_21" d="M.32699586 .1749878V0H.4149933V.1749878H.519989V.2539978H.4149933V.72299197H.34999085L.027999878 .2679901V.1749878H.32699586M.32699586 .2539978H.10499573L.32699586 .57299807V.2539978Z"/>
<path id="font_4_20" d="M.22099304 .33299256H.23199463 .2689972C.36499024 .33299256 .41600038 .28799439 .41600038 .20098877 .41600038 .10998535 .36099244 .054992677 .269989 .054992677 .17298889 .054992677 .12599182 .10398865 .11999512 .20999146H.03199768C.035995485 .1519928 .04598999 .11399841 .06298828 .08198547 .099990848 .011993408 .16899109-.023010254 .2659912-.023010254 .4119873-.023010254 .5059967 .06498718 .5059967 .20199585 .5059967 .2939911 .47099305 .34399415 .38598634 .37399293 .45199586 .40098573 .4850006 .45098878 .4850006 .5239868 .4850006 .647995 .4039917 .72299197 .2689972 .72299197 .12599182 .72299197 .049987794 .6429901 .04699707 .48999024H.1349945C.13598633 .5339966 .13999939 .5589905 .15098572 .58099368 .17098999 .621994 .21499634 .6459961 .269989 .6459961 .34799195 .6459961 .394989 .598999 .394989 .5209961 .394989 .46998597 .3769989 .43899537 .33799745 .42199708 .31399537 .4119873 .28199769 .4079895 .22099304 .40699769V.33299256Z"/>
<path id="font_4_19" d="M.5059967 .08699036H.1329956C.14199829 .14698792 .17399597 .18499756 .26098634 .23799134L.36099244 .2939911C.45999146 .34899903 .5109863 .4229889 .5109863 .5119934 .5109863 .57199099 .4869995 .6279907 .44499208 .6669922 .40299989 .7049866 .35099793 .72299197 .28399659 .72299197 .19400025 .72299197 .1269989 .69099429 .08799744 .6289978 .06298828 .59098818 .051986696 .54599 .049987794 .47299195H.13798523C.14099121 .5219879 .14698792 .5509949 .15899658 .57499697 .18199158 .61898806 .22799683 .6459961 .2809906 .6459961 .36099244 .6459961 .42099 .58799746 .42099 .5099945 .42099 .45199586 .3880005 .4019928 .32499696 .3659973L.23298645 .31199647C.084991458 .22698975 .041992189 .15899658 .033996583 .0009918213H.5059967V.08699036Z"/>
<path id="font_4_49" d="M.18399048 .30899049H.41299439C.46998597 .30899049 .5149994 .32598878 .55400088 .36099244 .59799197 .40098573 .61698916 .44799806 .61698916 .5149994 .61698916 .6519928 .5359955 .72898867 .3919983 .72898867H.09098816V0H.18399048V.30899049M.18399048 .3909912V.6469879H.37799073C.46699525 .6469879 .519989 .598999 .519989 .5189972 .519989 .43899537 .46699525 .3909912 .37799073 .3909912H.18399048Z"/>
<path id="font_4_86" d="M.48199464 0V.5239868H.39898683V.22698975C.39898683 .11999512 .34298707 .049987794 .2559967 .049987794 .18998719 .049987794 .147995 .08999634 .147995 .15299988V.5239868H.06498718V.11999512C.06498718 .032989503 .12998963-.023010254 .23199463-.023010254 .30899049-.023010254 .35798646 .0039978029 .40699769 .07299805V0H.48199464Z"/>
<path id="font_4_84" d="M.43798829 .37799073C.43699647 .48098756 .36898805 .5389862 .24798584 .5389862 .12599182 .5389862 .04699707 .47599793 .04699707 .3789978 .04699707 .29699708 .08898926 .2579956 .21299744 .22799683L.29100038 .20899964C.34899903 .19499207 .37199403 .17399597 .37199403 .13699341 .37199403 .08699036 .32299806 .053985597 .25 .053985597 .20498657 .053985597 .16699219 .066986087 .1459961 .08898926 .1329956 .10398865 .1269989 .11898804 .12199402 .1559906H.033996583C.037994386 .034988405 .10598755-.023010254 .24299622-.023010254 .375-.023010254 .45899964 .041992189 .45899964 .14299011 .45899964 .22099304 .4149933 .2639923 .31098939 .2889862L.23098755 .30799867C.16299439 .32398988 .13398743 .34599305 .13398743 .3829956 .13398743 .43199159 .1769867 .46199037 .24499512 .46199037 .31199647 .46199037 .34799195 .43299867 .34999085 .37799073H.43798829Z"/>
<path id="font_4_73" d="M.069992069 .72898867V0H.15299988V.2889862C.15299988 .3959961 .20899964 .46598817 .29499818 .46598817 .32299806 .46598817 .34899903 .45799256 .36898805 .44299317 .3929901 .4249878 .40299989 .3999939 .40299989 .36299134V0H.48599244V.3959961C.48599244 .48399354 .4229889 .5389862 .32099916 .5389862 .24699402 .5389862 .20199585 .5159912 .15299988 .45199586V.72898867H.069992069Z"/>
<path id="font_4_35" d="M.07899475 0H.4079895C.47698976 0 .5279999 .018997193 .5669861 .06098938 .6029968 .09899902 .6230011 .15098572 .6230011 .20799256 .6230011 .29599 .58299258 .34899903 .48999024 .3849945 .5569916 .41600038 .59098818 .46899415 .59098818 .5439911 .59098818 .59799197 .57099917 .6439972 .5329895 .6779938 .49398805 .71299746 .44499208 .72898867 .375 .72898867H.07899475V0M.17199707 .4149933V.6469879H.35198976C.4039917 .6469879 .43299867 .6399994 .45799256 .62098696 .48399354 .6009979 .49798585 .57099917 .49798585 .5309906 .49798585 .4909973 .48399354 .46099855 .45799256 .44099427 .43299867 .42199708 .4039917 .4149933 .35198976 .4149933H.17199707M.17199707 .08198547V.33299256H.39898683C.48098756 .33299256 .5299988 .28599549 .5299988 .20698548 .5299988 .1289978 .48098756 .08198547 .39898683 .08198547H.17199707Z"/>
<path id="font_4_85" d="M.2539978 .5239868H.16799927V.66799929H.084991458V.5239868H.01399231V.45599366H.084991458V.05999756C.084991458 .005996704 .12098694-.023010254 .18598938-.023010254 .20799256-.023010254 .22599793-.021011353 .2539978-.01600647V.053985597C.24198914 .050994874 .23098755 .049987794 .21398926 .049987794 .17799378 .049987794 .16799927 .05999756 .16799927 .09700012V.45599366H.2539978V.5239868Z"/>
<path id="font_4_80" d="M.27198792 .5389862C.12399292 .5389862 .035995485 .43399049 .035995485 .2579956 .035995485 .08099365 .12399292-.023010254 .272995-.023010254 .42099-.023010254 .5099945 .08198547 .5099945 .2539978 .5099945 .43598939 .42399598 .5389862 .27198792 .5389862M.272995 .46199037C.36698915 .46199037 .4229889 .3849945 .4229889 .25498963 .4229889 .1309967 .36499024 .053985597 .272995 .053985597 .17999268 .053985597 .12298584 .1309967 .12298584 .2579956 .12298584 .3849945 .17999268 .46199037 .272995 .46199037Z"/>
<path id="font_4_79" d="M.069992069 .5239868V0H.1539917V.2889862C.1539917 .3959961 .20999146 .46598817 .29599 .46598817 .3619995 .46598817 .4039917 .42599488 .4039917 .36299134V0H.4869995V.3959961C.4869995 .48298646 .42199708 .5389862 .32099916 .5389862 .24299622 .5389862 .19299317 .5089874 .14698792 .43598939V.5239868H.069992069Z"/>
<path id="font_4_40" d="M.70899966 .3849945H.40499879V.30299378H.6269989V.2829895C.6269989 .15299988 .5309906 .05899048 .397995 .05899048 .32398988 .05899048 .25698854 .085998538 .21398926 .1329956 .1659851 .18499756 .13699341 .27198792 .13699341 .3619995 .13699341 .54100039 .23899842 .6589966 .3929901 .6589966 .5039978 .6589966 .58399966 .60198977 .60398867 .5079956H.69898989C.6729889 .6559906 .5609894 .7409973 .3939972 .7409973 .30499269 .7409973 .23298645 .71798709 .17599488 .67099 .09098816 .6009979 .04399109 .48799134 .04399109 .35699464 .04399109 .1329956 .18099976-.023010254 .37799073-.023010254 .47698976-.023010254 .5549927 .01399231 .6269989 .09298706L.6499939-.0040130617H.70899966V.3849945Z"/>
<path id="font_4_47" d="M.6459961 .72898867H.55799868V.1329956L.1769867 .72898867H.07598877V0H.1639862V.59098818L.54100039 0H.6459961V.72898867Z"/>
<path id="font_4_37" d="M.08898926 0H.36999513C.55400088 0 .6669922 .13798523 .6669922 .36499024 .6669922 .59098818 .5549927 .72898867 .36999513 .72898867H.08898926V0M.18199158 .08198547V.6469879H.35398866C.49798585 .6469879 .57398989 .5499878 .57398989 .3639984 .57398989 .1789856 .49798585 .08198547 .35398866 .08198547H.18199158Z"/>
<path id="font_4_55" d="M.3919983 0 .644989 .72898867H.54599L.34399415 .11199951 .12998963 .72898867H.02999878L.2919922 0H.3919983Z"/>
<path id="font_4_36" d="M.6619873 .5029907C.6329956 .6629944 .54100039 .7409973 .3809967 .7409973 .2829895 .7409973 .20399475 .70999148 .1499939 .6499939 .083999637 .5779877 .04798889 .47399903 .04798889 .35598756 .04798889 .23599243 .084991458 .1329956 .15299988 .06199646 .20999146 .0039978029 .28199769-.023010254 .3769989-.023010254 .5549927-.023010254 .6549988 .07299805 .6769867 .2659912H.58099368C.57299807 .21598816 .5629883 .18199158 .5479889 .15299988 .5179901 .09298706 .45599366 .05899048 .37799073 .05899048 .23298645 .05899048 .14099121 .1749878 .14099121 .35699464 .14099121 .5439911 .22799683 .6589966 .36999513 .6589966 .42900086 .6589966 .48399354 .6419983 .5139923 .61299136 .54100039 .58799746 .55599978 .55799868 .5669861 .5029907H.6619873Z"/>
<path id="font_4_4" d="M.4850006 .69699099H.4079895L.37298585 .5009918H.24798584L.28399659 .69699099H.20799256L.17199707 .5009918H.050994874V.43299867H.15899658L.12799073 .25898744H.01399231V.19099427H.114990238L.07699585-.020004273H.15299988L.19198609 .19099427H.31599427L.27799989-.020004273H.35398866L.3929901 .19099427H.5099945V.25898744H.40499879L.43598939 .43299867H.5419922V.5009918H.44898988L.4850006 .69699099M.3600006 .43299867 .32899476 .25898744H.20399475L.23599243 .43299867H.3600006Z"/>
<path id="font_4_51" d="M.18598938 .31399537H.42599488C.5089874 .31399537 .54599 .27398683 .54599 .18399048L.54499819 .11898804C.54499819 .07398987 .5529938 .02999878 .56599429 0H.67900088V.022994996C.6439972 .04699707 .6369934 .07299805 .6349945 .16999817 .6339874 .2899933 .61499026 .32598878 .5359955 .3600006 .6179962 .40098573 .651001 .44999696 .651001 .5339966 .651001 .6599884 .57299807 .72898867 .42900086 .72898867H.09298706V0H.18598938V.31399537M.18598938 .3959961V.6469879H.41099549C.46299745 .6469879 .49299623 .6389923 .5159912 .61898806 .54100039 .59799197 .55400088 .5649872 .55400088 .5219879 .55400088 .43499757 .5099945 .3959961 .41099549 .3959961H.18598938Z"/>
<path id="font_4_52" d="M.59599307 .5149994C.59599307 .5649872 .59298709 .57899478 .57699587 .61299136 .5369873 .69699099 .45199586 .7409973 .32899476 .7409973 .16899109 .7409973 .069992069 .6589966 .069992069 .5269928 .069992069 .43798829 .116989139 .38198854 .21299744 .35699464L.3939972 .30899049C.4869995 .2849884 .5279999 .24798584 .5279999 .19099427 .5279999 .1519928 .5069885 .11199951 .47599793 .08999634 .44699098 .068984989 .40098573 .05899048 .34199525 .05899048 .2619934 .05899048 .20899964 .07798767 .17399597 .11999512 .14698792 .1519928 .1349945 .18699646 .13598633 .23199463H.04798889C.04899597 .16499329 .06199646 .12098694 .09098816 .08099365 .14099121 .011993408 .22499085-.023010254 .33599855-.023010254 .4229889-.023010254 .49398805-.0030059815 .54100039 .032989503 .58999636 .07199097 .62098696 .13699341 .62098696 .19999695 .62098696 .2899933 .5649872 .35598756 .46598817 .3829956L.2829895 .43199159C.19499207 .45599366 .16299439 .48399354 .16299439 .5399933 .16299439 .6139984 .22799683 .6629944 .32598878 .6629944 .44198609 .6629944 .5069885 .61099246 .5079956 .5149994H.59599307Z"/>
<path id="font_4_53" d="M.35398866 .6469879H.59298709V.72898867H.020996094V.6469879H.26098634V0H.35398866V.6469879Z"/>
<path id="font_4_42" d="M.19400025 .72898867H.099990848V0H.19400025V.72898867Z"/>
<path id="font_4_38" d="M.18299866 .33198548H.5799866V.4139862H.18299866V.6469879H.59498599V.72898867H.08999634V0H.61299136V.08198547H.18299866V.33198548Z"/>
<path id="font_4_48" d="M.3889923 .7409973C.17999268 .7409973 .037994386 .58699038 .037994386 .35899354 .037994386 .12998963 .1789856-.023010254 .3899994-.023010254 .47898866-.023010254 .5569916 .0039978029 .6159973 .053985597 .69499209 .12098694 .74198916 .23399353 .74198916 .35299684 .74198916 .58799746 .6029968 .7409973 .3889923 .7409973M.3889923 .6589966C.5469971 .6589966 .6489868 .5399933 .6489868 .35499574 .6489868 .1789856 .5439911 .05899048 .3899994 .05899048 .23399353 .05899048 .1309967 .1789856 .1309967 .35899354 .1309967 .5389862 .23399353 .6589966 .3889923 .6589966Z"/>
<path id="font_4_54" d="M.5519867 .72898867V.21699524C.5519867 .11898804 .48098756 .05899048 .3639984 .05899048 .30999757 .05899048 .2659912 .07199097 .23098755 .09700012 .19499207 .125 .17799378 .1619873 .17799378 .21699524V.72898867H.084991458V.21699524C.084991458 .068984989 .19099427-.023010254 .3639984-.023010254 .5349884-.023010254 .644989 .070999149 .644989 .21699524V.72898867H.5519867Z"/>
<path id="font_4_45" d="M.17298889 .72898867H.07998657V0H.5329895V.08198547H.17298889V.72898867Z"/>
<path id="font_4_16" d="M.22898865 .72898867-.008010864-.020004273H.04699707L.28399659 .72898867H.22898865Z"/>
<path id="font_4_22" d="M.47599793 .70899966H.10998535L.056991579 .32299806H.13798523C.1789856 .37199403 .21299744 .3889923 .2689972 .3889923 .3639984 .3889923 .4229889 .32398988 .4229889 .21899414 .4229889 .116989139 .3639984 .054992677 .2679901 .054992677 .19099427 .054992677 .14399719 .09399414 .12298584 .17399597H.034988405C.04699707 .115997318 .056991579 .08799744 .07798767 .06199646 .117996219 .0079956059 .18998719-.023010254 .269989-.023010254 .41299439-.023010254 .5130005 .08099365 .5130005 .23098755 .5130005 .37098695 .41999818 .46699525 .28399659 .46699525 .23399353 .46699525 .19400025 .45399476 .15299988 .42399598L.18099976 .621994H.47599793V.70899966Z"/>
<path id="font_4_41" d="M.5509949 .33198548V0H.6439972V.72898867H.5509949V.4139862H.17599488V.72898867H.08299255V0H.17599488V.33198548H.5509949Z"/>
<path id="font_4_23" d="M.49798585 .5349884C.48098756 .6529999 .40499879 .72299197 .29699708 .72299197 .21899414 .72299197 .14898682 .68499758 .10699463 .6199951 .06199646 .548996 .042999269 .46099855 .042999269 .32998658 .042999269 .20799256 .05999756 .1309967 .102996829 .066986087 .14099121 .0079956059 .20298767-.023010254 .2809906-.023010254 .41600038-.023010254 .5130005 .07798767 .5130005 .21899414 .5130005 .35198976 .4229889 .44599916 .29599 .44599916 .22599793 .44599916 .17098999 .41999818 .1329956 .36698915 .13398743 .54599 .18998719 .644989 .29100038 .644989 .35299684 .644989 .3959961 .6049957 .4099884 .5349884H.49798585M.2849884 .36799623C.36999513 .36799623 .4229889 .30799867 .4229889 .21199036 .4229889 .12098694 .36299134 .054992677 .28199769 .054992677 .19999695 .054992677 .13798523 .12399292 .13798523 .21598816 .13798523 .30599977 .19799805 .36799623 .2849884 .36799623Z"/>
<path id="font_4_34" d="M.47399903 .21899414 .548996 0H.6529999L.39698792 .72898867H.2769928L.016998291 0H.115997318L.19299317 .21899414H.47399903M.44799806 .29699708H.21598816L.33599855 .6289978 .44799806 .29699708Z"/>
<path id="font_4_24" d="M.519989 .70899966H.04598999V.621994H.42900086C.2599945 .3809967 .19099427 .23298645 .13798523 0H.23199463C.2709961 .22698975 .3600006 .42199708 .519989 .6349945V.70899966Z"/>
<path id="font_4_25" d="M.3909912 .3809967C.46499635 .42599488 .48799134 .46199037 .48799134 .5299988 .48799134 .6439972 .40098573 .72299197 .2749939 .72299197 .1499939 .72299197 .06199646 .6439972 .06199646 .5309906 .06199646 .46199037 .084991458 .4269867 .1579895 .3809967 .07699585 .33999635 .036987306 .2809906 .036987306 .20098877 .036987306 .068984989 .13398743-.023010254 .2749939-.023010254 .4149933-.023010254 .5130005 .068984989 .5130005 .20098877 .5130005 .2809906 .47299195 .33999635 .3909912 .3809967M.2749939 .644989C.34999085 .644989 .397995 .59999087 .397995 .5279999 .397995 .45999146 .34899903 .4149933 .2749939 .4149933 .19999695 .4149933 .1519928 .45999146 .1519928 .5299988 .1519928 .59999087 .19999695 .644989 .2749939 .644989M.2749939 .34098817C.36299134 .34098817 .4229889 .2829895 .4229889 .19898987 .4229889 .11199951 .3639984 .054992677 .272995 .054992677 .18699646 .054992677 .1269989 .11399841 .1269989 .19799805 .1269989 .28399659 .18598938 .34098817 .2749939 .34098817Z"/>
<path id="font_4_46" d="M.46798707 0 .6729889 .61099246V0H.7609863V.72898867H.6319885L.41999818 .09399414 .20399475 .72898867H.07499695V0H.16299439V.61099246L.36999513 0H.46798707Z"/>
<path id="font_4_17" d="M.2749939 .72299197C.20899964 .72299197 .14898682 .69299319 .11199951 .6439972 .06599426 .5799866 .042999269 .48399354 .042999269 .34999085 .042999269 .10598755 .12298584-.023010254 .2749939-.023010254 .4249878-.023010254 .5069885 .10598755 .5069885 .34399415 .5069885 .48399354 .4850006 .5779877 .43798829 .6439972 .40098573 .69400027 .34199525 .72299197 .2749939 .72299197M.2749939 .644989C.36999513 .644989 .4169922 .5479889 .4169922 .35198976 .4169922 .1459961 .37098695 .049987794 .272995 .049987794 .17999268 .049987794 .1329956 .1499939 .1329956 .34899903 .1329956 .5479889 .17999268 .644989 .2749939 .644989Z"/>
<path id="font_4_14" d="M.28399659 .31199647H.04598999V.23999024H.28399659V.31199647Z"/>
<path id="font_4_74" d="M.1499939 .5239868H.066986087V0H.1499939V.5239868M.1499939 .72898867H.06599426V.6239929H.1499939V.72898867Z"/>
<path id="font_4_78" d="M.069992069 .5239868V0H.1539917V.32899476C.1539917 .40499879 .20899964 .46598817 .2769928 .46598817 .33898927 .46598817 .37399293 .42799378 .37399293 .36099244V0H.45799256V.32899476C.45799256 .40499879 .5130005 .46598817 .58099368 .46598817 .6419983 .46598817 .6779938 .4269867 .6779938 .36099244V0H.7619934V.3929901C.7619934 .4869995 .70799258 .5389862 .6100006 .5389862 .5399933 .5389862 .49798585 .5179901 .44898988 .45899964 .41799928 .5149994 .37599183 .5389862 .30799867 .5389862 .23799134 .5389862 .19099427 .5130005 .14698792 .44999696V.5239868H.069992069Z"/>
<path id="font_4_70" d="M.5130005 .23399353C.5130005 .31399537 .5069885 .3619995 .49198915 .40098573 .45799256 .4869995 .37799073 .5389862 .27999879 .5389862 .13398743 .5389862 .039993287 .42799378 .039993287 .25498963 .039993287 .08198547 .12998963-.023010254 .27799989-.023010254 .397995-.023010254 .48098756 .04499817 .5019989 .15899658H.41799928C.394989 .08999634 .34799195 .053985597 .2809906 .053985597 .22799683 .053985597 .18299866 .07798767 .15499878 .12199402 .1349945 .1519928 .12799073 .18199158 .1269989 .23399353H.5130005M.1289978 .3019867C.13598633 .39898683 .19499207 .46199037 .2789917 .46199037 .3639984 .46199037 .4229889 .3959961 .4229889 .3019867H.1289978Z"/>
<path id="font_4_83" d="M.068984989 .5239868V0H.15299988V.27198792C.1539917 .397995 .20599365 .45399476 .32099916 .45098878V.5359955C.30699159 .5379944 .29899598 .5389862 .2889862 .5389862 .23498535 .5389862 .19400025 .5069885 .1459961 .42900086V.5239868H.068984989Z"/>
<path id="font_4_39" d="M.18299866 .33198548H.5309906V.4139862H.18299866V.6469879H.57899478V.72898867H.08999634V0H.18299866V.33198548Z"/>
<path id="font_4_69" d="M.49499513 .72898867H.4119873V.45799256C.3769989 .5109863 .32099916 .5389862 .25099183 .5389862 .114990238 .5389862 .025985718 .42999269 .025985718 .2630005 .025985718 .085998538 .11199951-.023010254 .2539978-.023010254 .32598878-.023010254 .37599183 .0039978029 .42099 .068984989V0H.49499513V.72898867M.2649994 .46099855C.35499574 .46099855 .4119873 .38198854 .4119873 .2559967 .4119873 .1349945 .35398866 .054992677 .2659912 .054992677 .17399597 .054992677 .11299133 .13598633 .11299133 .2579956 .11299133 .37998963 .17399597 .46099855 .2649994 .46099855Z"/>
<path id="font_4_67" d="M.053985597 .72898867V0H.1289978V.066986087C.16899109 .005996704 .22200012-.023010254 .29499818-.023010254 .43299867-.023010254 .522995 .08999634 .522995 .2639923 .522995 .43399049 .43798829 .5389862 .29899598 .5389862 .22698975 .5389862 .17599488 .5119934 .13699341 .45298768V.72898867H.053985597M.2829895 .46099855C.37599183 .46099855 .43598939 .37998963 .43598939 .25498963 .43598939 .13598633 .37399293 .054992677 .2829895 .054992677 .19400025 .054992677 .13699341 .1349945 .13699341 .2579956 .13699341 .3809967 .19400025 .46099855 .2829895 .46099855Z"/>
<path id="font_4_68" d="M.47099305 .34799195C.46699525 .39898683 .45599366 .43199159 .43598939 .46099855 .3999939 .5099945 .33699037 .5389862 .2639923 .5389862 .12199402 .5389862 .0309906 .4269867 .0309906 .25299073 .0309906 .083999637 .12098694-.023010254 .2630005-.023010254 .3880005-.023010254 .46699525 .051986696 .47698976 .17999268H.3929901C.3789978 .09599304 .33599855 .053985597 .2649994 .053985597 .17298889 .053985597 .117996219 .1289978 .117996219 .25299073 .117996219 .38398744 .17199707 .46199037 .2630005 .46199037 .33299256 .46199037 .3769989 .42099 .3869934 .34799195H.47099305Z"/>
<path id="font_4_1" d="M0 0Z"/>
</defs>
<g clip-path="url(#clip_1)">
<g clip-path="url(#clip_2)">
<path transform="matrix(1,0,0,-1,-326.81,467.97474)" d="M0 599.76H848.16V0H0Z" fill="#ffffff"/>
<path transform="matrix(1,0,0,-1,-326.81,467.97474)" stroke-width=".72" stroke-linecap="square" stroke-miterlimit="72" stroke-linejoin="miter" fill="none" stroke="#a10000" d="M2.88 596.88H845.28V2.880005H2.88Z"/>
<path transform="matrix(1,0,0,-1,-326.81,467.97474)" stroke-width=".72" stroke-linecap="square" stroke-miterlimit="72" stroke-linejoin="miter" fill="none" stroke="#a10000" d="M10.08 589.68H838.08V10.080017H10.08Z"/>
<use data-text="1" xlink:href="#font_3_18" transform="matrix(7.2,0,0,-7.2,-255.53,464.01475)" fill="#a00000"/>
<use data-text="1" xlink:href="#font_3_18" transform="matrix(7.2,0,0,-7.2,-255.53,-122.78528)" fill="#a00000"/>
<use data-text="2" xlink:href="#font_3_19" transform="matrix(7.2,0,0,-7.2,-115.130008,464.01475)" fill="#a00000"/>
<use data-text="2" xlink:href="#font_3_19" transform="matrix(7.2,0,0,-7.2,-115.130008,-122.78528)" fill="#a00000"/>
<use data-text="3" xlink:href="#font_3_20" transform="matrix(7.2,0,0,-7.2,25.269989,464.01475)" fill="#a00000"/>
<use data-text="3" xlink:href="#font_3_20" transform="matrix(7.2,0,0,-7.2,25.269989,-122.78528)" fill="#a00000"/>
<use data-text="4" xlink:href="#font_3_21" transform="matrix(7.2,0,0,-7.2,165.67002,464.01475)" fill="#a00000"/>
<use data-text="4" xlink:href="#font_3_21" transform="matrix(7.2,0,0,-7.2,165.67002,-122.78528)" fill="#a00000"/>
<use data-text="5" xlink:href="#font_3_22" transform="matrix(7.2,0,0,-7.2,306.07,464.01475)" fill="#a00000"/>
<use data-text="5" xlink:href="#font_3_22" transform="matrix(7.2,0,0,-7.2,306.07,-122.78528)" fill="#a00000"/>
<use data-text="6" xlink:href="#font_3_23" transform="matrix(7.2,0,0,-7.2,446.47004,464.01475)" fill="#a00000"/>
<use data-text="6" xlink:href="#font_3_23" transform="matrix(7.2,0,0,-7.2,446.47004,-122.78528)" fill="#a00000"/>
<use data-text="A" xlink:href="#font_3_34" transform="matrix(7.2,0,0,-7.2,-322.13,-52.135255)" fill="#a00000"/>
<use data-text="A" xlink:href="#font_3_34" transform="matrix(7.2,0,0,-7.2,513.07,-52.135255)" fill="#a00000"/>
<use data-text="B" xlink:href="#font_3_35" transform="matrix(7.2,0,0,-7.2,-322.13,96.364749)" fill="#a00000"/>
<use data-text="B" xlink:href="#font_3_35" transform="matrix(7.2,0,0,-7.2,513.07,96.364749)" fill="#a00000"/>
<use data-text="C" xlink:href="#font_3_36" transform="matrix(7.2,0,0,-7.2,-322.13,244.86473)" fill="#a00000"/>
<use data-text="C" xlink:href="#font_3_36" transform="matrix(7.2,0,0,-7.2,513.07,244.86473)" fill="#a00000"/>
<use data-text="D" xlink:href="#font_3_37" transform="matrix(7.2,0,0,-7.2,-322.13,393.36476)" fill="#a00000"/>
<use data-text="D" xlink:href="#font_3_37" transform="matrix(7.2,0,0,-7.2,513.07,393.36476)" fill="#a00000"/>
<path transform="matrix(1,0,0,-1,-326.81,467.97474)" stroke-width=".72" stroke-linecap="round" stroke-linejoin="round" fill="none" stroke="#a10000" d="M143.28 2.88V10.08"/>
<path transform="matrix(1,0,0,-1,-326.81,467.97474)" stroke-width=".72" stroke-linecap="round" stroke-linejoin="round" fill="none" stroke="#a10000" d="M143.28 596.88V589.68"/>
<path transform="matrix(1,0,0,-1,-326.81,467.97474)" stroke-width=".72" stroke-linecap="round" stroke-linejoin="round" fill="none" stroke="#a10000" d="M283.68 2.88V10.08"/>
<path transform="matrix(1,0,0,-1,-326.81,467.97474)" stroke-width=".72" stroke-linecap="round" stroke-linejoin="round" fill="none" stroke="#a10000" d="M283.68 596.88V589.68"/>
<path transform="matrix(1,0,0,-1,-326.81,467.97474)" stroke-width=".72" stroke-linecap="round" stroke-linejoin="round" fill="none" stroke="#a10000" d="M424.08 2.88V10.08"/>
<path transform="matrix(1,0,0,-1,-326.81,467.97474)" stroke-width=".72" stroke-linecap="round" stroke-linejoin="round" fill="none" stroke="#a10000" d="M424.08 596.88V589.68"/>
<path transform="matrix(1,0,0,-1,-326.81,467.97474)" stroke-width=".72" stroke-linecap="round" stroke-linejoin="round" fill="none" stroke="#a10000" d="M564.48 2.88V10.08"/>
<path transform="matrix(1,0,0,-1,-326.81,467.97474)" stroke-width=".72" stroke-linecap="round" stroke-linejoin="round" fill="none" stroke="#a10000" d="M564.48 596.88V589.68"/>
<path transform="matrix(1,0,0,-1,-326.81,467.97474)" stroke-width=".72" stroke-linecap="round" stroke-linejoin="round" fill="none" stroke="#a10000" d="M704.88 2.88V10.08"/>
<path transform="matrix(1,0,0,-1,-326.81,467.97474)" stroke-width=".72" stroke-linecap="round" stroke-linejoin="round" fill="none" stroke="#a10000" d="M704.88 596.88V589.68"/>
<path transform="matrix(1,0,0,-1,-326.81,467.97474)" stroke-width=".72" stroke-linecap="round" stroke-linejoin="round" fill="none" stroke="#a10000" d="M2.88 448.38H10.08"/>
<path transform="matrix(1,0,0,-1,-326.81,467.97474)" stroke-width=".72" stroke-linecap="round" stroke-linejoin="round" fill="none" stroke="#a10000" d="M845.28 448.38H838.08"/>
<path transform="matrix(1,0,0,-1,-326.81,467.97474)" stroke-width=".72" stroke-linecap="round" stroke-linejoin="round" fill="none" stroke="#a10000" d="M2.88 299.88H10.08"/>
<path transform="matrix(1,0,0,-1,-326.81,467.97474)" stroke-width=".72" stroke-linecap="round" stroke-linejoin="round" fill="none" stroke="#a10000" d="M845.28 299.88H838.08"/>
<path transform="matrix(1,0,0,-1,-326.81,467.97474)" stroke-width=".72" stroke-linecap="round" stroke-linejoin="round" fill="none" stroke="#a10000" d="M2.88 151.38H10.08"/>
<path transform="matrix(1,0,0,-1,-326.81,467.97474)" stroke-width=".72" stroke-linecap="round" stroke-linejoin="round" fill="none" stroke="#a10000" d="M845.28 151.38H838.08"/>
<path transform="matrix(1,0,0,-1,-326.81,467.97474)" stroke-width=".72" stroke-linecap="square" stroke-miterlimit="72" stroke-linejoin="miter" fill="none" stroke="#a10000" d="M409.68 326.88H416.88V312.48H409.68Z"/>
<path transform="matrix(1,0,0,-1,-326.81,467.97474)" stroke-width=".72" stroke-linecap="round" stroke-linejoin="round" fill="none" stroke="#a10000" d="M413.28 305.28V312.48"/>
<path transform="matrix(1,0,0,-1,-326.81,467.97474)" stroke-width=".72" stroke-linecap="round" stroke-linejoin="round" fill="none" stroke="#a10000" d="M413.28 334.08V326.88"/>
<use data-text="1" xlink:href="#font_4_18" transform="matrix(0,-6.5454547,-6.5454547,-0,88.76001,155.02472)" fill="#000080"/>
<use data-text="k" xlink:href="#font_4_76" transform="matrix(0,-6.5454547,-6.5454547,-0,88.76001,151.38544)" fill="#000080"/>
<use data-text="&#x03a9;" xlink:href="#font_5_473" transform="matrix(0,-6.5454547,-6.5454547,-0,88.76001,148.1127)" fill="#000080"/>
<path transform="matrix(1,0,0,-1,-326.81,467.97474)" stroke-width=".72" stroke-linecap="round" stroke-linejoin="round" fill="none" stroke="#a10000" d="M434.88 360V365.76"/>
<use data-text="4" xlink:href="#font_4_21" transform="matrix(0,-6.5454547,-6.5454547,-0,85.82001,130.33472)"/>
<path transform="matrix(1,0,0,-1,-326.81,467.97474)" stroke-width=".72" stroke-linecap="round" stroke-linejoin="round" fill="none" stroke="#a10000" d="M413.28 334.08V341.28"/>
<use data-text="3" xlink:href="#font_4_20" transform="matrix(0,-6.5454547,-6.5454547,-0,85.82001,97.894748)"/>
<path transform="matrix(1,0,0,-1,-326.81,467.97474)" stroke-width=".72" stroke-linecap="round" stroke-linejoin="round" fill="none" stroke="#a10000" d="M413.28 377.28V370.08"/>
<use data-text="2" xlink:href="#font_4_19" transform="matrix(0,-6.5454547,-6.5454547,-0,129.01999,130.33472)"/>
<path transform="matrix(1,0,0,-1,-326.81,467.97474)" stroke-width=".72" stroke-linecap="round" stroke-linejoin="round" fill="none" stroke="#a10000" d="M456.48 334.08V341.28"/>
<use data-text="1" xlink:href="#font_4_18" transform="matrix(0,-6.5454547,-6.5454547,-0,129.01999,97.894748)"/>
<path transform="matrix(1,0,0,-1,-326.81,467.97474)" stroke-width=".72" stroke-linecap="round" stroke-linejoin="round" fill="none" stroke="#a10000" d="M456.48 377.28V370.08"/>
<path transform="matrix(1,0,0,-1,-326.81,467.97474)" stroke-width=".72" stroke-linecap="round" stroke-linejoin="round" fill="none" stroke="#33cc33" d="M453.6 380.16 459.36 374.4M453.6 374.4 459.36 380.16"/>
<path transform="matrix(1,0,0,-1,-326.81,467.97474)" stroke-width=".72" stroke-linecap="round" stroke-linejoin="round" fill="none" stroke="#a10000" d="M426.96 360H443.52"/>
<path transform="matrix(1,0,0,-1,-326.81,467.97474)" stroke-width=".72" stroke-linecap="round" stroke-linejoin="round" fill="none" stroke="#a10000" d="M413.28 341.28V370.08"/>
<path transform="matrix(1,0,0,-1,-326.81,467.97474)" stroke-width=".72" stroke-linecap="round" stroke-linejoin="round" fill="none" stroke="#a10000" d="M456.48 341.28V370.08"/>
<path transform="matrix(1,0,0,-1,-326.81,467.97474)" stroke-width=".72" stroke-linecap="round" stroke-linejoin="round" fill="none" stroke="#a10000" d="M443.52 355.68H456.48"/>
<path transform="matrix(1,0,0,-1,-326.81,467.97474)" stroke-width=".72" stroke-linecap="round" stroke-linejoin="round" fill="none" stroke="#a10000" d="M426.24 355.68H413.28"/>
<path transform="matrix(1,0,0,-1,-326.81,467.97474)" stroke-width=".72" stroke-linecap="round" stroke-linejoin="round" fill="none" stroke="#a10000" d="M443.88 355.68C443.88 356.67 443.07 357.48 442.08 357.48 441.09 357.48 440.28 356.67 440.28 355.68 440.28 354.69 441.09 353.88 442.08 353.88 443.07 353.88 443.88 354.69 443.88 355.68"/>
<path transform="matrix(1,0,0,-1,-326.81,467.97474)" stroke-width=".72" stroke-linecap="round" stroke-linejoin="round" fill="none" stroke="#a10000" d="M429.48 355.68C429.48 356.67 428.67 357.48 427.68 357.48 426.69 357.48 425.88 356.67 425.88 355.68 425.88 354.69 426.69 353.88 427.68 353.88 428.67 353.88 429.48 354.69 429.48 355.68"/>
<use data-text="P" xlink:href="#font_4_49" transform="matrix(6.5454547,0,0,-6.5454547,133.26999,107.384738)" fill="#000080"/>
<use data-text="u" xlink:href="#font_4_86" transform="matrix(6.5454547,0,0,-6.5454547,137.6358,107.384738)" fill="#000080"/>
<use data-text="s" xlink:href="#font_4_84" transform="matrix(6.5454547,0,0,-6.5454547,141.27509,107.384738)" fill="#000080"/>
<use data-text="h" xlink:href="#font_4_73" transform="matrix(6.5454547,0,0,-6.5454547,144.54782,107.384738)" fill="#000080"/>
<use data-text="B" xlink:href="#font_4_35" transform="matrix(6.5454547,0,0,-6.5454547,148.1871,107.384738)" fill="#000080"/>
<use data-text="u" xlink:href="#font_4_86" transform="matrix(6.5454547,0,0,-6.5454547,152.55292,107.384738)" fill="#000080"/>
<use data-text="t" xlink:href="#font_4_85" transform="matrix(6.5454547,0,0,-6.5454547,156.1922,107.384738)" fill="#000080"/>
<use data-text="t" xlink:href="#font_4_85" transform="matrix(6.5454547,0,0,-6.5454547,158.01184,107.384738)" fill="#000080"/>
<use data-text="o" xlink:href="#font_4_80" transform="matrix(6.5454547,0,0,-6.5454547,159.83148,107.384738)" fill="#000080"/>
<use data-text="n" xlink:href="#font_4_79" transform="matrix(6.5454547,0,0,-6.5454547,163.47077,107.384738)" fill="#000080"/>
<path transform="matrix(1,0,0,-1,-326.81,467.97474)" stroke-width=".72" stroke-linecap="round" stroke-linejoin="round" fill="none" stroke="#a10000" d="M456.48 298.08V290.88"/>
<path transform="matrix(1,0,0,-1,-326.81,467.97474)" stroke-width=".72" stroke-linecap="round" stroke-linejoin="round" fill="none" stroke="#a10000" d="M449.28 290.88H463.68L456.48 283.68 449.28 290.88"/>
<use data-text="G" xlink:href="#font_4_40" transform="matrix(6.5454547,0,0,-6.5454547,122.399997,190.18473)" fill="#000080"/>
<use data-text="N" xlink:href="#font_4_47" transform="matrix(6.5454547,0,0,-6.5454547,127.49237,190.18473)" fill="#000080"/>
<use data-text="D" xlink:href="#font_4_37" transform="matrix(6.5454547,0,0,-6.5454547,132.2182,190.18473)" fill="#000080"/>
<path transform="matrix(1,0,0,-1,-326.81,467.97474)" stroke-width=".72" stroke-linecap="round" stroke-linejoin="round" fill="none" stroke="#000000" d="M456.48 298.08V334.08"/>
<path transform="matrix(1,0,0,-1,-326.81,467.97474)" stroke-width=".72" stroke-linecap="round" stroke-linejoin="round" fill="none" stroke="#000000" d="M456.48 298.08V334.08"/>
<path transform="matrix(1,0,0,-1,-326.81,467.97474)" stroke-width=".72" stroke-linecap="round" stroke-linejoin="round" fill="none" stroke="#008700" d="M413.28 334.08V334.08"/>
<path transform="matrix(1,0,0,-1,-326.81,467.97474)" stroke-width=".72" stroke-linecap="round" stroke-linejoin="round" fill="none" stroke="#008700" d="M413.28 334.08V334.08"/>
<path transform="matrix(1,0,0,-1,-326.81,467.97474)" stroke-width=".72" stroke-linecap="round" stroke-linejoin="round" fill="none" stroke="#a10000" d="M413.28 290.88V287.28"/>
<path transform="matrix(1,0,0,-1,-326.81,467.97474)" stroke-width=".72" stroke-linecap="round" stroke-linejoin="round" fill="none" stroke="#a10000" d="M416.88 283.68H409.68"/>
<path transform="matrix(1,0,0,-1,-326.81,467.97474)" stroke-width=".72" stroke-linecap="round" stroke-linejoin="round" fill="none" stroke="#a10000" d="M413.28 283.68V287.28"/>
<use data-text="V" xlink:href="#font_4_55" transform="matrix(6.5454547,0,0,-6.5454547,79.56,190.18473)" fill="#000080"/>
<use data-text="C" xlink:href="#font_4_36" transform="matrix(6.5454547,0,0,-6.5454547,83.92581,190.18473)" fill="#000080"/>
<use data-text="C" xlink:href="#font_4_36" transform="matrix(6.5454547,0,0,-6.5454547,88.65164,190.18473)" fill="#000080"/>
<path transform="matrix(1,0,0,-1,-326.81,467.97474)" stroke-width=".72" stroke-linecap="round" stroke-linejoin="round" fill="none" stroke="#ff0000" d="M413.28 305.28V290.88"/>
<path transform="matrix(1,0,0,-1,-326.81,467.97474)" stroke-width=".72" stroke-linecap="round" stroke-linejoin="round" fill="none" stroke="#ff0000" d="M413.28 305.28V290.88"/>
<path transform="matrix(1,0,0,-1,-326.81,467.97474)" stroke-width=".72" stroke-linecap="round" stroke-linejoin="round" fill="none" stroke="#a10000" d="M499.68 395.28H506.88"/>
<path transform="matrix(1,0,0,-1,-326.81,467.97474)" stroke-width=".72" stroke-linecap="round" stroke-linejoin="round" fill="none" stroke="#a10000" d="M506.88 398.88H521.28L528.48 395.28 521.28 391.68H506.88V398.88"/>
<use data-text="#" xlink:href="#font_4_4" transform="matrix(6.5454547,0,0,-6.5454547,205.27002,74.98474)" fill="#0000ff"/>
<use data-text="R" xlink:href="#font_4_51" transform="matrix(6.5454547,0,0,-6.5454547,208.9093,74.98474)" fill="#0000ff"/>
<use data-text="S" xlink:href="#font_4_52" transform="matrix(6.5454547,0,0,-6.5454547,213.63513,74.98474)" fill="#0000ff"/>
<use data-text="T" xlink:href="#font_4_53" transform="matrix(6.5454547,0,0,-6.5454547,218.00098,74.98474)" fill="#0000ff"/>
<path transform="matrix(1,0,0,-1,-326.81,467.97474)" stroke-width=".72" stroke-linecap="round" stroke-linejoin="round" fill="none" stroke="#999999" d="M413.28 395.28H499.68"/>
<path transform="matrix(1,0,0,-1,-326.81,467.97474)" stroke-width=".72" stroke-linecap="round" stroke-linejoin="round" fill="none" stroke="#999999" d="M413.28 380.88V395.28"/>
<path transform="matrix(1,0,0,-1,-326.81,467.97474)" stroke-width=".72" stroke-linecap="round" stroke-linejoin="round" fill="none" stroke="#999999" d="M373.68 380.88H413.28"/>
<path transform="matrix(1,0,0,-1,-326.81,467.97474)" stroke-width=".72" stroke-linecap="round" stroke-linejoin="round" fill="none" stroke="#999999" d="M373.68 380.88V283.68"/>
<path transform="matrix(1,0,0,-1,-326.81,467.97474)" stroke-width=".72" stroke-linecap="round" stroke-linejoin="round" fill="none" stroke="#999999" d="M373.68 283.68H341.28"/>
<path transform="matrix(1,0,0,-1,-326.81,467.97474)" stroke-width=".72" stroke-linecap="round" stroke-linejoin="round" fill="none" stroke="#999999" d="M341.28 294.48V283.68"/>
<path transform="matrix(1,0,0,-1,-326.81,467.97474)" stroke-width=".72" stroke-linecap="round" stroke-linejoin="round" fill="none" stroke="#999999" d="M413.28 377.28V380.88"/>
<path transform="matrix(1,0,0,-1,-326.81,467.97474)" stroke-width=".72" stroke-linecap="round" stroke-linejoin="round" fill="none" stroke="#999999" d="M413.28 395.28H499.68"/>
<path transform="matrix(1,0,0,-1,-326.81,467.97474)" stroke-width=".72" stroke-linecap="round" stroke-linejoin="round" fill="none" stroke="#999999" d="M413.28 380.88V395.28"/>
<path transform="matrix(1,0,0,-1,-326.81,467.97474)" stroke-width=".72" stroke-linecap="round" stroke-linejoin="round" fill="none" stroke="#999999" d="M373.68 380.88H413.28"/>
<path transform="matrix(1,0,0,-1,-326.81,467.97474)" stroke-width=".72" stroke-linecap="round" stroke-linejoin="round" fill="none" stroke="#999999" d="M373.68 380.88V283.68"/>
<path transform="matrix(1,0,0,-1,-326.81,467.97474)" stroke-width=".72" stroke-linecap="round" stroke-linejoin="round" fill="none" stroke="#999999" d="M373.68 283.68H341.28"/>
<path transform="matrix(1,0,0,-1,-326.81,467.97474)" stroke-width=".72" stroke-linecap="round" stroke-linejoin="round" fill="none" stroke="#999999" d="M341.28 294.48V283.68"/>
<path transform="matrix(1,0,0,-1,-326.81,467.97474)" stroke-width=".72" stroke-linecap="round" stroke-linejoin="round" fill="none" stroke="#999999" d="M413.28 377.28V380.88"/>
<path transform="matrix(1,0,0,-1,-326.81,467.97474)" stroke-width=".72" stroke-linecap="round" stroke-linejoin="round" fill="none" stroke="#a10000" d="M330.12 305.28C330.12 305.88 329.64 306.36 329.04 306.36 328.44 306.36 327.96 305.88 327.96 305.28 327.96 304.68 328.44 304.2 329.04 304.2 329.64 304.2 330.12 304.68 330.12 305.28"/>
<path transform="matrix(1,0,0,-1,-326.81,467.97474)" stroke-width=".72" stroke-linecap="square" stroke-miterlimit="72" stroke-linejoin="miter" fill="none" stroke="#a10000" d="M325.44 402.48H364.32V301.68H325.44Z"/>
<path transform="matrix(1,0,0,-1,-326.81,467.97474)" stroke-width=".72" stroke-linecap="round" stroke-linejoin="round" fill="none" stroke="#a10000" d="M330.12 305.28C330.12 305.88 329.64 306.36 329.04 306.36 328.44 306.36 327.96 305.88 327.96 305.28 327.96 304.68 328.44 304.2 329.04 304.2 329.64 304.2 330.12 304.68 330.12 305.28"/>
<use data-text="G" xlink:href="#font_4_40" transform="matrix(0,-6.5454547,-6.5454547,-0,10.220001,163.63474)"/>
<use data-text="N" xlink:href="#font_4_47" transform="matrix(0,-6.5454547,-6.5454547,-0,10.220001,158.54236)"/>
<use data-text="D" xlink:href="#font_4_37" transform="matrix(0,-6.5454547,-6.5454547,-0,10.220001,153.81653)"/>
<use data-text="1" xlink:href="#font_4_18" transform="matrix(0,-6.5454547,-6.5454547,-0,6.619995,170.29474)"/>
<path transform="matrix(1,0,0,-1,-326.81,467.97474)" stroke-width=".72" stroke-linecap="round" stroke-linejoin="round" fill="none" stroke="#a10000" d="M334.08 294.48V301.68"/>
<use data-text="T" xlink:href="#font_4_53" transform="matrix(0,-6.5454547,-6.5454547,-0,17.420014,163.63474)"/>
<use data-text="R" xlink:href="#font_4_51" transform="matrix(0,-6.5454547,-6.5454547,-0,17.420014,159.63547)"/>
<use data-text="I" xlink:href="#font_4_42" transform="matrix(0,-6.5454547,-6.5454547,-0,17.420014,154.90964)"/>
<use data-text="G" xlink:href="#font_4_40" transform="matrix(0,-6.5454547,-6.5454547,-0,17.420014,153.09)"/>
<use data-text="G" xlink:href="#font_4_40" transform="matrix(0,-6.5454547,-6.5454547,-0,17.420014,147.99762)"/>
<use data-text="E" xlink:href="#font_4_38" transform="matrix(0,-6.5454547,-6.5454547,-0,17.420014,142.90525)"/>
<use data-text="R" xlink:href="#font_4_51" transform="matrix(0,-6.5454547,-6.5454547,-0,17.420014,138.53943)"/>
<use data-text="2" xlink:href="#font_4_19" transform="matrix(0,-6.5454547,-6.5454547,-0,13.820007,170.29474)"/>
<path transform="matrix(1,0,0,-1,-326.81,467.97474)" stroke-width=".72" stroke-linecap="round" stroke-linejoin="round" fill="none" stroke="#a10000" d="M341.28 294.48V301.68"/>
<use data-text="O" xlink:href="#font_4_48" transform="matrix(0,-6.5454547,-6.5454547,-0,24.619996,163.63474)"/>
<use data-text="U" xlink:href="#font_4_54" transform="matrix(0,-6.5454547,-6.5454547,-0,24.619996,158.54236)"/>
<use data-text="T" xlink:href="#font_4_53" transform="matrix(0,-6.5454547,-6.5454547,-0,24.619996,153.81653)"/>
<use data-text="3" xlink:href="#font_4_20" transform="matrix(0,-6.5454547,-6.5454547,-0,21.019989,170.29474)"/>
<path transform="matrix(1,0,0,-1,-326.81,467.97474)" stroke-width=".72" stroke-linecap="round" stroke-linejoin="round" fill="none" stroke="#a10000" d="M348.48 294.48V301.68"/>
<use data-text="R" xlink:href="#font_4_51" transform="matrix(0,-6.5454547,-6.5454547,-0,31.820008,163.63474)"/>
<use data-text="E" xlink:href="#font_4_38" transform="matrix(0,-6.5454547,-6.5454547,-0,31.820008,158.9089)"/>
<use data-text="S" xlink:href="#font_4_52" transform="matrix(0,-6.5454547,-6.5454547,-0,31.820008,154.54309)"/>
<use data-text="E" xlink:href="#font_4_38" transform="matrix(0,-6.5454547,-6.5454547,-0,31.820008,150.17728)"/>
<use data-text="T" xlink:href="#font_4_53" transform="matrix(0,-6.5454547,-6.5454547,-0,31.820008,145.81147)"/>
<use data-text="4" xlink:href="#font_4_21" transform="matrix(0,-6.5454547,-6.5454547,-0,28.220002,170.29474)"/>
<path transform="matrix(1,0,0,-1,-326.81,467.97474)" stroke-width=".72" stroke-linecap="round" stroke-linejoin="round" fill="none" stroke="#a10000" d="M355.68 294.48V301.68"/>
<path transform="matrix(1,0,0,-1,-326.81,467.97474)" stroke-width=".72" stroke-linecap="round" stroke-linejoin="round" fill="none" stroke="#33cc33" d="M352.8 297.36 358.56 291.6M352.8 291.6 358.56 297.36"/>
<use data-text="C" xlink:href="#font_4_36" transform="matrix(0,-6.5454547,-6.5454547,-0,31.820008,115.43472)"/>
<use data-text="O" xlink:href="#font_4_48" transform="matrix(0,-6.5454547,-6.5454547,-0,31.820008,110.70889)"/>
<use data-text="N" xlink:href="#font_4_47" transform="matrix(0,-6.5454547,-6.5454547,-0,31.820008,105.616519)"/>
<use data-text="T" xlink:href="#font_4_53" transform="matrix(0,-6.5454547,-6.5454547,-0,31.820008,100.890689)"/>
<use data-text="R" xlink:href="#font_4_51" transform="matrix(0,-6.5454547,-6.5454547,-0,31.820008,96.89142)"/>
<use data-text="O" xlink:href="#font_4_48" transform="matrix(0,-6.5454547,-6.5454547,-0,31.820008,92.16559)"/>
<use data-text="L" xlink:href="#font_4_45" transform="matrix(0,-6.5454547,-6.5454547,-0,31.820008,87.07321)"/>
<use data-text="/" xlink:href="#font_4_16" transform="matrix(0,-6.5454547,-6.5454547,-0,31.820008,83.43393)"/>
<use data-text="V" xlink:href="#font_4_55" transform="matrix(0,-6.5454547,-6.5454547,-0,31.820008,81.61429)"/>
<use data-text="T" xlink:href="#font_4_53" transform="matrix(0,-6.5454547,-6.5454547,-0,31.820008,77.248477)"/>
<use data-text="G" xlink:href="#font_4_40" transform="matrix(0,-6.5454547,-6.5454547,-0,31.820008,73.24921)"/>
<use data-text="5" xlink:href="#font_4_22" transform="matrix(0,-6.5454547,-6.5454547,-0,28.220002,65.134738)"/>
<path transform="matrix(1,0,0,-1,-326.81,467.97474)" stroke-width=".72" stroke-linecap="round" stroke-linejoin="round" fill="none" stroke="#a10000" d="M355.68 409.68V402.48"/>
<path transform="matrix(1,0,0,-1,-326.81,467.97474)" stroke-width=".72" stroke-linecap="round" stroke-linejoin="round" fill="none" stroke="#33cc33" d="M352.8 412.56 358.56 406.8M352.8 406.8 358.56 412.56"/>
<use data-text="T" xlink:href="#font_4_53" transform="matrix(0,-6.5454547,-6.5454547,-0,24.619996,103.79474)"/>
<use data-text="R" xlink:href="#font_4_51" transform="matrix(0,-6.5454547,-6.5454547,-0,24.619996,99.79547)"/>
<use data-text="E" xlink:href="#font_4_38" transform="matrix(0,-6.5454547,-6.5454547,-0,24.619996,95.06964)"/>
<use data-text="S" xlink:href="#font_4_52" transform="matrix(0,-6.5454547,-6.5454547,-0,24.619996,90.70383)"/>
<use data-text="H" xlink:href="#font_4_41" transform="matrix(0,-6.5454547,-6.5454547,-0,24.619996,86.33801)"/>
<use data-text="O" xlink:href="#font_4_48" transform="matrix(0,-6.5454547,-6.5454547,-0,24.619996,81.61218)"/>
<use data-text="L" xlink:href="#font_4_45" transform="matrix(0,-6.5454547,-6.5454547,-0,24.619996,76.519809)"/>
<use data-text="D" xlink:href="#font_4_37" transform="matrix(0,-6.5454547,-6.5454547,-0,24.619996,72.88052)"/>
<use data-text="6" xlink:href="#font_4_23" transform="matrix(0,-6.5454547,-6.5454547,-0,21.019989,65.134738)"/>
<path transform="matrix(1,0,0,-1,-326.81,467.97474)" stroke-width=".72" stroke-linecap="round" stroke-linejoin="round" fill="none" stroke="#a10000" d="M348.48 409.68V402.48"/>
<use data-text="D" xlink:href="#font_4_37" transform="matrix(0,-6.5454547,-6.5454547,-0,17.420014,107.07474)"/>
<use data-text="I" xlink:href="#font_4_42" transform="matrix(0,-6.5454547,-6.5454547,-0,17.420014,102.34891)"/>
<use data-text="S" xlink:href="#font_4_52" transform="matrix(0,-6.5454547,-6.5454547,-0,17.420014,100.52927)"/>
<use data-text="C" xlink:href="#font_4_36" transform="matrix(0,-6.5454547,-6.5454547,-0,17.420014,96.16345)"/>
<use data-text="H" xlink:href="#font_4_41" transform="matrix(0,-6.5454547,-6.5454547,-0,17.420014,91.43762)"/>
<use data-text="A" xlink:href="#font_4_34" transform="matrix(0,-6.5454547,-6.5454547,-0,17.420014,86.71179)"/>
<use data-text="R" xlink:href="#font_4_51" transform="matrix(0,-6.5454547,-6.5454547,-0,17.420014,82.34598)"/>
<use data-text="G" xlink:href="#font_4_40" transform="matrix(0,-6.5454547,-6.5454547,-0,17.420014,77.62015)"/>
<use data-text="E" xlink:href="#font_4_38" transform="matrix(0,-6.5454547,-6.5454547,-0,17.420014,72.52777)"/>
<use data-text="7" xlink:href="#font_4_24" transform="matrix(0,-6.5454547,-6.5454547,-0,13.820007,65.134738)"/>
<path transform="matrix(1,0,0,-1,-326.81,467.97474)" stroke-width=".72" stroke-linecap="round" stroke-linejoin="round" fill="none" stroke="#a10000" d="M341.28 409.68V402.48"/>
<use data-text="V" xlink:href="#font_4_55" transform="matrix(0,-6.5454547,-6.5454547,-0,10.220001,81.97473)"/>
<use data-text="C" xlink:href="#font_4_36" transform="matrix(0,-6.5454547,-6.5454547,-0,10.220001,77.60892)"/>
<use data-text="C" xlink:href="#font_4_36" transform="matrix(0,-6.5454547,-6.5454547,-0,10.220001,72.88309)"/>
<use data-text="8" xlink:href="#font_4_25" transform="matrix(0,-6.5454547,-6.5454547,-0,6.619995,65.134738)"/>
<path transform="matrix(1,0,0,-1,-326.81,467.97474)" stroke-width=".72" stroke-linecap="round" stroke-linejoin="round" fill="none" stroke="#a10000" d="M334.08 409.68V402.48"/>
<use data-text="L" xlink:href="#font_4_45" transform="matrix(6.5454547,0,0,-6.5454547,3.3399964,125.384738)" fill="#000080"/>
<use data-text="M" xlink:href="#font_4_46" transform="matrix(6.5454547,0,0,-6.5454547,6.9792788,125.384738)" fill="#000080"/>
<use data-text="5" xlink:href="#font_4_22" transform="matrix(6.5454547,0,0,-6.5454547,12.431641,125.384738)" fill="#000080"/>
<use data-text="5" xlink:href="#font_4_22" transform="matrix(6.5454547,0,0,-6.5454547,16.070923,125.384738)" fill="#000080"/>
<use data-text="5" xlink:href="#font_4_22" transform="matrix(6.5454547,0,0,-6.5454547,19.710206,125.384738)" fill="#000080"/>
<use data-text="C" xlink:href="#font_4_36" transform="matrix(6.5454547,0,0,-6.5454547,23.349488,125.384738)" fill="#000080"/>
<use data-text="N" xlink:href="#font_4_47" transform="matrix(6.5454547,0,0,-6.5454547,28.075318,125.384738)" fill="#000080"/>
<path transform="matrix(1,0,0,-1,-326.81,467.97474)" stroke-width=".72" stroke-linecap="round" stroke-linejoin="round" fill="none" stroke="#a10000" d="M334.08 452.88V456.48"/>
<path transform="matrix(1,0,0,-1,-326.81,467.97474)" stroke-width=".72" stroke-linecap="round" stroke-linejoin="round" fill="none" stroke="#a10000" d="M330.48 460.08H337.68"/>
<path transform="matrix(1,0,0,-1,-326.81,467.97474)" stroke-width=".72" stroke-linecap="round" stroke-linejoin="round" fill="none" stroke="#a10000" d="M334.08 460.08V456.48"/>
<use data-text="V" xlink:href="#font_4_55" transform="matrix(6.5454547,0,0,-6.5454547,.36001588,6.584717)" fill="#000080"/>
<use data-text="C" xlink:href="#font_4_36" transform="matrix(6.5454547,0,0,-6.5454547,4.72583,6.584717)" fill="#000080"/>
<use data-text="C" xlink:href="#font_4_36" transform="matrix(6.5454547,0,0,-6.5454547,9.45166,6.584717)" fill="#000080"/>
<path transform="matrix(1,0,0,-1,-326.81,467.97474)" stroke-width=".72" stroke-linecap="round" stroke-linejoin="round" fill="none" stroke="#a10000" d="M334.08 254.88V247.68"/>
<path transform="matrix(1,0,0,-1,-326.81,467.97474)" stroke-width=".72" stroke-linecap="round" stroke-linejoin="round" fill="none" stroke="#a10000" d="M326.88 247.68H341.28L334.08 240.48 326.88 247.68"/>
<use data-text="G" xlink:href="#font_4_40" transform="matrix(6.5454547,0,0,-6.5454547,0,233.38474)" fill="#000080"/>
<use data-text="N" xlink:href="#font_4_47" transform="matrix(6.5454547,0,0,-6.5454547,5.0923769,233.38474)" fill="#000080"/>
<use data-text="D" xlink:href="#font_4_37" transform="matrix(6.5454547,0,0,-6.5454547,9.818207,233.38474)" fill="#000080"/>
<path transform="matrix(1,0,0,-1,-326.81,467.97474)" stroke-width=".72" stroke-linecap="round" stroke-linejoin="round" fill="none" stroke="#000000" d="M334.08 294.48V254.88"/>
<path transform="matrix(1,0,0,-1,-326.81,467.97474)" stroke-width=".72" stroke-linecap="round" stroke-linejoin="round" fill="none" stroke="#000000" d="M334.08 294.48V254.88"/>
<path transform="matrix(1,0,0,-1,-326.81,467.97474)" stroke-width=".72" stroke-linecap="round" stroke-linejoin="round" fill="none" stroke="#ff0000" d="M334.08 449.28V409.68"/>
<path transform="matrix(1,0,0,-1,-326.81,467.97474)" stroke-width=".72" stroke-linecap="round" stroke-linejoin="round" fill="none" stroke="#ff0000" d="M341.28 449.28H334.08"/>
<path transform="matrix(1,0,0,-1,-326.81,467.97474)" stroke-width=".72" stroke-linecap="round" stroke-linejoin="round" fill="none" stroke="#ff0000" d="M341.28 445.68V449.28"/>
<path transform="matrix(1,0,0,-1,-326.81,467.97474)" stroke-width=".72" stroke-linecap="round" stroke-linejoin="round" fill="none" stroke="#ff0000" d="M334.08 449.28V452.88"/>
<path transform="matrix(1,0,0,-1,-326.81,467.97474)" stroke-width=".72" stroke-linecap="round" stroke-linejoin="round" fill="none" stroke="#ff0000" d="M334.08 449.28V409.68"/>
<path transform="matrix(1,0,0,-1,-326.81,467.97474)" stroke-width=".72" stroke-linecap="round" stroke-linejoin="round" fill="none" stroke="#ff0000" d="M341.28 449.28H334.08"/>
<path transform="matrix(1,0,0,-1,-326.81,467.97474)" stroke-width=".72" stroke-linecap="round" stroke-linejoin="round" fill="none" stroke="#ff0000" d="M341.28 445.68V449.28"/>
<path transform="matrix(1,0,0,-1,-326.81,467.97474)" stroke-width=".72" stroke-linecap="round" stroke-linejoin="round" fill="none" stroke="#ff0000" d="M334.08 449.28V452.88"/>
<path transform="matrix(1,0,0,-1,-326.81,467.97474)" stroke-width=".72" stroke-linecap="round" stroke-linejoin="round" fill="none" stroke="#a10000" d="M341.28 445.68V438.48"/>
<path transform="matrix(1,0,0,-1,-326.81,467.97474)" stroke-width=".72" stroke-linecap="round" stroke-linejoin="round" fill="none" stroke="#a10000" d="M341.28 416.88V424.08"/>
<path transform="matrix(1,0,0,-1,-326.81,467.97474)" stroke-width=".72" stroke-linecap="square" stroke-miterlimit="72" stroke-linejoin="miter" fill="none" stroke="#a10000" d="M338.4 438.48H344.16V424.08003H338.4Z"/>
<use data-text="8" xlink:href="#font_4_25" transform="matrix(0,-4.418182,-4.418182,-0,16.019989,43.694734)" fill="#000080"/>
<use data-text="2" xlink:href="#font_4_19" transform="matrix(0,-4.418182,-4.418182,-0,16.019989,41.23822)" fill="#000080"/>
<use data-text="0" xlink:href="#font_4_17" transform="matrix(0,-4.418182,-4.418182,-0,16.019989,38.781709)" fill="#000080"/>
<use data-text="k" xlink:href="#font_4_76" transform="matrix(0,-4.418182,-4.418182,-0,16.019989,36.325197)" fill="#000080"/>
<use data-text="&#x03a9;" xlink:href="#font_5_473" transform="matrix(0,-4.418182,-4.418182,-0,16.019989,34.11612)" fill="#000080"/>
<use data-text="5" xlink:href="#font_4_22" transform="matrix(0,-3.2727273,-3.2727273,-0,40.820009,126.95474)"/>
<use data-text="5" xlink:href="#font_4_22" transform="matrix(0,-3.2727273,-3.2727273,-0,40.820009,125.1351)"/>
<use data-text="5" xlink:href="#font_4_22" transform="matrix(0,-3.2727273,-3.2727273,-0,40.820009,123.31546)"/>
<use data-text="-" xlink:href="#font_4_14" transform="matrix(0,-3.2727273,-3.2727273,-0,40.820009,121.49582)"/>
<use data-text="T" xlink:href="#font_4_53" transform="matrix(0,-3.2727273,-3.2727273,-0,40.820009,120.406009)"/>
<use data-text="i" xlink:href="#font_4_74" transform="matrix(0,-3.2727273,-3.2727273,-0,40.820009,118.40637)"/>
<use data-text="m" xlink:href="#font_4_78" transform="matrix(0,-3.2727273,-3.2727273,-0,40.820009,117.67984)"/>
<use data-text="e" xlink:href="#font_4_70" transform="matrix(0,-3.2727273,-3.2727273,-0,40.820009,114.95364)"/>
<use data-text="r" xlink:href="#font_4_83" transform="matrix(0,-3.2727273,-3.2727273,-0,40.820009,113.134)"/>
<path transform="matrix(1,0,0,-1,-326.81,467.97474)" stroke-width=".72" stroke-linecap="round" stroke-linejoin="round" fill="none" stroke="#008700" d="M341.28 409.68V413.28"/>
<path transform="matrix(1,0,0,-1,-326.81,467.97474)" stroke-width=".72" stroke-linecap="round" stroke-linejoin="round" fill="none" stroke="#008700" d="M348.48 413.28H341.28"/>
<path transform="matrix(1,0,0,-1,-326.81,467.97474)" stroke-width=".72" stroke-linecap="round" stroke-linejoin="round" fill="none" stroke="#008700" d="M348.48 413.28V416.88"/>
<path transform="matrix(1,0,0,-1,-326.81,467.97474)" stroke-width=".72" stroke-linecap="round" stroke-linejoin="round" fill="none" stroke="#008700" d="M370.08 416.88H348.48"/>
<path transform="matrix(1,0,0,-1,-326.81,467.97474)" stroke-width=".72" stroke-linecap="round" stroke-linejoin="round" fill="none" stroke="#008700" d="M348.48 409.68V413.28"/>
<path transform="matrix(1,0,0,-1,-326.81,467.97474)" stroke-width=".72" stroke-linecap="round" stroke-linejoin="round" fill="none" stroke="#008700" d="M341.28 413.28V416.88"/>
<path transform="matrix(1,0,0,-1,-326.81,467.97474)" stroke-width=".72" stroke-linecap="round" stroke-linejoin="round" fill="none" stroke="#008700" d="M341.28 409.68V413.28"/>
<path transform="matrix(1,0,0,-1,-326.81,467.97474)" stroke-width=".72" stroke-linecap="round" stroke-linejoin="round" fill="none" stroke="#008700" d="M348.48 413.28H341.28"/>
<path transform="matrix(1,0,0,-1,-326.81,467.97474)" stroke-width=".72" stroke-linecap="round" stroke-linejoin="round" fill="none" stroke="#008700" d="M348.48 413.28V416.88"/>
<path transform="matrix(1,0,0,-1,-326.81,467.97474)" stroke-width=".72" stroke-linecap="round" stroke-linejoin="round" fill="none" stroke="#008700" d="M370.08 416.88H348.48"/>
<path transform="matrix(1,0,0,-1,-326.81,467.97474)" stroke-width=".72" stroke-linecap="round" stroke-linejoin="round" fill="none" stroke="#008700" d="M348.48 409.68V413.28"/>
<path transform="matrix(1,0,0,-1,-326.81,467.97474)" stroke-width=".72" stroke-linecap="round" stroke-linejoin="round" fill="none" stroke="#008700" d="M341.28 413.28V416.88"/>
<path transform="matrix(1,0,0,-1,-326.81,467.97474)" stroke-width=".72" stroke-linecap="round" stroke-linejoin="round" fill="none" stroke="#a10000" d="M370.08 429.84V424.08"/>
<path transform="matrix(1,0,0,-1,-326.81,467.97474)" stroke-width=".72" stroke-linecap="round" stroke-linejoin="round" fill="none" stroke="#a10000" d="M370.08 445.68V438.48"/>
<path transform="matrix(1,0,0,-1,-326.81,467.97474)" stroke-width=".72" stroke-linecap="round" stroke-linejoin="round" fill="none" stroke="#a10000" d="M364.32 432.72H375.84"/>
<path transform="matrix(1,0,0,-1,-326.81,467.97474)" stroke-width=".72" stroke-linecap="round" stroke-linejoin="round" fill="none" stroke="#a10000" d="M370.08 438.48V432.72"/>
<path transform="matrix(1,0,0,-1,-326.81,467.97474)" stroke-width=".72" stroke-linecap="round" stroke-linejoin="round" fill="none" stroke="#a10000" d="M370.08 416.88V424.08"/>
<path transform="matrix(1,0,0,-1,-326.81,467.97474)" stroke-width=".72" stroke-linecap="round" stroke-linejoin="round" fill="none" stroke="#a10000" d="M375.84 429.84H364.32"/>
<use data-text="2" xlink:href="#font_4_19" transform="matrix(6.5454547,0,0,-6.5454547,46.869997,46.184724)" fill="#000080"/>
<use data-text="2" xlink:href="#font_4_19" transform="matrix(6.5454547,0,0,-6.5454547,50.509279,46.184724)" fill="#000080"/>
<use data-text="0" xlink:href="#font_4_17" transform="matrix(6.5454547,0,0,-6.5454547,54.14856,46.184724)" fill="#000080"/>
<use data-text="n" xlink:href="#font_4_79" transform="matrix(6.5454547,0,0,-6.5454547,57.78784,46.184724)" fill="#000080"/>
<use data-text="F" xlink:href="#font_4_39" transform="matrix(6.5454547,0,0,-6.5454547,61.427125,46.184724)" fill="#000080"/>
<path transform="matrix(1,0,0,-1,-326.81,467.97474)" stroke-width=".72" stroke-linecap="round" stroke-linejoin="round" fill="none" stroke="#a10000" d="M499.68 265.68H506.88"/>
<path transform="matrix(1,0,0,-1,-326.81,467.97474)" stroke-width=".72" stroke-linecap="round" stroke-linejoin="round" fill="none" stroke="#a10000" d="M506.88 269.28H521.28L528.48 265.68 521.28 262.08H506.88V269.28"/>
<use data-text="R" xlink:href="#font_4_51" transform="matrix(6.5454547,0,0,-6.5454547,205.27002,204.58472)" fill="#0000ff"/>
<use data-text="S" xlink:href="#font_4_52" transform="matrix(6.5454547,0,0,-6.5454547,209.99585,204.58472)" fill="#0000ff"/>
<use data-text="T" xlink:href="#font_4_53" transform="matrix(6.5454547,0,0,-6.5454547,214.3617,204.58472)" fill="#0000ff"/>
<path transform="matrix(1,0,0,-1,-326.81,467.97474)" stroke-width=".72" stroke-linecap="round" stroke-linejoin="round" fill="none" stroke="#999999" d="M348.48 294.48V265.68"/>
<path transform="matrix(1,0,0,-1,-326.81,467.97474)" stroke-width=".72" stroke-linecap="round" stroke-linejoin="round" fill="none" stroke="#999999" d="M499.68 265.68H348.48"/>
<path transform="matrix(1,0,0,-1,-326.81,467.97474)" stroke-width=".72" stroke-linecap="round" stroke-linejoin="round" fill="none" stroke="#999999" d="M348.48 294.48V265.68"/>
<path transform="matrix(1,0,0,-1,-326.81,467.97474)" stroke-width=".72" stroke-linecap="round" stroke-linejoin="round" fill="none" stroke="#999999" d="M499.68 265.68H348.48"/>
<use data-text="d" xlink:href="#font_4_69" transform="matrix(3.2727273,0,0,-3.2727273,39.670015,68.44473)"/>
<use data-text="e" xlink:href="#font_4_70" transform="matrix(3.2727273,0,0,-3.2727273,41.489656,68.44473)"/>
<use data-text="b" xlink:href="#font_4_67" transform="matrix(3.2727273,0,0,-3.2727273,43.309297,68.44473)"/>
<use data-text="o" xlink:href="#font_4_80" transform="matrix(3.2727273,0,0,-3.2727273,45.128938,68.44473)"/>
<use data-text="u" xlink:href="#font_4_86" transform="matrix(3.2727273,0,0,-3.2727273,46.948579,68.44473)"/>
<use data-text="n" xlink:href="#font_4_79" transform="matrix(3.2727273,0,0,-3.2727273,48.76822,68.44473)"/>
<use data-text="c" xlink:href="#font_4_68" transform="matrix(3.2727273,0,0,-3.2727273,50.58786,68.44473)"/>
<use data-text="e" xlink:href="#font_4_70" transform="matrix(3.2727273,0,0,-3.2727273,52.224214,68.44473)"/>
<use data-text="s" xlink:href="#font_4_84" transform="matrix(3.2727273,0,0,-3.2727273,54.043855,68.44473)"/>
<use data-text=" " xlink:href="#font_4_1" transform="matrix(3.2727273,0,0,-3.2727273,55.680208,68.44473)"/>
<use data-text="t" xlink:href="#font_4_85" transform="matrix(3.2727273,0,0,-3.2727273,56.590028,68.44473)"/>
<use data-text="h" xlink:href="#font_4_73" transform="matrix(3.2727273,0,0,-3.2727273,57.499849,68.44473)"/>
<use data-text="e" xlink:href="#font_4_70" transform="matrix(3.2727273,0,0,-3.2727273,59.31949,68.44473)"/>
<use data-text=" " xlink:href="#font_4_1" transform="matrix(3.2727273,0,0,-3.2727273,61.13913,68.44473)"/>
<use data-text="b" xlink:href="#font_4_67" transform="matrix(3.2727273,0,0,-3.2727273,62.04895,68.44473)"/>
<use data-text="u" xlink:href="#font_4_86" transform="matrix(3.2727273,0,0,-3.2727273,63.86859,68.44473)"/>
<use data-text="t" xlink:href="#font_4_85" transform="matrix(3.2727273,0,0,-3.2727273,65.68823,68.44473)"/>
<use data-text="t" xlink:href="#font_4_85" transform="matrix(3.2727273,0,0,-3.2727273,66.59805,68.44473)"/>
<use data-text="o" xlink:href="#font_4_80" transform="matrix(3.2727273,0,0,-3.2727273,67.50787,68.44473)"/>
<use data-text="n" xlink:href="#font_4_79" transform="matrix(3.2727273,0,0,-3.2727273,69.327518,68.44473)"/>
<path transform="matrix(1,0,0,-1,-326.81,467.97474)" stroke-width=".72" stroke-linecap="round" stroke-linejoin="round" fill="none" stroke="#a10000" d="M370.08 445.68V452.88"/>
<path transform="matrix(1,0,0,-1,-326.81,467.97474)" stroke-width=".72" stroke-linecap="round" stroke-linejoin="round" fill="none" stroke="#a10000" d="M377.28 452.88H362.88L370.08 460.08 377.28 452.88"/>
<use data-text="G" xlink:href="#font_4_40" transform="matrix(6.5454547,0,0,-6.5454547,36,6.584717)" fill="#000080"/>
<use data-text="N" xlink:href="#font_4_47" transform="matrix(6.5454547,0,0,-6.5454547,41.092378,6.584717)" fill="#000080"/>
<use data-text="D" xlink:href="#font_4_37" transform="matrix(6.5454547,0,0,-6.5454547,45.818208,6.584717)" fill="#000080"/>
<path transform="matrix(1,0,0,-1,-326.81,467.97474)" stroke-width=".72" stroke-linecap="round" stroke-linejoin="round" fill="none" stroke="#008700" d="M370.08 445.68V445.68"/>
<path transform="matrix(1,0,0,-1,-326.81,467.97474)" stroke-width=".72" stroke-linecap="round" stroke-linejoin="round" fill="none" stroke="#008700" d="M370.08 445.68V445.68"/>
<path transform="matrix(1,0,0,-1,-326.81,467.97474)" d="M415.08 380.88C415.08 381.87 414.27 382.68 413.28 382.68 412.29 382.68 411.48 381.87 411.48 380.88 411.48 379.89 412.29 379.08 413.28 379.08 414.27 379.08 415.08 379.89 415.08 380.88" fill="#cc0000"/>
<path transform="matrix(1,0,0,-1,-326.81,467.97474)" d="M335.88 449.28C335.88 450.27 335.07 451.08 334.08 451.08 333.09 451.08 332.28 450.27 332.28 449.28 332.28 448.29 333.09 447.48 334.08 447.48 335.07 447.48 335.88 448.29 335.88 449.28" fill="#cc0000"/>
<path transform="matrix(1,0,0,-1,-326.81,467.97474)" d="M343.08 413.28C343.08 414.27 342.27 415.08 341.28 415.08 340.29 415.08 339.48 414.27 339.48 413.28 339.48 412.29 340.29 411.48 341.28 411.48 342.27 411.48 343.08 412.29 343.08 413.28" fill="#cc0000"/>
<path transform="matrix(1,0,0,-1,-326.81,467.97474)" d="M350.28 413.28C350.28 414.27 349.47 415.08 348.48 415.08 347.49 415.08 346.68 414.27 346.68 413.28 346.68 412.29 347.49 411.48 348.48 411.48 349.47 411.48 350.28 412.29 350.28 413.28" fill="#cc0000"/>
</g>
</g>
</svg>
